<svg xmlns="http://www.w3.org/2000/svg" version="1.1" xmlns:xlink="http://www.w3.org/1999/xlink" xmlns:svgjs="http://svgjs.com/svgjs" width="512" height="512"><svg width="512" height="512" viewBox="0 0 512 512" fill="none" xmlns="http://www.w3.org/2000/svg">
<g clip-path="url(#clip0_27_2)">
<path d="M336.706 -42.6667C336.27 -39.8445 335.61 -35.7436 334.499 -32.3707C333.861 -31.0083 332.754 -29.5984 331.14 -28.1048C328.541 -25.7002 325.61 -22.158 324.625 -20.2315C322.082 -15.2529 319.353 -14.1998 308.598 -14.0641C295.953 -13.903 291.706 -11.1369 285.327 1.0919C282.904 5.73581 279.093 11.7936 276.855 14.5526C274.618 17.3116 271.232 22.727 269.331 26.5877C266.774 31.7812 264.725 34.3182 261.457 36.3433C259.028 37.8484 255.961 40.0632 254.64 41.2657C252.951 42.8049 251.339 43.2744 249.201 42.8506C245.979 42.2121 241.267 45.0292 241.267 47.5924C241.267 48.3415 240.033 51.0565 238.526 53.628C237.019 56.1991 235.831 59.6687 235.885 61.3378C236.132 68.9622 233.854 85.844 231.809 91.5436C230.559 95.029 230.388 99.5614 230.966 113.865L231.69 131.813L228.312 136.436C224.703 141.374 223.711 141.869 221.872 139.652C221.23 138.879 217.636 136.799 213.884 135.029C210.133 133.26 206.194 130.671 206.12 129.185C205.627 119.262 180.466 135.639 180.368 147.793C180.355 149.403 179.855 151.022 179.257 151.392C172.393 155.633 183.114 170.069 195.454 173.202C201.362 174.702 202.316 176.42 197.744 177.334C194.64 177.955 194.412 178.308 194.708 182.029C194.987 185.52 194.679 186.141 192.366 186.707C190.678 187.121 188.538 189.339 186.528 192.762C184.782 195.733 181.942 199.772 180.217 201.738C178.492 203.703 177.041 206.395 176.991 207.721C176.649 216.932 171.852 224.201 159.092 234.848C154.092 239.02 148.999 244.59 145.901 249.273C138.943 259.791 129.199 270.594 121.347 276.496L114.749 281.455L112.391 279.239C111.094 278.021 109.513 277.496 107.888 277.212C105.61 276.815 102.647 273.844 98.1525 269.802L94.9357 266.908C94.9357 266.908 93.6945 266.111 93.5629 265.681C93.3437 264.964 92.58 264.221 91.7823 264.164C91.4299 264.139 91.0811 264.003 91.0811 263.531C91.0565 262.846 90.4178 262.291 89.9039 262.57C89.5716 262.75 87.6028 264.846 87.6028 264.846C87.6028 264.846 85.3336 266.591 85.3336 267.114C85.3254 267.637 85.7669 267.863 86.294 268.02C86.8208 268.174 86.7589 268.348 86.874 268.869C86.9879 269.39 87.5223 270.158 88.2402 270.397C88.9577 270.636 88.9417 271.179 89.4685 271.79C97.7914 281.456 99.3852 282.545 99.4592 285.02C99.5324 287.512 99.8338 288.786 100.526 289.521C103.362 292.536 101.827 292.706 101.773 294.544C101.655 298.7 109.46 306.68 113.889 305.65C115.584 305.256 117.644 307.383 118.778 309.113C121.264 312.906 124.053 312.513 129.166 307.65C134.422 302.651 134.526 301.749 130.337 297.56L127.109 294.335L129.5 289.417C131.492 285.317 133.881 283.164 143.878 276.449C161.433 264.659 170.944 256.32 176.037 248.256C180.206 241.657 199.602 222.639 202.164 222.639C203.81 222.639 211.636 226.782 212.437 228.077C212.818 228.693 215.175 230.234 217.677 231.504C220.18 232.774 223.589 234.949 225.252 236.339C226.915 237.729 229.975 239.184 232.052 239.575C234.128 239.965 235.428 240.88 235.67 241.217C236.004 241.678 236.115 242.892 236.254 244.251C236.396 245.61 237.369 247.462 238.286 248.496C240.714 251.235 240.424 259.196 237.665 265.553C232.953 276.408 235.795 289.82 242.146 297.41C245.972 301.981 245.427 301.332 246.868 305.839C247.485 307.77 247.633 310.38 247.777 311.801C248.009 314.085 248.235 316.524 248.313 320.063C248.507 328.687 250.247 328.503 251.098 332.111C254.581 346.874 254.62 347.495 240.179 349.897C230.046 351.582 226.403 353.454 216.789 361.919C205.477 371.879 198.922 376.071 195.862 375.304C187.256 373.144 179.341 380.604 178.198 391.955C177.726 396.644 176.715 403.179 175.952 406.476C173.608 416.6 178.248 428.001 186.727 432.955C194.415 437.447 198.158 432.012 199.234 414.795C199.71 407.163 200.406 404.205 202.606 400.451C204.465 397.28 204.983 395.478 204.181 394.982C200.301 392.585 214.258 384.744 230.044 380.451C236.516 378.691 243.279 376.69 245.074 376.002C246.869 375.315 250.541 374.505 253.234 374.201C261.535 373.268 266.577 371.607 273.13 367.643C281.014 362.875 282.085 360.521 283.349 345.563C283.729 341.064 285.606 343.66 285.446 328.421C285.311 315.683 286.454 314.218 288.064 313.743C289.013 313.463 291.245 312.524 293.709 312.032C302.656 310.249 315.171 313.34 325.19 313.25C327.852 313.225 326.988 312.097 331.975 312.823C333.38 313.027 337.737 312.657 338.575 320.785C340.185 336.416 342.424 342.264 351.598 354.798C361.976 368.976 367.592 381.266 368.005 390.697C368.86 410.209 379.954 413.686 394.117 398.883C396.51 396.381 400.182 393.615 402.276 392.735C404.37 391.854 408.165 389.097 410.708 386.608C414.003 383.382 415.331 382.612 415.331 383.927C415.331 386.657 417.674 389.319 433.26 404.29C465.039 434.813 467.449 437.485 471.911 447.141C480.212 465.108 497.016 478.781 541.513 503.777C574.865 522.512 592.426 533.616 608.387 547.458C612.765 551.006 613.056 553.622 618.667 554.667V-42.649L336.706 -42.6667ZM248.661 64.5054C249.413 64.5383 250.389 65.5283 251.555 67.6942C254.709 73.5489 276.62 89.5289 288.121 94.3628C291.37 95.7289 295.337 97.7439 296.935 98.8412C302.299 102.525 320.39 107.6 333.195 109.013C342.188 110.006 343.101 110.705 347.48 119.929C350.061 125.365 352.633 129.017 355.291 131.012C363.81 137.411 366.813 143.217 368.076 155.743C370.232 177.141 379.265 187.822 397.602 190.65C403.426 191.549 405.252 193.626 406.639 200.937C407.252 204.175 408.847 208.368 410.183 210.255C417.338 220.366 421.933 225.603 425.241 227.417C436.291 233.477 437.818 245.104 429.281 258.147C426.483 262.422 423.628 266.271 422.936 266.698C414.823 271.711 412.481 285.217 416.901 301.499C424.744 330.385 425.402 367.421 418.038 365.573C415.392 364.909 411.92 366.346 408.526 369.508C407.399 370.557 404.98 371.715 403.152 372.081C398.066 373.098 393.153 372.409 390.577 370.317C389.828 369.709 387.828 369.489 386.132 369.827C381.798 370.693 377.168 361.255 373.938 344.966C372.637 338.408 369.95 327.858 367.967 321.52C365.984 315.183 364.021 308.085 363.605 305.748C361.318 292.918 354.924 286.559 338.634 280.913C333.848 279.254 337.694 277.75 326.654 273.951C316.627 270.501 308.009 268.412 305.625 267.236C302.479 265.684 298.995 262.846 295.613 253.161C293.85 248.113 291.782 243.895 291.638 243.312C291.228 241.64 290.837 237.923 287.239 230.85C284.16 224.795 277.782 217.321 273.887 209.042C270.227 201.265 264.4 190.985 260.936 186.2C249.578 170.506 245.437 161.86 248.967 157.211C250.645 155.001 249.697 154.378 248.531 153.204C246.52 151.179 247.691 115.213 249.849 108.433C251.651 102.77 251.318 94.425 248.889 84.2927C246.168 72.9455 246.405 64.4096 248.661 64.5054Z" fill="#05252E"></path>
</g>
<defs>
<clipPath id="SvgjsClipPath1000">
<rect width="512" height="512" fill="white"></rect>
</clipPath>
</defs>
</svg><style>@media (prefers-color-scheme: light) { :root { filter: none; } }
</style></svg>