<?xml version="1.0" standalone="no"?>
<!DOCTYPE svg PUBLIC "-//W3C//DTD SVG 20010904//EN"
 "http://www.w3.org/TR/2001/REC-SVG-20010904/DTD/svg10.dtd">
<svg version="1.0" xmlns="http://www.w3.org/2000/svg"
 width="700.000000pt" height="700.000000pt" viewBox="0 0 700.000000 700.000000"
 preserveAspectRatio="xMidYMid meet">
<metadata>
Created by potrace 1.14, written by Peter Selinger 2001-2017
</metadata>
<g transform="translate(0.000000,700.000000) scale(0.100000,-0.100000)"
fill="#000000" stroke="none">
<path d="M0 3500 l0 -3500 3500 0 3500 0 0 3500 0 3500 -3500 0 -3500 0 0
-3500z m3730 3224 c0 -2 -12 -25 -28 -51 -15 -26 -33 -59 -40 -73 -22 -42 -44
-63 -127 -125 -64 -47 -88 -59 -120 -60 -46 -2 -94 -23 -106 -45 -64 -127 -82
-178 -84 -250 -4 -100 -24 -248 -46 -335 -28 -111 -29 -153 -15 -495 l4 -95
-36 -45 c-19 -25 -44 -53 -54 -62 -19 -17 -21 -17 -51 6 -18 13 -63 41 -102
61 -78 41 -105 62 -105 81 0 7 -7 19 -14 27 -35 34 -150 -17 -241 -108 -61
-60 -91 -112 -100 -176 -4 -24 -11 -46 -16 -48 -21 -7 -29 -52 -18 -94 8 -29
29 -59 73 -102 60 -59 77 -68 209 -117 34 -13 31 -29 -9 -41 -32 -11 -44 -24
-43 -47 4 -50 -2 -71 -23 -80 -36 -15 -51 -31 -101 -105 -26 -38 -62 -91 -81
-116 -23 -32 -35 -62 -39 -97 -13 -112 -46 -155 -301 -402 -43 -41 -96 -102
-118 -135 -101 -149 -223 -283 -352 -384 l-78 -62 -25 26 c-14 14 -42 29 -63
35 -33 9 -114 73 -193 152 -15 15 -31 28 -36 28 -5 0 -11 6 -14 13 -3 8 -15 2
-36 -17 -17 -17 -31 -33 -31 -36 0 -4 12 -20 27 -36 108 -116 163 -191 163
-224 0 -14 9 -38 20 -55 11 -17 17 -38 14 -51 -14 -57 89 -163 159 -164 20 0
39 -12 64 -40 52 -58 79 -53 159 25 24 24 44 53 44 65 0 11 -18 40 -41 64
l-40 44 26 51 c33 67 64 95 220 204 239 165 327 244 428 379 64 86 208 235
290 301 58 47 58 47 93 32 19 -8 65 -34 102 -58 161 -106 220 -142 272 -162
44 -17 56 -26 58 -46 1 -13 14 -47 28 -76 32 -64 29 -134 -10 -247 -37 -107
-35 -228 6 -323 15 -34 66 -114 82 -128 33 -28 50 -104 61 -280 3 -44 14 -103
24 -131 25 -66 44 -171 37 -200 -9 -36 -41 -51 -170 -78 -65 -14 -137 -35
-160 -46 -40 -21 -146 -99 -176 -130 -34 -35 -125 -104 -178 -136 -46 -28 -65
-34 -107 -33 -72 3 -119 -16 -160 -63 -38 -45 -61 -106 -70 -183 -3 -27 -13
-88 -21 -135 -27 -147 -15 -229 46 -319 56 -82 151 -131 191 -99 31 25 68 132
67 198 0 36 14 148 23 183 6 21 21 58 34 83 19 35 22 51 14 65 -30 57 185 155
585 265 27 7 72 16 100 19 123 14 263 76 329 143 38 39 57 98 71 227 3 28 10
66 15 85 6 19 12 100 14 180 2 84 8 154 15 167 19 35 75 48 207 48 66 0 150
-4 186 -8 68 -8 128 -9 191 -4 86 8 121 -33 132 -156 14 -147 65 -267 181
-427 30 -41 54 -81 54 -87 1 -7 5 -13 10 -13 15 0 120 -222 135 -285 8 -33 17
-85 20 -115 11 -118 40 -180 93 -205 66 -32 141 -1 253 104 36 34 86 73 112
86 25 13 76 49 112 80 l65 56 20 -38 c11 -22 150 -166 326 -338 168 -165 324
-323 346 -351 22 -29 65 -98 95 -155 63 -117 136 -213 217 -283 l54 -48 -1
-136 -1 -137 -3225 0 -3225 0 -1 3215 c0 1768 1 3220 3 3226 3 7 504 11 1728
11 949 0 1725 -2 1725 -3z m-290 -649 c65 -95 299 -265 505 -367 66 -33 124
-63 130 -68 29 -24 256 -93 375 -114 19 -3 44 -8 55 -10 11 -2 47 -7 80 -11
33 -4 71 -15 86 -26 14 -10 48 -60 75 -111 38 -73 66 -111 130 -173 110 -108
141 -174 158 -335 17 -162 65 -274 149 -353 57 -53 105 -76 221 -106 117 -31
126 -40 158 -155 31 -115 151 -284 248 -350 24 -17 59 -46 77 -64 105 -109 60
-297 -117 -487 -62 -67 -76 -90 -90 -160 -16 -79 -7 -202 25 -330 14 -55 32
-140 41 -190 8 -49 17 -101 19 -115 24 -132 24 -419 0 -490 -9 -28 -20 -51
-23 -51 -4 -1 -17 -3 -28 -4 -47 -5 -80 -18 -114 -45 -50 -39 -82 -50 -149
-51 -40 -1 -69 5 -95 19 -21 11 -49 18 -62 16 -34 -6 -60 10 -88 54 -23 36
-71 170 -80 222 -14 78 -53 236 -96 387 -28 94 -55 195 -61 225 -34 155 -114
238 -300 313 -37 14 -77 37 -89 50 -26 27 -95 55 -285 114 -136 42 -177 68
-210 132 -26 49 -102 244 -108 275 -8 42 -72 177 -91 194 -9 7 -16 16 -16 21
0 5 -20 39 -45 76 -25 38 -73 120 -106 183 -80 154 -101 189 -192 324 -43 64
-90 139 -104 168 -33 66 -41 138 -19 169 14 21 14 25 -1 48 -29 44 -20 471 12
606 20 85 18 186 -6 306 -27 137 -30 153 -31 228 -1 55 8 79 29 81 1 0 16 -20
33 -45z"/>
</g>
</svg>
