<svg width="319" height="105" viewBox="0 0 319 105" fill="none" xmlns="http://www.w3.org/2000/svg">
<path d="M172.196 33.1586C176.153 33.4454 179.475 35.98 182.901 37.7755C187.699 40.2702 192.737 41.3847 197.975 42.4499C205.844 44.0308 210.499 48.6741 213.461 54.995C213.662 54.8431 213.851 54.7111 214.028 54.5938C216.149 53.2705 217.974 51.9906 220.336 51.1741C224.979 49.5786 230.075 50.0684 234.798 50.9476C243.073 52.4915 252.48 61.2731 261.161 58.8588C261.338 58.8183 261.51 58.8183 261.681 58.83C254.253 65.3375 243.679 59.5146 234.953 58.9561C233.528 58.8588 232.139 58.8787 230.789 58.999C229.44 58.9561 228.05 59.0277 226.614 59.2571C224.945 59.5146 223.423 60.239 221.965 61.0901C219.003 62.2468 216.195 63.7619 213.461 65.5322C211.06 65.9329 208.452 64.0717 207.777 61.7946C207.623 61.0127 207.423 60.2478 207.148 59.5146C206.147 55.7998 204.849 52.4915 200.903 50.6614C200.028 50.2608 199.085 49.9569 198.136 49.6965C196.717 48.9087 195.265 48.2042 193.801 47.5655C185.634 43.9621 176.244 41.0609 171.938 33.1586C172.03 33.1586 172.115 33.1357 172.196 33.1586Z" fill="#AEAEAE"/>
<path d="M271.426 93.503C273.411 93.1282 275.412 93.95 277.305 94.394C280.01 95.0152 282.646 94.9237 285.368 94.7806C289.468 94.56 292.356 96.264 294.639 99.0221C294.712 98.9077 294.781 98.8021 294.867 98.7358C295.737 97.8079 296.497 96.9286 297.555 96.247C299.642 94.8433 302.227 94.4456 304.674 94.265C308.975 93.9699 314.745 97.1233 318.743 94.7976C318.817 94.7518 318.886 94.7348 319 94.7348C316.14 98.9077 310.153 97.3984 305.784 98.215C305.057 98.3581 304.372 98.5499 303.714 98.7617C303.039 98.9194 302.375 99.14 301.684 99.4233C300.883 99.7758 300.243 100.328 299.608 100.933C298.299 101.889 297.114 102.992 295.988 104.221C294.838 104.722 293.312 104.163 292.694 103.118C292.516 102.737 292.317 102.382 292.082 102.055C291.121 100.345 290.04 98.876 287.867 98.4725C287.381 98.3751 286.884 98.3581 286.369 98.3581C285.568 98.1375 284.751 97.9797 283.95 97.8624C279.449 97.1233 274.44 96.86 271.312 93.5147C271.312 93.5147 271.381 93.503 271.426 93.503Z" fill="#AEAEAE"/>
<path d="M128.144 64.04C130.14 64.3063 131.799 65.6754 133.492 66.6661C135.865 68.0639 138.421 68.7889 141.074 69.4359C145.044 70.4525 147.279 72.953 148.652 76.2584C148.754 76.1898 148.852 76.1264 148.955 76.0437C150.07 75.4366 151.025 74.8377 152.255 74.4828C154.668 73.7748 157.258 74.1502 159.643 74.7233C163.829 75.7487 168.41 80.46 172.905 79.4317H173.156C169.216 82.5793 163.955 79.3402 159.512 78.8217C158.791 78.756 158.088 78.7185 157.384 78.756C156.698 78.6757 155.995 78.6757 155.257 78.776C154.388 78.8616 153.615 79.1825 152.827 79.5807C151.299 80.0993 149.813 80.8037 148.371 81.6402C147.153 81.7833 145.873 80.7609 145.581 79.5807C145.512 79.1825 145.427 78.776 145.312 78.3976C144.883 76.476 144.312 74.7403 142.356 73.7261C141.898 73.4886 141.446 73.2968 140.943 73.1478C140.251 72.7096 139.53 72.3201 138.81 71.9564C134.732 69.897 130.009 68.1959 128.013 64.04H128.144Z" fill="#AEAEAE"/>
<path d="M31.9676 0.0206543C35.1474 -0.205763 38.0865 1.48122 41.0033 2.54116C45.0861 4.0076 49.2497 4.36541 53.5268 4.64638C59.9947 5.08455 64.1864 8.27258 67.2461 13.018C67.3662 12.8408 67.5208 12.7347 67.6408 12.6003C69.1792 11.3257 70.5231 10.1314 72.3074 9.22342C75.8356 7.43613 79.9647 7.2842 83.8249 7.47015C90.5955 7.80567 99.0533 13.8227 105.704 10.9591C105.853 10.9016 105.984 10.8846 106.139 10.8617C100.895 16.8647 91.8423 13.3705 84.8081 13.8403C83.6644 13.9318 82.5606 14.1037 81.4913 14.3354C80.405 14.4645 79.307 14.6481 78.1803 14.9771C76.8879 15.3842 75.7613 16.1116 74.6803 16.9451C72.4158 18.1792 70.3457 19.712 68.3611 21.4242C66.4913 21.9914 64.2092 20.783 63.4146 19.0298C63.2032 18.4373 62.9742 17.8531 62.6943 17.2771C61.4704 14.4128 60.075 11.924 56.7464 10.9016C55.9916 10.667 55.2198 10.535 54.4363 10.4347C53.2182 9.93904 51.9885 9.53548 50.7476 9.17473C43.8511 7.1927 36.0334 5.86939 31.7673 0.0376649C31.8247 0.0376649 31.8874 0.0206543 31.9676 0.0206543Z" fill="#AEAEAE"/>
<path d="M117.622 37.5008C119.166 36.9823 120.841 37.4234 122.42 37.5924C124.627 37.7754 126.72 37.4234 128.882 37.031C132.125 36.4092 134.624 37.4404 136.734 39.3967C136.785 39.2852 136.825 39.2277 136.883 39.1591C137.483 38.3138 137.986 37.5466 138.758 36.8849C140.286 35.5587 142.298 34.9375 144.225 34.5275C147.628 33.8289 152.581 35.7218 155.503 33.4453C155.571 33.4048 155.623 33.3761 155.72 33.345C153.884 36.9964 148.949 36.435 145.53 37.5665C144.974 37.7613 144.454 37.976 143.957 38.2223C143.431 38.42 142.893 38.6523 142.412 38.9673C141.812 39.3392 141.337 39.8466 140.909 40.388C139.97 41.2872 139.113 42.3037 138.358 43.4182C137.512 43.9391 136.231 43.627 135.607 42.8739C135.441 42.5958 135.241 42.3442 135.024 42.089C134.052 40.8373 133.057 39.7662 131.267 39.7005C130.867 39.6747 130.466 39.7005 130.066 39.7662C129.391 39.6747 128.739 39.6372 128.082 39.6372C124.393 39.514 120.384 39.8636 117.525 37.5179C117.525 37.5179 117.582 37.5008 117.622 37.5008Z" fill="#AEAEAE"/>
<path d="M0.114191 29.3951C1.76147 29.3751 3.19676 30.3031 4.6666 30.9161C6.72496 31.7725 8.82959 32.0505 10.9799 32.3168C14.2856 32.6975 16.3439 34.442 17.8021 36.9425C17.8712 36.8592 17.928 36.7965 18.0023 36.7361C18.8257 36.1231 19.5465 35.5271 20.473 35.1294C22.3258 34.3329 24.4245 34.3329 26.3974 34.5276C29.8401 34.8942 34.0148 38.1626 37.4862 36.8592C37.543 36.8334 37.6115 36.8334 37.6859 36.8334C34.8727 39.7663 30.3431 37.7327 26.7406 37.8013C26.1456 37.8242 25.591 37.8787 25.0248 37.9761C24.4702 37.996 23.9215 38.0934 23.3266 38.2224C22.6461 38.4031 22.0453 38.7351 21.4849 39.1363C20.3184 39.7006 19.1975 40.4221 18.1569 41.2586C17.1901 41.4932 16.0412 40.8374 15.6863 39.9153C15.6008 39.6085 15.486 39.2853 15.366 38.9985C14.8114 37.518 14.1766 36.1947 12.4837 35.5788C12.1124 35.4614 11.7289 35.367 11.3289 35.2896C10.7281 35.0203 10.0992 34.774 9.47608 34.5622C5.99882 33.3451 2.05895 32.4945 0 29.4209C0.0398204 29.3951 0.0854967 29.3951 0.114191 29.3951Z" fill="#AEAEAE"/>
</svg>
