<svg width="314" height="108" viewBox="0 0 314 108" fill="none" xmlns="http://www.w3.org/2000/svg">
<path d="M38 1.17302C38 1.17302 49.9288 -3.55759 62.3223 5.98117C62.3223 5.98117 62.942 4.27504 63.0969 5.20565C63.2518 6.13631 63.949 12.0301 67.9768 15.5975C67.9768 15.5975 67.5895 13.1159 68.2092 12.7281C68.8289 12.3404 70.3007 14.4342 70.3007 14.4342L72.6244 14.5118C72.6244 14.5118 74.2511 13.0383 74.561 13.1934C74.8707 13.3485 74.6384 15.2873 74.6384 15.2873C74.6384 15.2873 77.9692 9.16079 78.5888 8.23019C79.2085 7.29953 79.0536 5.82609 79.4409 6.29139C79.8282 6.75669 88.5811 1.01794 95.0877 4.81795C95.0877 4.81795 90.0528 5.43833 90.3626 12.1853C90.3626 12.1853 84.8631 12.2628 82.3844 21.026C82.3844 21.026 77.5044 18.7771 72.547 25.0587C67.5895 31.3403 64.4912 33.124 64.4912 33.124C64.4912 33.124 61.0443 26.0669 60.7344 23.973C60.4245 21.8791 57.6747 16.5281 52.33 17.071C52.33 17.071 52.4849 7.53221 45.9784 9.39341C45.9784 9.39341 46.9853 2.8016 38 1.17302Z" fill="#2F4044"/>
<path d="M130 73.0823C130 73.0823 133.883 66.4538 143.959 66.4542C143.959 66.4542 144.324 65.436 144.821 66.4485C145.319 67.461 146.514 71.7926 150.938 73.8471C150.938 73.8471 151.649 71.1236 152.099 70.6352C152.549 70.1467 152.704 72.125 152.704 72.125C152.704 72.125 154.305 72.5551 155.039 73.2971C155.039 73.2971 156.692 72.5765 156.918 72.9186C157.143 73.2607 155.149 75.3802 154.421 75.5046C154.421 75.5046 158.742 77.8208 163.789 77.489C165.305 77.3892 164.863 78.0047 164.388 78.1124C163.913 78.22 168.985 82.8322 166.116 91C166.116 91 165.967 86.3702 162.912 86.6219C162.912 86.6219 163.345 83.5344 158.318 83.508C158.318 83.508 155.562 79.3809 147.339 84.0513C147.339 84.0513 147.84 76.549 141.444 74.2163C141.444 74.2163 141.147 70.8199 136.12 71.9661C136.12 71.9661 134.914 69.4197 130 73.0823Z" fill="#2F4044"/>
<path d="M265 7.56564C265 7.56564 265.637 2.81824 271.44 0.373722C271.44 0.373722 271.405 -0.299432 271.936 0.161131C272.467 0.621694 274.2 2.81824 277.244 2.92457C277.244 2.92457 276.996 1.18858 277.138 0.798842C277.279 0.409163 277.845 1.50744 277.845 1.50744C277.845 1.50744 278.872 1.36573 279.473 1.6137C279.473 1.6137 280.252 0.798843 280.464 0.94055C280.676 1.08226 280.039 2.78286 279.65 3.03083C279.65 3.03083 282.698 3.31215 285.524 1.89712C286.374 1.472 286.267 1.93256 286.02 2.10971C285.772 2.28686 289.806 3.70399 290.124 9.0891C290.124 9.0891 288.921 6.46737 287.223 7.35311C287.223 7.35311 286.727 5.47542 283.826 6.67996C283.826 6.67996 281.242 4.97941 277.633 9.65593C277.633 9.65593 276.111 5.22738 271.865 5.43998C271.865 5.43998 270.874 3.56228 268.256 5.43998C268.256 5.43998 266.946 4.27082 265 7.56564Z" fill="#2F4044"/>
<path d="M0 41.7529C0 41.7529 0.963347 34.378 9.74085 30.5805C9.74085 30.5805 9.68733 29.5349 10.4901 30.2503C11.293 30.9658 13.9155 34.378 18.5183 34.5431C18.5183 34.5431 18.1437 31.8464 18.3577 31.241C18.5718 30.6356 19.4282 32.3417 19.4282 32.3417C19.4282 32.3417 20.9803 32.1215 21.8901 32.5068C21.8901 32.5068 23.0676 31.2409 23.3888 31.4611C23.7099 31.6813 22.7465 34.323 22.1577 34.7082C22.1577 34.7082 26.767 35.1452 31.0423 32.9471C32.3268 32.2866 32.1662 33.0021 31.7916 33.2773C31.4169 33.5525 37.5183 35.7539 38 44.1194C38 44.1194 36.1803 40.0467 33.6113 41.4227C33.6113 41.4227 32.862 38.5057 28.4732 40.377C28.4732 40.377 24.5662 37.7352 19.1071 45C19.1071 45 16.8056 38.1205 10.3831 38.4507C10.3831 38.4507 8.8845 35.5338 4.92393 38.4507C4.92393 38.4507 2.94363 36.6345 0 41.7529Z" fill="#2F4044"/>
<path d="M150.124 30.0504C150.124 30.0504 145.562 29.391 141.073 32.8429C141.073 32.8429 140.708 32.2611 140.416 33.192C140.124 34.1229 139.029 35.5192 139.321 41.0656L138.007 41.3759C138.007 41.3759 136.402 37.5361 135.015 36.4501C135.015 36.4501 134.686 36.2949 134.832 36.7604C134.832 36.7604 126.693 34.7435 121 39.1263C121 39.1263 126.62 37.8464 128.007 40.5227C128.007 40.5227 131.037 39.0875 132.934 42.7334C132.934 42.7334 135.234 42.9274 135.708 44.5176L134.54 47C134.54 47 135.635 45.4485 138.007 45.4097C140.38 45.371 141.146 44.3237 141.146 44.3237C141.146 44.3237 142.277 44.0134 142.606 44.1686C142.934 44.3237 143.336 43.7031 143.336 43.7031L142.971 42.811C142.971 42.811 143.774 41.4535 143.774 41.0268C143.774 40.6003 142.971 40.9493 142.679 41.2208C142.387 41.4923 142.058 41.0268 142.058 41.0268C142.058 41.0268 142.46 38.3119 144.431 38.2731C144.431 38.2731 144.467 34.5883 147.241 34.7823C147.241 34.7823 146.766 30.3218 151 30.3994L150.124 30.0504Z" fill="#2F4044"/>
<path d="M313.227 96.1324C313.227 96.1324 308.497 92.6674 301.364 93.9601C301.364 93.9601 301.305 93.0763 300.414 93.9703C299.523 94.8643 297.447 95.8153 294.421 102.349L292.757 101.924C292.757 101.924 293.274 96.5676 292.372 94.4988C292.372 94.4988 292.096 94.1259 291.979 94.7463C291.979 94.7463 284.051 87.601 275 89.2459C275 89.2459 282.092 91.1157 282.032 95.0078C282.032 95.0078 286.305 95.161 286.233 100.468C286.233 100.468 288.7 102.056 288.272 104.161L285.458 106.314C285.458 106.314 287.627 105.185 290.317 106.549C293.007 107.913 294.502 107.168 294.502 107.168C294.502 107.168 295.961 107.484 296.237 107.857C296.512 108.23 297.338 107.756 297.338 107.756L297.468 106.517C297.468 106.517 299.191 105.437 299.45 104.948C299.708 104.459 298.594 104.382 298.101 104.52C297.609 104.658 297.521 103.929 297.521 103.929C297.521 103.929 299.615 101.054 301.854 102.18C301.854 102.18 304.123 97.9768 307.124 99.8461C307.124 99.8461 309.288 94.4499 314 97.0527L313.227 96.1324Z" fill="#2F4044"/>
<path d="M177 52.5093C177 52.5093 181.485 39.8199 201.931 37.5806C201.931 37.5806 202.691 36.2743 202.995 37.5806C203.299 38.8868 203.225 43.8459 207.708 47.0977C209.38 48.3106 211.204 48.7772 211.204 48.7772C211.204 48.7772 209.836 44.765 210.9 40.8462C210.9 40.8462 212.268 41.686 212.572 42.7124C212.572 42.7124 215.385 42.5257 216.905 44.4851L219.565 44.2985C219.565 44.2985 217.665 49.8968 215.765 51.0165C215.765 51.0165 220.705 53.3491 228.914 49.057C228.914 49.057 231.119 47.6575 231.043 48.9638C231.043 48.9638 246.776 62.1198 242.824 76.0222C242.824 76.0222 239.936 63.9858 233.703 71.1703C233.703 71.1703 233.019 58.9474 227.546 64.4524C227.546 64.4524 228.306 57.4545 221.769 62.3996C221.769 62.3996 218.349 56.055 207.556 69.0243C207.556 69.0243 205.427 52.696 200.867 55.3085C200.867 55.3085 199.347 48.4039 195.09 55.2152C195.09 55.2152 192.734 46.911 187.261 53.3491C187.261 53.3491 185.209 44.3918 177 52.5093Z" fill="#2F4044"/>
</svg>
