<svg width="319" height="105" viewBox="0 0 319 105" fill="none" xmlns="http://www.w3.org/2000/svg">
<path d="M172.196 33.1585C176.154 33.4453 179.476 35.9799 182.901 37.7754C187.699 40.2701 192.738 41.3846 197.976 42.4498C205.845 44.0306 210.5 48.674 213.462 54.9949C213.662 54.843 213.851 54.711 214.028 54.5937C216.15 53.2704 217.974 51.9905 220.336 51.1739C224.979 49.5785 230.075 50.0683 234.798 50.9475C243.074 52.4914 252.48 61.273 261.162 58.8587C261.339 58.8182 261.51 58.8182 261.682 58.8299C254.254 65.3374 243.68 59.5144 234.953 58.956C233.529 58.8586 232.139 58.8786 230.789 58.9988C229.44 58.956 228.051 59.0276 226.615 59.2569C224.945 59.5144 223.424 60.2389 221.966 61.09C219.003 62.2467 216.195 63.7618 213.462 65.5321C211.06 65.9327 208.453 64.0715 207.777 61.7945C207.623 61.0125 207.423 60.2477 207.148 59.5144C206.148 55.7997 204.849 52.4914 200.904 50.6613C200.029 50.2606 199.085 49.9568 198.136 49.6964C196.718 48.9086 195.265 48.2041 193.801 47.5653C185.635 43.962 176.245 41.0608 171.938 33.1585C172.03 33.1585 172.116 33.1356 172.196 33.1585Z" fill="#E9E9E9"/>
<path d="M271.427 93.503C273.411 93.1282 275.412 93.95 277.305 94.394C280.01 95.0152 282.647 94.9237 285.369 94.7806C289.469 94.56 292.357 96.264 294.639 99.0221C294.713 98.9077 294.782 98.8021 294.867 98.7358C295.737 97.8079 296.497 96.9286 297.555 96.247C299.642 94.8433 302.227 94.4456 304.675 94.265C308.976 93.9699 314.745 97.1233 318.743 94.7976C318.818 94.7518 318.886 94.7348 319 94.7348C316.141 98.9077 310.154 97.3984 305.785 98.215C305.058 98.3581 304.372 98.5499 303.715 98.7617C303.039 98.9194 302.376 99.14 301.684 99.4233C300.884 99.7758 300.243 100.328 299.608 100.933C298.299 101.889 297.115 102.992 295.988 104.221C294.839 104.722 293.312 104.163 292.694 103.118C292.517 102.737 292.317 102.382 292.082 102.055C291.122 100.345 290.041 98.876 287.868 98.4725C287.382 98.3751 286.884 98.3581 286.369 98.3581C285.569 98.1375 284.751 97.9797 283.951 97.8624C279.45 97.1233 274.44 96.86 271.312 93.5147C271.312 93.5147 271.381 93.503 271.427 93.503Z" fill="#E9E9E9"/>
<path d="M128.144 64.0399C130.14 64.3062 131.799 65.6753 133.492 66.666C135.865 68.0638 138.421 68.7888 141.074 69.4358C145.044 70.4523 147.279 72.9529 148.652 76.2583C148.754 76.1896 148.852 76.1263 148.955 76.0436C150.07 75.4365 151.025 74.8376 152.255 74.4827C154.668 73.7747 157.258 74.1501 159.643 74.7232C163.829 75.7485 168.41 80.4599 172.905 79.4316H173.156C169.216 82.5792 163.955 79.3401 159.512 78.8216C158.791 78.7559 158.088 78.7184 157.384 78.7559C156.698 78.6755 155.995 78.6755 155.257 78.7758C154.388 78.8615 153.615 79.1823 152.827 79.5806C151.299 80.0992 149.813 80.8036 148.371 81.6401C147.153 81.7832 145.873 80.7608 145.581 79.5806C145.512 79.1823 145.427 78.7758 145.312 78.3975C144.883 76.4759 144.312 74.7402 142.356 73.726C141.898 73.4885 141.446 73.2966 140.943 73.1477C140.251 72.7095 139.53 72.32 138.81 71.9563C134.732 69.8969 130.009 68.1958 128.013 64.0399H128.144Z" fill="#E9E9E9"/>
<path d="M31.9679 0.0206543C35.1476 -0.205763 38.0867 1.48122 41.0036 2.54116C45.0863 4.0076 49.2499 4.36541 53.5271 4.64638C59.995 5.08455 64.1867 8.27258 67.2464 13.018C67.3664 12.8408 67.521 12.7347 67.6411 12.6003C69.1794 11.3257 70.5234 10.1314 72.3077 9.22342C75.8359 7.43613 79.9649 7.2842 83.8251 7.47015C90.5958 7.80567 99.0535 13.8227 105.705 10.9591C105.853 10.9016 105.985 10.8846 106.139 10.8617C100.895 16.8647 91.8425 13.3705 84.8083 13.8403C83.6647 13.9318 82.5608 14.1037 81.4915 14.3354C80.4053 14.4645 79.3073 14.6481 78.1806 14.9771C76.8882 15.3842 75.7615 16.1116 74.6805 16.9451C72.416 18.1792 70.3459 19.712 68.3614 21.4242C66.4916 21.9914 64.2095 20.783 63.4148 19.0298C63.2034 18.4373 62.9745 17.8531 62.6946 17.2771C61.4707 14.4128 60.0752 11.924 56.7467 10.9016C55.9918 10.667 55.22 10.535 54.4365 10.4347C53.2185 9.93904 51.9887 9.53548 50.7479 9.17473C43.8513 7.1927 36.0336 5.86939 31.7676 0.0376649C31.825 0.0376649 31.8876 0.0206543 31.9679 0.0206543Z" fill="#E9E9E9"/>
<path d="M117.622 37.501C119.166 36.9824 120.841 37.4235 122.42 37.5925C124.627 37.7755 126.72 37.4235 128.882 37.0311C132.124 36.4094 134.624 37.4406 136.734 39.3968C136.785 39.2853 136.825 39.2278 136.882 39.1592C137.483 38.314 137.986 37.5467 138.758 36.8851C140.285 35.5588 142.298 34.9376 144.225 34.5276C147.628 33.829 152.58 35.7219 155.503 33.4454C155.571 33.4049 155.623 33.3762 155.72 33.3451C153.884 36.9965 148.949 36.4352 145.529 37.5667C144.974 37.7614 144.454 37.9761 143.956 38.2225C143.431 38.4201 142.893 38.6524 142.412 38.9674C141.812 39.3393 141.337 39.8467 140.908 40.3881C139.97 41.2873 139.113 42.3038 138.358 43.4183C137.511 43.9392 136.231 43.6272 135.607 42.874C135.441 42.596 135.241 42.3443 135.024 42.0892C134.052 40.8374 133.057 39.7663 131.267 39.7006C130.867 39.6748 130.466 39.7006 130.065 39.7663C129.391 39.6748 128.739 39.6373 128.082 39.6373C124.393 39.5141 120.384 39.8637 117.524 37.518C117.524 37.518 117.582 37.501 117.622 37.501Z" fill="#E9E9E9"/>
<path d="M0.114191 29.3951C1.76147 29.3751 3.19676 30.3031 4.6666 30.9161C6.72496 31.7725 8.82959 32.0505 10.9799 32.3168C14.2856 32.6975 16.3439 34.442 17.8021 36.9425C17.8712 36.8592 17.928 36.7965 18.0023 36.7361C18.8257 36.1231 19.5465 35.5271 20.473 35.1294C22.3258 34.3329 24.4245 34.3329 26.3974 34.5276C29.8401 34.8942 34.0148 38.1626 37.4862 36.8592C37.543 36.8334 37.6115 36.8334 37.6859 36.8334C34.8727 39.7663 30.3431 37.7327 26.7406 37.8013C26.1456 37.8242 25.591 37.8787 25.0248 37.9761C24.4702 37.996 23.9215 38.0934 23.3266 38.2224C22.6461 38.4031 22.0453 38.7351 21.4849 39.1363C20.3184 39.7006 19.1975 40.4221 18.1569 41.2586C17.1901 41.4932 16.0412 40.8374 15.6863 39.9153C15.6008 39.6085 15.486 39.2853 15.366 38.9985C14.8114 37.518 14.1766 36.1947 12.4837 35.5788C12.1124 35.4614 11.7289 35.367 11.3289 35.2896C10.7281 35.0203 10.0992 34.774 9.47608 34.5622C5.99882 33.3451 2.05895 32.4945 0 29.4209C0.0398204 29.3951 0.0854967 29.3951 0.114191 29.3951Z" fill="#E9E9E9"/>
</svg>
