<svg width="6000" height="3895" viewBox="0 0 6000 3895" fill="none" xmlns="http://www.w3.org/2000/svg">
<g clip-path="url(#clip0_1_2)">
<path d="M-370 -47.4644V652.536L2827.34 342.536C2827.34 342.451 2827.34 342.419 2827.34 342.335C2826.04 329.244 2825.36 315.969 2825.36 302.536C2825.36 289.102 2826.04 275.827 2827.34 262.737C2827.34 262.653 2827.34 262.62 2827.34 262.536C1760.9 166.768 696.744 47.9895 -370 -47.4644Z" fill="url(#paint0_linear_1_2)"/>
<path d="M286.308 -1796.84L-63.6919 -1190.62L2860.29 139.581C2860.33 139.507 2860.35 139.479 2860.39 139.406C2865.81 127.418 2871.86 115.584 2878.58 103.95C2885.29 92.3168 2892.52 81.1581 2900.19 70.4728C2900.23 70.3999 2900.25 70.372 2900.29 70.2987C2024.61 -545.858 1162.41 -1180.8 286.308 -1796.84Z" fill="url(#paint1_linear_1_2)"/>
<path d="M6508.76 -1190.62L6158.76 -1796.84L3544.78 70.2983C3544.82 70.3697 3544.84 70.3951 3544.88 70.4722C3552.55 81.1573 3559.78 92.3154 3566.49 103.95C3573.21 115.583 3579.26 127.417 3584.68 139.406C3584.72 139.477 3584.74 139.503 3584.78 139.579C4556.23 -310.703 5537.21 -739.917 6508.76 -1190.62Z" fill="url(#paint2_linear_1_2)"/>
<path d="M6815.07 652.536L6815.07 -47.4644L3617.73 262.535C3617.73 262.618 3617.73 262.648 3617.73 262.736C3619.03 275.826 3619.7 289.101 3619.7 302.535C3619.7 315.968 3619.03 329.243 3617.73 342.334C3617.73 342.416 3617.73 342.447 3617.73 342.534C4684.16 438.302 5748.33 557.082 6815.07 652.536Z" fill="url(#paint3_linear_1_2)"/>
<path d="M6158.76 2401.91L6508.76 1795.69L3584.78 465.49C3584.74 465.562 3584.73 465.588 3584.68 465.664C3579.26 477.652 3573.21 489.486 3566.49 501.12C3559.78 512.754 3552.55 523.912 3544.88 534.597C3544.84 534.669 3544.83 534.696 3544.78 534.771C4420.46 1150.93 5282.66 1785.87 6158.76 2401.91Z" fill="url(#paint4_linear_1_2)"/>
<path d="M4715.69 3588.76L5321.91 3238.76L3454.77 624.78C3454.7 624.822 3454.67 624.838 3454.6 624.88C3443.91 632.554 3432.75 639.777 3421.12 646.493C3409.49 653.21 3397.65 659.262 3385.66 664.679C3385.59 664.721 3385.57 664.737 3385.49 664.779C3835.77 1636.23 4264.99 2617.21 4715.69 3588.76Z" fill="url(#paint5_linear_1_2)"/>
<path d="M2872.53 3895.07H3572.53L3262.53 697.727C3262.45 697.728 3262.42 697.729 3262.33 697.727C3249.24 699.03 3235.97 699.706 3222.54 699.706C3209.1 699.706 3195.83 699.03 3182.74 697.727C3182.65 697.727 3182.62 697.728 3182.54 697.727C3086.77 1764.17 2967.99 2828.33 2872.53 3895.07Z" fill="url(#paint6_linear_1_2)"/>
<path d="M1123.16 3238.76L1729.38 3588.76L3059.58 664.78C3059.51 664.739 3059.48 664.725 3059.41 664.68C3047.42 659.263 3035.58 653.211 3023.95 646.494C3012.32 639.777 3001.16 632.555 2990.47 624.881C2990.4 624.839 2990.37 624.825 2990.3 624.78C2374.14 1500.46 1739.2 2362.66 1123.16 3238.76Z" fill="url(#paint7_linear_1_2)"/>
<path d="M-63.692 1795.69L286.308 2401.91L2900.29 534.772C2900.25 534.7 2900.23 534.675 2900.19 534.598C2892.51 523.913 2885.29 512.754 2878.57 501.12C2871.86 489.487 2865.81 477.652 2860.39 465.664C2860.35 465.592 2860.33 465.567 2860.29 465.49C1888.84 915.773 907.862 1344.99 -63.692 1795.69Z" fill="url(#paint8_linear_1_2)"/>
<path d="M3222.54 966.645C3603.62 966.645 3912.54 657.722 3912.54 276.645C3912.54 -104.431 3603.62 -413.355 3222.54 -413.355C2841.46 -413.355 2532.54 -104.431 2532.54 276.645C2532.54 657.722 2841.46 966.645 3222.54 966.645Z" fill="url(#paint9_radial_1_2)"/>
<path d="M3222.53 699.716C3441.89 699.716 3619.71 521.892 3619.71 302.536C3619.71 83.1799 3441.89 -94.6438 3222.53 -94.6438C3003.18 -94.6438 2825.35 83.1799 2825.35 302.536C2825.35 521.892 3003.18 699.716 3222.53 699.716Z" fill="url(#paint10_linear_1_2)"/>
<path d="M3172.51 -0.269705C3171.98 3.14498 3171.18 8.10594 3169.84 12.187C3169.06 13.8355 3167.72 15.5413 3165.77 17.3486C3162.63 20.258 3159.08 24.5439 3157.89 26.8749C3154.81 32.8987 3151.51 34.173 3138.5 34.3371C3123.2 34.5321 3118.06 37.8789 3110.35 52.6751C3107.42 58.294 3102.81 65.6237 3100.1 68.9619C3097.39 72.3001 3093.3 78.8525 3091 83.5238C3087.9 89.8077 3085.42 92.8773 3081.47 95.3276C3078.53 97.1487 3074.82 99.8286 3073.22 101.284C3071.18 103.146 3069.23 103.714 3066.64 103.201C3062.75 102.429 3057.05 105.837 3057.05 108.938C3057.05 109.845 3055.55 113.13 3053.73 116.241C3051.91 119.352 3050.47 123.55 3050.53 125.57C3050.83 134.795 3048.08 155.221 3045.6 162.117C3044.09 166.334 3043.88 171.818 3044.58 189.126L3045.46 210.841L3041.37 216.435C3037.01 222.41 3035.81 223.009 3033.58 220.326C3032.81 219.391 3028.46 216.874 3023.92 214.733C3019.38 212.592 3014.62 209.459 3014.53 207.662C3013.93 195.656 2983.49 215.471 2983.37 230.177C2983.37 232.125 2982.75 234.083 2982.03 234.531C2973.73 239.663 2986.7 257.13 3001.62 260.92C3008.77 262.735 3009.92 264.813 3004.39 265.92C3000.64 266.67 3000.36 267.098 3000.72 271.6C3001.06 275.825 3000.67 276.576 2997.89 277.261C2995.85 277.761 2993.26 280.445 2990.83 284.587C2988.71 288.182 2985.28 293.069 2983.19 295.447C2981.1 297.825 2979.35 301.082 2979.29 302.686C2978.88 313.831 2973.07 322.627 2957.63 335.509C2951.58 340.556 2945.42 347.296 2941.68 352.962C2933.26 365.688 2921.47 378.76 2911.97 385.901L2903.99 391.9L2901.14 389.219C2899.57 387.745 2897.66 387.11 2895.69 386.767C2892.93 386.286 2889.35 382.692 2883.91 377.801L2880.02 374.3C2880.02 374.3 2878.52 373.335 2878.36 372.814C2878.1 371.948 2877.17 371.049 2876.21 370.979C2875.78 370.945 2875.36 370.785 2875.36 370.213C2875.3 369.385 2874.55 368.713 2873.93 369.051C2873.53 369.269 2871.15 371.804 2871.15 371.804C2871.15 371.804 2868.4 373.916 2868.4 374.549C2868.4 375.182 2868.93 375.455 2869.57 375.644C2870.2 375.832 2870.13 376.042 2870.27 376.673C2870.4 377.302 2871.05 378.232 2871.92 378.521C2872.79 378.81 2872.77 379.467 2873.41 380.207C2883.48 391.902 2885.4 393.22 2885.49 396.214C2885.59 399.23 2885.95 400.771 2886.78 401.661C2890.21 405.308 2888.36 405.514 2888.29 407.737C2888.15 412.767 2897.59 422.422 2902.95 421.176C2905 420.699 2907.49 423.272 2908.86 425.366C2911.87 429.955 2915.25 429.479 2921.43 423.595C2927.79 417.547 2927.92 416.455 2922.85 411.387L2918.94 407.485L2921.83 401.535C2924.24 396.574 2927.14 393.968 2939.23 385.844C2960.47 371.578 2971.97 361.489 2978.13 351.731C2983.18 343.747 3006.64 320.736 3009.74 320.736C3011.73 320.736 3021.2 325.749 3022.17 327.316C3022.63 328.061 3025.48 329.926 3028.51 331.462C3031.54 332.998 3035.66 335.631 3037.67 337.313C3039.68 338.995 3043.39 340.755 3045.9 341.228C3048.41 341.699 3049.98 342.807 3050.28 343.215C3050.68 343.772 3050.81 345.241 3050.98 346.886C3051.15 348.53 3052.33 350.77 3053.44 352.021C3056.38 355.336 3056.03 364.969 3052.69 372.66C3046.99 385.794 3050.43 402.022 3058.11 411.205C3062.74 416.736 3062.08 415.95 3063.82 421.405C3064.57 423.741 3064.75 426.899 3064.92 428.618C3065.2 431.381 3065.48 434.332 3065.57 438.614C3065.8 449.049 3067.91 448.826 3068.94 453.192C3073.15 471.054 3073.2 471.806 3055.73 474.712C3043.47 476.751 3039.07 479.016 3027.43 489.258C3013.75 501.309 3005.82 506.382 3002.12 505.453C2991.71 502.84 2982.13 511.866 2980.75 525.6C2980.18 531.274 2978.95 539.181 2978.03 543.17C2975.2 555.419 2980.81 569.214 2991.07 575.209C3000.37 580.643 3004.9 574.067 3006.2 553.236C3006.77 544.002 3007.61 540.422 3010.28 535.88C3012.52 532.043 3013.15 529.863 3012.18 529.263C3007.49 526.362 3024.37 516.875 3043.47 511.681C3051.3 509.552 3059.48 507.13 3061.65 506.298C3063.82 505.467 3068.27 504.487 3071.52 504.119C3081.57 502.989 3087.67 500.98 3095.59 496.183C3105.13 490.415 3106.43 487.566 3107.96 469.468C3108.41 464.025 3110.69 467.165 3110.49 448.727C3110.33 433.315 3111.71 431.542 3113.66 430.967C3114.81 430.628 3117.51 429.493 3120.49 428.898C3131.31 426.74 3146.45 430.48 3158.57 430.371C3161.79 430.337 3160.75 428.975 3166.78 429.854C3168.48 430.101 3173.75 429.653 3174.77 439.488C3176.71 458.401 3179.42 465.477 3190.52 480.642C3203.08 497.797 3209.87 512.667 3210.37 524.079C3211.4 547.686 3224.82 551.894 3241.96 533.983C3244.85 530.956 3249.3 527.609 3251.83 526.544C3254.36 525.478 3258.95 522.142 3262.03 519.13C3266.02 515.228 3267.62 514.295 3267.62 515.886C3267.62 519.19 3270.46 522.411 3289.31 540.525C3327.76 577.457 3329.47 574.656 3336.07 592.372C3355.17 643.619 3384.49 655.505 3420.27 660.899C3499.77 672.883 3493.73 734.603 3541.9 742.348C3551.01 743.813 3566.81 737.896 3591.45 733.061C3618.33 726.682 3612.64 739.314 3642.19 745.073C3700.8 758.611 3682.88 768.486 3738.13 770.621C3776.98 775.167 3801.14 788.088 3838.24 792.882C3843.27 793.527 3848.34 793.893 3853.42 794.026C3863.58 794.292 3873.8 793.619 3883.88 792.335C3883.88 792.333 3883.94 792.331 3883.94 792.331C3890.63 791.477 3897.27 790.303 3903.89 789.023C3917.21 786.447 3930.42 783.267 3943.64 780.172C3982.27 771.124 4032.14 796.737 4071.79 795.23C4111.44 793.724 4141.12 765.319 4177.42 781.355C4216.74 798.728 4250.2 828.374 4290.98 841.98C4321.92 852.305 4355.16 852.74 4387.78 853.306C4420.39 853.872 4453.69 854.793 4484.33 865.991C4504.1 873.219 4522.09 884.493 4540.52 894.665C4543.25 896.173 4546.06 897.535 4548.82 898.994C4578.57 914.719 4609.91 927.595 4642.21 937.346C4642.43 937.412 4642.65 937.479 4642.86 937.544C4817.11 961.161 4749.88 934.832 4832.63 928.411C4879.7 919.484 4931.13 960.158 4950.75 953.669C4986.3 941.914 4992.01 909.301 5029.05 903.888C5072.36 897.559 5099.88 915.914 5140.36 932.573C5180.84 949.231 5195.29 1001.53 5232.46 1024.65C5259.16 1041.26 5325.71 1020.17 5352.92 1036.11C5408.31 1066.84 5436.84 1098.2 5476.45 1115.42C5516.07 1132.64 5610.32 1095.26 5658.06 1111.36C5705.8 1127.46 5759.42 1166.01 5822.71 1155.38C5905.73 1131.41 5921.43 1163.29 6000.72 1170.04C6000.72 787.763 6000.73 382.012 6000.73 -0.265957C5057.99 -0.317736 4115.22 -0.211481 3172.52 -0.268552L3172.51 -0.269705ZM3065.99 129.402C3066.9 129.443 3068.08 130.64 3069.49 133.261C3073.31 140.344 3099.81 159.68 3113.73 165.528C3117.66 167.181 3122.46 169.619 3124.39 170.947C3130.88 175.404 3152.77 181.545 3168.26 183.254C3179.14 184.456 3180.24 185.301 3185.54 196.462C3188.66 203.039 3191.77 207.458 3194.99 209.872C3205.29 217.614 3208.93 224.639 3210.45 239.796C3213.06 265.686 3223.99 278.609 3246.17 282.032C3253.22 283.118 3255.43 285.632 3257.11 294.478C3257.85 298.395 3259.78 303.469 3261.39 305.752C3270.05 317.986 3275.61 324.322 3279.61 326.517C3292.98 333.849 3294.83 347.918 3284.5 363.699C3281.11 368.871 3277.66 373.528 3276.82 374.046C3267.01 380.111 3264.17 396.452 3269.52 416.153C3279.01 451.103 3279.81 495.916 3270.9 493.68C3267.7 492.876 3263.5 494.615 3259.39 498.44C3258.03 499.71 3255.1 501.11 3252.89 501.553C3246.74 502.784 3240.79 501.95 3237.68 499.42C3236.77 498.683 3234.35 498.418 3232.3 498.826C3227.06 499.874 3221.45 488.455 3217.55 468.746C3215.97 460.811 3212.72 448.046 3210.32 440.378C3207.92 432.71 3205.55 424.122 3205.05 421.294C3202.28 405.771 3194.54 398.076 3174.84 391.245C3169.05 389.237 3173.7 387.418 3160.35 382.821C3148.21 378.647 3137.79 376.119 3134.9 374.696C3131.1 372.818 3126.88 369.385 3122.79 357.666C3120.66 351.559 3118.16 346.455 3117.98 345.749C3117.49 343.726 3117.01 339.229 3112.66 330.671C3108.94 323.345 3101.22 314.301 3096.51 304.285C3092.08 294.874 3085.03 282.437 3080.84 276.646C3067.1 257.657 3062.09 247.196 3066.36 241.572C3068.39 238.898 3067.24 238.143 3065.83 236.724C3063.4 234.273 3064.82 190.756 3067.43 182.553C3069.61 175.701 3069.21 165.604 3066.27 153.344C3062.98 139.615 3063.26 129.286 3065.99 129.402Z" fill="#083D4B"/>
</g>
<defs>
<linearGradient id="paint0_linear_1_2" x1="-370" y1="302.536" x2="2827.34" y2="302.536" gradientUnits="userSpaceOnUse">
<stop stop-color="#F2EDBB" stop-opacity="0"/>
<stop offset="0.848926" stop-color="#F2EDBB" stop-opacity="0.07"/>
</linearGradient>
<linearGradient id="paint1_linear_1_2" x1="111.308" y1="-1493.73" x2="2880.29" y2="104.94" gradientUnits="userSpaceOnUse">
<stop stop-color="#F2EDBB" stop-opacity="0"/>
<stop offset="0.848926" stop-color="#F2EDBB" stop-opacity="0.07"/>
</linearGradient>
<linearGradient id="paint2_linear_1_2" x1="6333.76" y1="-1493.73" x2="3564.78" y2="104.939" gradientUnits="userSpaceOnUse">
<stop stop-color="#F2EDBB" stop-opacity="0"/>
<stop offset="0.848926" stop-color="#F2EDBB" stop-opacity="0.07"/>
</linearGradient>
<linearGradient id="paint3_linear_1_2" x1="6815.07" y1="302.535" x2="3617.73" y2="302.535" gradientUnits="userSpaceOnUse">
<stop stop-color="#F2EDBB" stop-opacity="0"/>
<stop offset="0.848926" stop-color="#F2EDBB" stop-opacity="0.07"/>
</linearGradient>
<linearGradient id="paint4_linear_1_2" x1="6333.76" y1="2098.8" x2="3564.78" y2="500.131" gradientUnits="userSpaceOnUse">
<stop stop-color="#F2EDBB" stop-opacity="0"/>
<stop offset="0.848926" stop-color="#F2EDBB" stop-opacity="0.07"/>
</linearGradient>
<linearGradient id="paint5_linear_1_2" x1="5018.8" y1="3413.76" x2="3420.13" y2="644.78" gradientUnits="userSpaceOnUse">
<stop stop-color="#F2EDBB" stop-opacity="0"/>
<stop offset="0.848926" stop-color="#F2EDBB" stop-opacity="0.07"/>
</linearGradient>
<linearGradient id="paint6_linear_1_2" x1="3222.53" y1="3895.07" x2="3222.53" y2="697.727" gradientUnits="userSpaceOnUse">
<stop stop-color="#F2EDBB" stop-opacity="0"/>
<stop offset="0.848926" stop-color="#F2EDBB" stop-opacity="0.07"/>
</linearGradient>
<linearGradient id="paint7_linear_1_2" x1="1426.27" y1="3413.76" x2="3024.94" y2="644.78" gradientUnits="userSpaceOnUse">
<stop stop-color="#F2EDBB" stop-opacity="0"/>
<stop offset="0.848926" stop-color="#F2EDBB" stop-opacity="0.07"/>
</linearGradient>
<linearGradient id="paint8_linear_1_2" x1="111.309" y1="2098.8" x2="2880.29" y2="500.13" gradientUnits="userSpaceOnUse">
<stop stop-color="#F2EDBB" stop-opacity="0"/>
<stop offset="0.848926" stop-color="#F2EDBB" stop-opacity="0.07"/>
</linearGradient>
<radialGradient id="paint9_radial_1_2" cx="0" cy="0" r="1" gradientUnits="userSpaceOnUse" gradientTransform="translate(3222.54 276.645) rotate(180) scale(690)">
<stop offset="0.27772" stop-color="#FDCE57"/>
<stop offset="0.32168" stop-color="#FDCF5F" stop-opacity="0.9005"/>
<stop offset="0.44977" stop-color="#FDD376" stop-opacity="0.63077"/>
<stop offset="0.57118" stop-color="#FDD789" stop-opacity="0.4058"/>
<stop offset="0.68236" stop-color="#FDDA98" stop-opacity="0.23039"/>
<stop offset="0.78125" stop-color="#FDDCA3" stop-opacity="0.1044"/>
<stop offset="0.86424" stop-color="#FDDDA9" stop-opacity="0.02759"/>
<stop offset="0.92125" stop-color="#FDDEAC" stop-opacity="0"/>
</radialGradient>
<linearGradient id="paint10_linear_1_2" x1="3222.53" y1="-85.8598" x2="3222.53" y2="684.791" gradientUnits="userSpaceOnUse">
<stop stop-color="#EFD153"/>
<stop offset="0.12711" stop-color="#EFD25A"/>
<stop offset="0.31795" stop-color="#F1D66E"/>
<stop offset="0.54883" stop-color="#F4DD90"/>
<stop offset="0.80871" stop-color="#F9E6BE"/>
<stop offset="0.9923" stop-color="#FDEEE4"/>
</linearGradient>
<clipPath id="clip0_1_2">
<rect width="6000" height="3895" fill="white"/>
</clipPath>
</defs>
</svg>
