<?xml version="1.0" encoding="utf-8"?>

<svg width="629.70587mm" height="235.27318mm" viewBox="0 0 629.70587 235.27318" version="1.1" xml:space="preserve"
     xmlns="http://www.w3.org/2000/svg">
    <g transform="translate(-615.00484,-3989.1178)">
        <g transform="translate(-13.824567,3805.2413)">
            <path style="fill:#000000;" d="m 758.53828,183.87646 v 0.004 145.29298 h -5.1e-4 c 1.3e-4,3.6e-4 3.8e-4,7.6e-4 5.1e-4,10e-4 0,0 -2.2906,-0.18721 5.2e-4,-5.2e-4 4.40145,0.90875 4.37693,4.44437 8.21359,5.08959 1.92305,0.0801 2.48251,-1.98928 7.43584,-2.96127 5.40344,-1.28247 4.25831,1.25685 10.19961,2.41473 11.78328,2.7215 8.17908,4.7069 19.28647,5.13617 7.81181,0.91387 12.66754,3.51118 20.12614,4.47493 1.01135,0.12961 2.03019,0.20321 3.05201,0.22996 2.04314,0.0535 4.09751,-0.0818 6.12469,-0.34003 0.003,-3.3e-4 0.005,-7e-4 0.008,-0.001 1.3457,-0.1716 2.68091,-0.40765 4.01216,-0.66508 2.67728,-0.5177 5.33334,-1.15706 7.98969,-1.77922 7.76687,-1.81908 17.79119,3.33033 25.76247,3.02745 7.97127,-0.30288 13.93911,-6.01356 21.2357,-2.78973 7.90521,3.49269 14.63197,9.4526 22.83013,12.18788 6.2207,2.07555 12.90296,2.16306 19.45979,2.27687 6.55686,0.11382 13.25087,0.29893 19.41019,2.55023 3.97501,1.45293 7.59057,3.71949 11.29595,5.7645 0.54906,0.30304 1.11486,0.57693 1.66967,0.87024 5.97991,3.16131 12.2813,5.74978 18.77404,7.71012 0.0439,0.0133 0.0878,0.0266 0.13178,0.0398 35.02858,4.74788 21.51368,-0.54492 38.14908,-1.83578 9.464,-1.79456 19.8028,6.38225 23.7471,5.0777 7.1455,-2.3632 8.2936,-8.91968 15.7405,-10.00792 8.7074,-1.27238 14.2389,2.41778 22.3766,5.76665 8.1377,3.34888 11.0437,13.86222 18.5156,18.51055 5.3683,3.33966 18.7472,-0.90091 24.2165,2.30413 11.1367,6.17758 16.8707,12.4816 24.8351,15.94383 7.9643,3.46222 26.9122,-4.05154 36.5099,-0.81539 9.5978,3.23615 20.3765,10.98588 33.1013,8.84976 16.6889,-4.81836 19.8444,1.59012 35.7861,2.94588 10e-4,-76.85071 5e-4,-158.42094 5e-4,-235.27257 v -5.2e-4 H 758.54035 Z"/>
            <path style="fill:#000000;" d="m 689.96471,183.87637 c -0.10618,0.68647 -0.26663,1.68399 -0.53671,2.50443 -0.15509,0.33141 -0.42451,0.67434 -0.81701,1.03767 -0.632,0.58489 -1.345,1.44653 -1.5844,1.91514 -0.6185,1.21101 -1.28225,1.46717 -3.89795,1.50017 -3.07518,0.0392 -4.1083,0.71202 -5.6596,3.6866 -0.5892,1.1296 -1.51614,2.60312 -2.06034,3.27422 -0.5442,0.6711 -1.36757,1.98837 -1.82987,2.92747 -0.62196,1.26328 -1.12032,1.88038 -1.91512,2.37298 -0.5907,0.3661 -1.33658,0.90484 -1.65778,1.19734 -0.4108,0.3744 -0.80282,0.48861 -1.32292,0.38551 -0.7836,-0.1553 -1.9296,0.52994 -1.9296,1.15342 0,0.1822 -0.30012,0.84262 -0.66662,1.46812 -0.3666,0.6254 -0.65534,1.46936 -0.64234,1.87534 0.0602,1.8546 -0.49396,5.96098 -0.99116,7.34736 -0.3041,0.8478 -0.34575,1.95026 -0.20515,5.42964 l 0.17621,4.36562 -0.82165,1.12448 c -0.8778,1.2012 -1.11891,1.32158 -1.56631,0.78238 -0.1561,-0.188 -1.03012,-0.69408 -1.94252,-1.12448 -0.9123,-0.43036 -1.87026,-1.06023 -1.88826,-1.42161 -0.12,-2.4136 -6.23918,1.56989 -6.26318,4.52633 -0.003,0.3916 -0.12477,0.7854 -0.27027,0.8754 -1.6692,1.0316 0.9382,4.54311 3.9393,5.30511 1.43696,0.36488 1.66887,0.7827 0.55707,1.0051 -0.755,0.1509 -0.81046,0.23695 -0.73846,1.14205 0.0678,0.8492 -0.007,1.00022 -0.56947,1.13792 -0.4106,0.1005 -0.93107,0.6402 -1.42007,1.47278 -0.4246,0.72276 -1.11519,1.70522 -1.53479,2.18332 -0.4195,0.478 -0.77245,1.13281 -0.78445,1.45521 -0.0832,2.24068 -1.24992,4.00887 -4.35322,6.59857 -1.2161,1.01478 -2.45461,2.36963 -3.20807,3.50883 -1.6922,2.55834 -4.06207,5.18625 -5.97173,6.62181 l -1.60456,1.20613 -0.5736,-0.53898 c -0.3154,-0.2963 -0.69993,-0.424 -1.09503,-0.493 -0.5542,-0.0967 -1.27481,-0.81927 -2.36781,-1.80247 l -0.78238,-0.70383 c 0,0 -0.30183,-0.19399 -0.33383,-0.29869 -0.0533,-0.1742 -0.23905,-0.35497 -0.43305,-0.36897 -0.0857,-0.006 -0.17053,-0.039 -0.17053,-0.154 -0.006,-0.1664 -0.16129,-0.30158 -0.28629,-0.23358 -0.0808,0.0437 -0.55966,0.55346 -0.55966,0.55346 0,0 -0.5519,0.4245 -0.5519,0.5519 -0.002,0.1272 0.10538,0.18214 0.23358,0.22014 0.1281,0.0376 0.11307,0.08 0.14107,0.20671 0.0277,0.1266 0.15768,0.31355 0.33228,0.37155 0.1745,0.0582 0.17059,0.1903 0.29869,0.339 2.02418,2.35118 2.41183,2.61599 2.42983,3.21789 0.0178,0.6063 0.0911,0.91623 0.25941,1.09503 0.6897,0.73328 0.31634,0.77463 0.30334,1.22163 -0.0287,1.0111 1.86953,2.95212 2.94659,2.70164 0.4123,-0.0959 0.91338,0.42143 1.18908,0.84233 0.6045,0.92258 1.28286,0.82693 2.52646,-0.35605 1.2781,-1.2158 1.30354,-1.43532 0.28474,-2.45412 l -0.78497,-0.78445 0.58136,-1.19631 c 0.4845,-0.99726 1.06555,-1.52106 3.49695,-3.15432 4.26946,-2.86808 6.58236,-4.89634 7.82122,-6.85798 1.0137,-1.6051 5.73104,-6.23115 6.35414,-6.23115 0.4003,0 2.30375,1.00782 2.49855,1.32292 0.0925,0.1497 0.66574,0.52464 1.27434,0.83354 0.6086,0.3088 1.43787,0.83806 1.84227,1.17616 0.4045,0.33806 1.14858,0.69203 1.65364,0.78703 0.505,0.0948 0.82105,0.31748 0.88005,0.39946 0.0813,0.112 0.10811,0.40734 0.14211,0.73794 0.0345,0.3305 0.27113,0.78099 0.49403,1.03249 0.59048,0.6663 0.52011,2.6029 -0.15089,4.1491 -1.1461,2.64048 -0.45475,5.90288 1.08985,7.74888 0.9304,1.112 0.79795,0.95402 1.14825,2.05052 0.15,0.4696 0.18618,1.10444 0.22118,1.45004 0.0563,0.5556 0.11122,1.14882 0.13022,2.0097 0.0473,2.0978 0.47048,2.05299 0.67748,2.93057 0.847,3.591 0.85641,3.74215 -2.65565,4.32635 -2.46448,0.41 -3.35028,0.86527 -5.68854,2.92437 -2.7512,2.42258 -4.34532,3.4424 -5.08962,3.25562 -2.09306,-0.5253 -4.01786,1.28923 -4.29586,4.05039 -0.1148,1.1406 -0.36062,2.73019 -0.54622,3.53209 -0.5701,2.4626 0.55822,5.23575 2.62052,6.44095 1.86976,1.0926 2.78007,-0.22946 3.04167,-4.4173 0.1159,-1.8564 0.28504,-2.57613 0.8201,-3.48919 0.4521,-0.77138 0.57813,-1.20956 0.38293,-1.33016 -0.9435,-0.5832 2.45079,-2.49047 6.29005,-3.53466 1.574,-0.4281 3.21899,-0.91491 3.65559,-1.08211 0.4365,-0.1672 1.32958,-0.36421 1.98438,-0.43821 2.0188,-0.227 3.2451,-0.63106 4.83898,-1.59526 1.9174,-1.15976 2.17792,-1.73235 2.48512,-5.37073 0.0924,-1.0943 0.54905,-0.46299 0.51005,-4.16977 -0.0327,-3.0984 0.24515,-3.45472 0.63665,-3.57032 0.2309,-0.0681 0.77364,-0.2964 1.37304,-0.416 2.17578,-0.4338 5.21948,0.31811 7.65638,0.29611 0.6473,-0.006 0.43715,-0.28047 1.65003,-0.10387 0.3416,0.0497 1.40139,-0.0404 1.60507,1.93683 0.3917,3.8022 0.93607,5.2246 3.16725,8.2734 2.524,3.44864 3.89005,6.43812 3.99045,8.73228 0.2078,4.74598 2.90594,5.59179 6.35052,1.99109 0.582,-0.6085 1.47508,-1.28131 1.98438,-1.49551 0.50926,-0.2142 1.43212,-0.88485 2.05052,-1.49035 0.8014,-0.7846 1.12448,-0.97206 1.12448,-0.65216 0,0.6641 0.56989,1.31169 4.36045,4.95319 7.72864,7.42464 8.31485,8.07449 9.39995,10.42313 2.01886,4.3704 6.10584,7.69635 16.92764,13.77643 8.11144,4.55722 12.38225,7.25813 16.26413,10.62519 1.06475,0.86307 1.13543,1.49921 2.5001,1.75338 V 183.88068 h -5.1e-4 z m -21.41296,26.06891 c 0.1829,0.008 0.42013,0.24881 0.70383,0.77566 0.767,1.4241 6.0959,5.31114 8.893,6.48694 0.7903,0.3323 1.75494,0.82244 2.14354,1.08934 1.3047,0.89598 5.70442,2.13057 8.81858,2.47427 2.1873,0.2415 2.40923,0.41149 3.47421,2.65513 0.6277,1.3223 1.25333,2.21056 1.89963,2.69596 2.07196,1.5564 2.80237,2.96866 3.10937,6.01566 0.5244,5.20494 2.72129,7.80285 7.18095,8.49095 1.4164,0.2185 1.8605,0.72373 2.1978,2.50217 0.1493,0.7875 0.53717,1.80753 0.86197,2.26653 1.74026,2.45948 2.8577,3.73316 3.6623,4.17442 2.6873,1.4741 3.05875,4.30232 0.98237,7.475 -0.6805,1.0398 -1.37476,1.97598 -1.54306,2.07998 -1.97306,1.21938 -2.54271,4.50447 -1.46761,8.46511 1.9073,7.02618 2.06727,16.03512 0.27647,15.58562 -0.6437,-0.1615 -1.48795,0.18794 -2.31355,0.95704 -0.2739,0.2552 -0.8622,0.5368 -1.3069,0.6258 -1.2368,0.2474 -2.43171,0.0798 -3.05821,-0.42891 -0.18228,-0.1481 -0.66867,-0.20137 -1.08107,-0.11937 -1.0541,0.2108 -2.18011,-2.085 -2.96571,-6.04718 -0.3163,-1.5952 -0.96981,-4.16141 -1.45211,-5.70301 -0.4824,-1.54148 -0.95962,-3.26796 -1.06092,-3.83646 -0.5562,-3.12076 -2.11131,-4.66759 -6.07301,-6.04097 -1.16408,-0.4036 -0.22854,-0.76944 -2.91352,-1.69344 -2.43866,-0.83928 -4.53461,-1.34739 -5.11441,-1.63349 -0.7651,-0.3775 -1.6125,-1.06777 -2.435,-3.42357 -0.4288,-1.22784 -0.93186,-2.25381 -0.96686,-2.39571 -0.0996,-0.4068 -0.19481,-1.3108 -1.06971,-3.03134 -0.74886,-1.4727 -2.29994,-3.29089 -3.24734,-5.30459 -0.89,-1.89178 -2.30718,-4.39215 -3.14968,-5.55625 -2.76248,-3.81748 -3.76943,-5.92047 -2.91093,-7.05125 0.408,-0.5375 0.17746,-0.68922 -0.10594,-0.97462 -0.4892,-0.4926 -0.20441,-9.24111 0.32039,-10.89029 0.4382,-1.3774 0.35729,-3.40739 -0.23357,-5.87199 -0.6617,-2.76013 -0.60409,-4.83644 -0.0553,-4.81314 z"/>
        </g>
        <g transform="translate(-13.824567,3805.2413)">
            <path style="fill:#000000;" d="m 689.96469,183.87645 c -0.10618,0.68647 -0.26684,1.6838 -0.53692,2.50424 -0.15509,0.33141 -0.4245,0.67433 -0.817,1.03766 -0.632,0.58489 -1.345,1.44652 -1.5844,1.91513 -0.6185,1.21101 -1.28226,1.46717 -3.89795,1.50017 -3.07518,0.0392 -4.10831,0.71202 -5.65961,3.68659 -0.5892,1.1296 -1.51614,2.60312 -2.06034,3.27422 -0.5442,0.6711 -1.36756,1.98837 -1.82986,2.92747 -0.62196,1.26328 -1.12033,1.88038 -1.91513,2.37298 -0.5907,0.3661 -1.33658,0.90485 -1.65778,1.19735 -0.4108,0.3744 -0.80281,0.4886 -1.32291,0.3855 -0.7836,-0.1553 -1.9296,0.52994 -1.9296,1.15342 0,0.1822 -0.30013,0.84263 -0.66663,1.46813 -0.3666,0.6254 -0.65534,1.46936 -0.64234,1.87534 0.0602,1.85459 -0.49395,5.96097 -0.99115,7.34735 -0.3041,0.8478 -0.34575,1.95027 -0.20516,5.42964 l 0.17622,4.36563 -0.82165,1.12448 c -0.8778,1.2012 -1.11892,1.32158 -1.56632,0.78238 -0.1561,-0.188 -1.03011,-0.69408 -1.94251,-1.12448 -0.9123,-0.43036 -1.87026,-1.06024 -1.88826,-1.42162 -0.12,-2.4136 -6.23918,1.5699 -6.26318,4.52634 -0.003,0.3916 -0.12477,0.7854 -0.27027,0.8754 -1.6692,1.0316 0.9382,4.5431 3.93929,5.3051 1.43696,0.36488 1.66887,0.78271 0.55707,1.00511 -0.75499,0.1509 -0.81045,0.23695 -0.73845,1.14205 0.0678,0.8492 -0.007,1.00021 -0.56948,1.13791 -0.4106,0.1005 -0.93106,0.6402 -1.42006,1.47278 -0.4246,0.72276 -1.11519,1.70523 -1.53479,2.18333 -0.4195,0.478 -0.77245,1.13281 -0.78445,1.45521 -0.0832,2.24068 -1.24993,4.00886 -4.35323,6.59856 -1.21609,1.01478 -2.45461,2.36963 -3.20807,3.50883 -1.6922,2.55834 -4.06207,5.18626 -5.97173,6.62182 l -1.60455,1.20613 -0.57361,-0.53899 c -0.3154,-0.2963 -0.69992,-0.42399 -1.09502,-0.49299 -0.5542,-0.0967 -1.27482,-0.81928 -2.36782,-1.80247 l -0.78238,-0.70384 c 0,0 -0.30183,-0.19399 -0.33383,-0.29869 -0.0533,-0.1742 -0.23905,-0.35497 -0.43305,-0.36897 -0.0857,-0.006 -0.17053,-0.039 -0.17053,-0.15399 -0.006,-0.1664 -0.16129,-0.30158 -0.28628,-0.23358 -0.0808,0.0437 -0.55966,0.55345 -0.55966,0.55345 0,0 -0.5519,0.42451 -0.5519,0.55191 -0.002,0.1272 0.10537,0.18214 0.23357,0.22014 0.1281,0.0376 0.11308,0.08 0.14108,0.20671 0.0277,0.1266 0.15768,0.31355 0.33228,0.37155 0.1745,0.0582 0.17059,0.1903 0.29869,0.339 2.02418,2.35117 2.41182,2.61599 2.42982,3.21789 0.0178,0.6063 0.0911,0.91622 0.25942,1.09502 0.6897,0.73328 0.31634,0.77463 0.30334,1.22163 -0.0287,1.0111 1.86953,2.95213 2.94659,2.70165 0.4123,-0.0959 0.91338,0.42142 1.18908,0.84232 0.60449,0.92258 1.28286,0.82693 2.52646,-0.35605 1.27809,-1.2158 1.30353,-1.43531 0.28473,-2.45411 l -0.78496,-0.78445 0.58136,-1.19631 c 0.4845,-0.99726 1.06554,-1.52107 3.49694,-3.15433 4.26946,-2.86808 6.58237,-4.89634 7.82123,-6.85798 1.0137,-1.6051 5.73104,-6.23114 6.35413,-6.23114 0.4003,0 2.30376,1.00781 2.49856,1.32291 0.0925,0.1497 0.66574,0.52465 1.27434,0.83355 0.6086,0.30879 1.43787,0.83805 1.84227,1.17615 0.4045,0.33806 1.14858,0.69203 1.65364,0.78703 0.505,0.0948 0.82105,0.31748 0.88005,0.39946 0.0813,0.112 0.10811,0.40734 0.14211,0.73794 0.0345,0.3305 0.27113,0.781 0.49403,1.0325 0.59048,0.6663 0.5201,2.6029 -0.1509,4.1491 -1.1461,2.64047 -0.45474,5.90288 1.08986,7.74888 0.9304,1.112 0.79795,0.95402 1.14825,2.05052 0.15,0.4696 0.18617,1.10444 0.22117,1.45004 0.0563,0.5556 0.11123,1.14882 0.13023,2.0097 0.0473,2.09779 0.47048,2.05299 0.67748,2.93057 0.847,3.59099 0.8564,3.74215 -2.65565,4.32635 -2.46448,0.41 -3.35029,0.86527 -5.68855,2.92437 -2.75119,2.42257 -4.34531,3.44239 -5.08961,3.25561 -2.09306,-0.5253 -4.01786,1.28924 -4.29586,4.0504 -0.1148,1.1406 -0.36062,2.73019 -0.54622,3.53208 -0.5701,2.4626 0.55821,5.23576 2.62051,6.44096 1.86976,1.09259 2.78008,-0.22947 3.04168,-4.41731 0.1159,-1.85639 0.28504,-2.57613 0.8201,-3.48919 0.4521,-0.77138 0.57812,-1.20955 0.38292,-1.33015 -0.9435,-0.5832 2.4508,-2.49048 6.29006,-3.53467 1.574,-0.4281 3.21899,-0.9149 3.65559,-1.0821 0.4365,-0.1672 1.32958,-0.36422 1.98438,-0.43822 2.01879,-0.227 3.2451,-0.63105 4.83898,-1.59525 1.91739,-1.15976 2.17792,-1.73236 2.48512,-5.37073 0.0924,-1.0943 0.54904,-0.463 0.51004,-4.16977 -0.0327,-3.0984 0.24516,-3.45473 0.63666,-3.57033 0.2309,-0.0681 0.77364,-0.29639 1.37304,-0.41599 2.17578,-0.4338 5.21948,0.3181 7.65638,0.2961 0.6473,-0.006 0.43715,-0.28047 1.65003,-0.10387 0.3416,0.0497 1.40139,-0.0404 1.60507,1.93684 0.3917,3.80219 0.93607,5.2246 3.16725,8.27339 2.52399,3.44864 3.89005,6.43813 3.99045,8.73229 0.2078,4.74597 2.90594,5.59179 6.35052,1.99109 0.582,-0.6085 1.47507,-1.28132 1.98437,-1.49552 0.50926,-0.2142 1.43212,-0.88485 2.05052,-1.49035 0.8014,-0.78459 1.12448,-0.97205 1.12448,-0.65215 0,0.6641 0.5699,1.31169 4.36046,4.95318 7.72863,7.42464 8.31484,8.0745 9.39994,10.42314 2.01886,4.3704 6.10586,7.69635 16.92765,13.77642 8.11143,4.55722 12.38225,7.25814 16.26412,10.62519 1.06447,0.86284 1.13546,1.49908 2.49908,1.75338 v 5.2e-4 c 10e-4,1.1e-4 -3.4e-4,-1.1e-4 10e-4,0 4.40145,0.90875 4.3768,4.44439 8.21345,5.08961 1.92305,0.0801 2.4824,-1.98959 7.43572,-2.96157 5.40344,-1.28247 4.2586,1.25696 10.1999,2.41484 11.78327,2.72149 8.1793,4.70685 19.28668,5.13612 7.8118,0.91387 12.66731,3.51143 20.1259,4.47517 1.01135,0.12961 2.03019,0.20322 3.05201,0.22997 2.04314,0.0535 4.09751,-0.0818 6.12469,-0.34004 0.003,-3.3e-4 0.005,-7.3e-4 0.008,-0.001 1.3457,-0.1716 2.68091,-0.40765 4.01216,-0.66508 2.67728,-0.51769 5.33335,-1.15706 7.98969,-1.77921 7.76687,-1.81908 17.7915,3.33008 25.76277,3.0272 7.97126,-0.30288 13.93882,-6.01332 21.2354,-2.78949 7.9052,3.49268 14.63198,9.45261 22.83013,12.18788 6.22069,2.07555 12.90297,2.16306 19.45979,2.27687 6.55686,0.11382 13.25087,0.29893 19.41019,2.55023 3.975,1.45293 7.59057,3.7195 11.29595,5.76451 0.54906,0.30303 1.11486,0.57692 1.66967,0.87023 5.9799,3.1613 12.28131,5.74978 18.77404,7.71012 0.0439,0.0133 0.0878,0.0266 0.13178,0.0398 35.02851,4.74788 21.51371,-0.5452 38.14911,-1.83606 9.464,-1.79456 19.8031,6.38227 23.7473,5.07772 7.1455,-2.36319 8.2938,-8.91942 15.7407,-10.00765 8.7074,-1.27238 14.2387,2.4177 22.3764,5.76657 8.1377,3.34888 11.0438,13.86217 18.5157,18.5105 5.3683,3.33965 18.7473,-0.90079 24.2166,2.30425 11.1367,6.17757 16.8708,12.4815 24.8352,15.94373 7.9642,3.46221 26.9117,-4.0516 36.5094,-0.81546 9.5977,3.23615 20.3765,10.98571 33.1013,8.84959 16.6889,-4.81835 19.8448,1.59032 35.7864,2.94608 0,-76.85064 6e-4,-158.42091 6e-4,-235.27246 v -5.2e-4 h -499.99483 -0.002 v 0.004 z m 68.57308,145.29759 c -2.28428,-0.18613 5.1e-4,5.2e-4 5.1e-4,5.2e-4 z m -89.98624,-119.2289 c 0.1829,0.008 0.42013,0.24882 0.70383,0.77567 0.767,1.42409 6.0959,5.31114 8.893,6.48694 0.7903,0.3323 1.75494,0.82244 2.14354,1.08934 1.3047,0.89598 5.70442,2.13056 8.81858,2.47426 2.1873,0.2415 2.40923,0.4115 3.47421,2.65514 0.6277,1.3223 1.25332,2.21056 1.89962,2.69596 2.07196,1.5564 2.80237,2.96866 3.10937,6.01565 0.5244,5.20494 2.7213,7.80286 7.18096,8.49096 1.4164,0.2185 1.8605,0.72373 2.1978,2.50217 0.1493,0.7875 0.53716,1.80753 0.86196,2.26653 1.74026,2.45948 2.85771,3.73316 3.66231,4.17442 2.6873,1.4741 3.05875,4.30232 0.98237,7.475 -0.6805,1.0398 -1.37476,1.97597 -1.54306,2.07997 -1.97306,1.21938 -2.54271,4.50448 -1.46761,8.46512 1.9073,7.02617 2.06727,16.03511 0.27647,15.58561 -0.6437,-0.1615 -1.48796,0.18795 -2.31355,0.95705 -0.2739,0.2552 -0.8622,0.5368 -1.3069,0.6258 -1.2368,0.2474 -2.43171,0.0798 -3.05821,-0.42891 -0.18228,-0.1481 -0.66867,-0.20138 -1.08107,-0.11938 -1.0541,0.2108 -2.18011,-2.085 -2.96571,-6.04717 -0.3163,-1.5952 -0.96981,-4.16142 -1.45211,-5.70301 -0.4824,-1.54148 -0.95962,-3.26796 -1.06092,-3.83646 -0.5562,-3.12076 -2.11132,-4.6676 -6.07301,-6.04098 -1.16408,-0.4036 -0.22854,-0.76943 -2.91352,-1.69343 -2.43866,-0.83928 -4.53462,-1.3474 -5.11442,-1.6335 -0.7651,-0.3775 -1.61249,-1.06776 -2.43499,-3.42356 -0.4288,-1.22784 -0.93187,-2.25382 -0.96687,-2.39572 -0.0996,-0.4068 -0.1948,-1.3108 -1.0697,-3.03134 -0.74886,-1.4727 -2.29995,-3.29089 -3.24735,-5.30458 -0.88999,-1.89178 -2.30718,-4.39216 -3.14967,-5.55625 -2.76248,-3.81748 -3.76944,-5.92047 -2.91094,-7.05125 0.408,-0.5375 0.17747,-0.68922 -0.10593,-0.97462 -0.4892,-0.4926 -0.20441,-9.24111 0.32039,-10.89029 0.4382,-1.3774 0.35728,-3.4074 -0.23358,-5.872 -0.6617,-2.76012 -0.60408,-4.83644 -0.0553,-4.81314 z" />
        </g>
    </g>
</svg>
