<svg width="6000" height="1170" viewBox="0 0 6000 1170" fill="none" xmlns="http://www.w3.org/2000/svg">
<g clip-path="url(#clip0_22_407)">
<g style="mix-blend-mode:color-dodge" opacity="0.6">
<path d="M2379.03 246.671C2378.19 246.353 2377.76 245.412 2378.08 244.57C2378.4 243.728 2379.34 243.304 2380.18 243.622C2381.02 243.941 2381.45 244.882 2381.13 245.724C2380.81 246.566 2379.87 246.99 2379.03 246.671Z" fill="white"/>
<path d="M2286.55 292.18C2285.71 291.861 2285.28 290.92 2285.6 290.078C2285.92 289.236 2286.86 288.812 2287.7 289.131C2288.54 289.449 2288.97 290.39 2288.65 291.232C2288.33 292.074 2287.39 292.498 2286.55 292.18Z" fill="white"/>
<path d="M2617.82 187.185C2616.79 186.795 2616.27 185.642 2616.66 184.61C2617.05 183.579 2618.2 183.06 2619.23 183.45C2620.26 183.84 2620.78 184.993 2620.39 186.024C2620 187.056 2618.85 187.576 2617.82 187.185Z" fill="white"/>
<path d="M1845.2 193.946C1844.38 193.634 1843.96 192.712 1844.27 191.886C1844.58 191.061 1845.51 190.646 1846.33 190.958C1847.16 191.27 1847.57 192.192 1847.26 193.018C1846.95 193.843 1846.03 194.258 1845.2 193.946Z" fill="white"/>
<path d="M2662.14 249.97C2661.11 249.58 2660.59 248.427 2660.98 247.396C2661.37 246.364 2662.53 245.845 2663.56 246.235C2664.59 246.625 2665.11 247.778 2664.72 248.809C2664.33 249.841 2663.18 250.361 2662.14 249.97Z" fill="white"/>
<path d="M2563.66 266.556C2562.63 266.166 2562.11 265.013 2562.5 263.982C2562.89 262.95 2564.04 262.43 2565.07 262.821C2566.1 263.211 2566.62 264.364 2566.23 265.395C2565.84 266.427 2564.69 266.946 2563.66 266.556Z" fill="white"/>
<path d="M1821.63 303.679C1821.48 302.81 1822.06 301.982 1822.93 301.829C1823.8 301.676 1824.63 302.256 1824.78 303.125C1824.93 303.994 1824.35 304.823 1823.48 304.976C1822.62 305.129 1821.79 304.548 1821.63 303.679Z" fill="white"/>
<path d="M2674.41 74.1478C2673.45 73.7835 2672.97 72.7083 2673.33 71.7459C2673.7 70.7836 2674.77 70.2988 2675.73 70.6631C2676.7 71.0272 2677.18 72.1026 2676.82 73.0649C2676.45 74.0273 2675.38 74.5121 2674.41 74.1478Z" fill="white"/>
<path d="M2800.53 119.135C2799.86 118.88 2799.52 118.127 2799.78 117.453C2800.03 116.78 2800.78 116.441 2801.46 116.696C2802.13 116.951 2802.47 117.703 2802.22 118.377C2801.96 119.05 2801.21 119.39 2800.53 119.135Z" fill="white"/>
<path d="M1715.29 91.0686C1714.47 90.7562 1714.05 89.8339 1714.37 89.0088C1714.68 88.1836 1715.6 87.768 1716.42 88.0804C1717.25 88.3926 1717.67 89.3147 1717.35 90.1399C1717.04 90.965 1716.12 91.3808 1715.29 91.0686Z" fill="white"/>
<path d="M2161.58 169.455C2160.76 169.142 2160.34 168.22 2160.65 167.395C2160.97 166.57 2161.89 166.154 2162.71 166.467C2163.54 166.779 2163.95 167.701 2163.64 168.526C2163.33 169.351 2162.41 169.767 2161.58 169.455Z" fill="white"/>
<path d="M1548.54 68.9041C1547.71 68.5917 1547.3 67.6696 1547.61 66.8446C1547.92 66.0195 1548.84 65.6035 1549.67 65.9159C1550.49 66.2283 1550.91 67.1504 1550.6 67.9756C1550.29 68.8007 1549.36 69.2165 1548.54 68.9041Z" fill="white"/>
<path d="M1842.52 153.754C1841.85 153.499 1841.51 152.746 1841.77 152.073C1842.02 151.399 1842.77 151.06 1843.45 151.315C1844.12 151.57 1844.46 152.323 1844.21 152.996C1843.95 153.67 1843.2 154.009 1842.52 153.754Z" fill="white"/>
<path d="M1616.11 221.725C1615.15 221.361 1614.67 220.285 1615.03 219.323C1615.4 218.361 1616.47 217.876 1617.43 218.24C1618.39 218.604 1618.88 219.68 1618.52 220.642C1618.15 221.604 1617.08 222.089 1616.11 221.725Z" fill="white"/>
<path d="M2115.43 71.6828C2113.75 71.0453 2112.9 69.1636 2113.54 67.4797C2114.18 65.7956 2116.06 64.9471 2117.74 65.5844C2119.42 66.222 2120.27 68.1039 2119.64 69.7878C2119 71.4719 2117.12 72.3202 2115.43 71.6828Z" fill="white"/>
<path d="M2842.9 260.095C2841.94 259.73 2841.45 258.655 2841.82 257.693C2842.18 256.731 2843.26 256.246 2844.22 256.61C2845.18 256.974 2845.66 258.049 2845.3 259.012C2844.94 259.974 2843.86 260.459 2842.9 260.095Z" fill="white"/>
<path d="M1818.92 42.2591C1818.09 41.9467 1817.68 41.0244 1817.99 40.1994C1818.3 39.3741 1819.22 38.9585 1820.05 39.2709C1820.87 39.5831 1821.29 40.5052 1820.98 41.3304C1820.67 42.1555 1819.74 42.5713 1818.92 42.2591Z" fill="white"/>
<path d="M1957.95 66.3854C1957.27 66.1305 1956.93 65.3778 1957.19 64.7043C1957.44 64.0306 1958.2 63.6914 1958.87 63.9463C1959.54 64.2012 1959.88 64.9539 1959.63 65.6276C1959.37 66.3011 1958.62 66.6405 1957.95 66.3854Z" fill="white"/>
<path d="M1996.7 8.96863C1995.73 8.60453 1995.25 7.52914 1995.61 6.56689C1995.98 5.60465 1997.05 5.11965 1998.01 5.48395C1998.98 5.84824 1999.46 6.92364 1999.1 7.88588C1998.73 8.84813 1997.66 9.33293 1996.7 8.96863Z" fill="white"/>
<path d="M1862.53 37.1146C1861.57 36.7503 1861.08 35.6751 1861.45 34.7126C1861.81 33.7504 1862.88 33.2656 1863.85 33.6299C1864.81 33.994 1865.29 35.0694 1864.93 36.0316C1864.57 36.9941 1863.49 37.4789 1862.53 37.1146Z" fill="white"/>
<path d="M2713.63 235.78C2711.92 235.135 2711.06 233.231 2711.71 231.527C2712.35 229.824 2714.26 228.965 2715.96 229.61C2717.66 230.255 2718.52 232.159 2717.88 233.863C2717.23 235.567 2715.33 236.425 2713.63 235.78Z" fill="white"/>
<path d="M1721.02 303.637C1719.32 302.992 1718.46 301.088 1719.11 299.384C1719.75 297.68 1721.65 296.822 1723.36 297.467C1725.06 298.112 1725.92 300.016 1725.27 301.719C1724.63 303.423 1722.73 304.281 1721.02 303.637Z" fill="white"/>
<path d="M2831.4 183.012C2830.73 182.757 2830.39 182.004 2830.64 181.331C2830.9 180.657 2831.65 180.318 2832.32 180.573C2833 180.828 2833.34 181.581 2833.08 182.254C2832.83 182.928 2832.07 183.267 2831.4 183.012Z" fill="white"/>
<path d="M1743.9 74.3441C1743.18 74.4773 1742.49 74.0019 1742.36 73.282C1742.22 72.5624 1742.7 71.871 1743.42 71.7377C1744.14 71.6045 1744.83 72.08 1744.96 72.7996C1745.1 73.5195 1744.62 74.2109 1743.9 74.3441Z" fill="white"/>
<path d="M1924.14 121.799C1925.14 121.613 1926.11 122.277 1926.29 123.282C1926.48 124.287 1925.82 125.252 1924.81 125.438C1923.81 125.624 1922.84 124.96 1922.66 123.956C1922.47 122.951 1923.13 121.985 1924.14 121.799Z" fill="white"/>
<path d="M2048.48 287.987C2050.1 287.688 2051.65 288.755 2051.95 290.37C2052.25 291.986 2051.18 293.537 2049.57 293.836C2047.95 294.135 2046.4 293.068 2046.1 291.453C2045.8 289.838 2046.87 288.286 2048.48 287.987Z" fill="white"/>
<path d="M2089.47 41.0182C2090.19 40.885 2090.88 41.3605 2091.02 42.0803C2091.15 42.8002 2090.67 43.4916 2089.95 43.6246C2089.23 43.7578 2088.54 43.2824 2088.41 42.5627C2088.28 41.8429 2088.75 41.1515 2089.47 41.0182Z" fill="white"/>
<path d="M2012.93 203.036C2011.13 203.369 2009.41 202.181 2009.07 200.381C2008.74 198.582 2009.93 196.853 2011.73 196.52C2013.53 196.187 2015.26 197.376 2015.59 199.175C2015.92 200.975 2014.73 202.703 2012.93 203.036Z" fill="white"/>
<path d="M1501.61 233.369C1500.89 233.502 1500.2 233.027 1500.07 232.307C1499.94 231.587 1500.41 230.896 1501.13 230.763C1501.85 230.629 1502.54 231.105 1502.68 231.825C1502.81 232.544 1502.33 233.236 1501.61 233.369Z" fill="white"/>
<path d="M2175.38 210.708C2173.58 211.041 2171.86 209.853 2171.52 208.053C2171.19 206.254 2172.38 204.525 2174.18 204.192C2175.98 203.859 2177.7 205.048 2178.04 206.847C2178.37 208.647 2177.18 210.376 2175.38 210.708Z" fill="white"/>
<path d="M1595.83 116.114C1594.83 116.3 1593.86 115.636 1593.68 114.631C1593.49 113.626 1594.15 112.661 1595.16 112.475C1596.16 112.289 1597.13 112.953 1597.31 113.958C1597.5 114.963 1596.84 115.928 1595.83 116.114Z" fill="white"/>
<path d="M1644.39 265.417C1643.39 265.603 1642.42 264.939 1642.24 263.934C1642.05 262.929 1642.71 261.964 1643.72 261.778C1644.72 261.592 1645.69 262.256 1645.88 263.261C1646.06 264.266 1645.4 265.231 1644.39 265.417Z" fill="white"/>
<path d="M1823.94 284.745C1822.94 284.931 1821.97 284.267 1821.79 283.262C1821.6 282.257 1822.26 281.292 1823.27 281.106C1824.27 280.92 1825.24 281.584 1825.43 282.588C1825.61 283.593 1824.95 284.559 1823.94 284.745Z" fill="white"/>
<path d="M2349.47 22.2885C2349.32 21.4198 2349.9 20.5913 2350.77 20.4382C2351.64 20.2851 2352.47 20.8658 2352.62 21.7345C2352.77 22.6033 2352.19 23.4319 2351.32 23.5849C2350.46 23.738 2349.63 23.1575 2349.47 22.2885Z" fill="white"/>
<path d="M2318.11 91.8129C2317.96 90.9439 2318.54 90.1156 2319.41 89.9625C2320.28 89.8096 2321.11 90.3899 2321.26 91.2587C2321.41 92.1276 2320.83 92.9561 2319.96 93.1092C2319.1 93.2623 2318.27 92.6818 2318.11 91.8129Z" fill="white"/>
<path d="M2358.4 173.398C2358.24 172.529 2358.82 171.701 2359.69 171.548C2360.56 171.395 2361.39 171.975 2361.54 172.844C2361.69 173.713 2361.11 174.541 2360.25 174.694C2359.38 174.847 2358.55 174.267 2358.4 173.398Z" fill="white"/>
<path d="M2428.97 147.452C2428.01 147.087 2427.52 146.012 2427.89 145.05C2428.25 144.088 2429.33 143.603 2430.29 143.967C2431.25 144.331 2431.74 145.407 2431.37 146.369C2431.01 147.331 2429.93 147.816 2428.97 147.452Z" fill="white"/>
<path d="M2547.3 60.8354C2546.34 60.4712 2545.86 59.3958 2546.22 58.4335C2546.58 57.4713 2547.66 56.9865 2548.62 57.3506C2549.58 57.7149 2550.07 58.7903 2549.7 59.7525C2549.34 60.7147 2548.27 61.1995 2547.3 60.8354Z" fill="white"/>
<path d="M2481.08 1.22035C2481.73 1.10084 2482.35 1.52757 2482.47 2.17365C2482.59 2.81972 2482.16 3.44053 2481.52 3.56004C2480.87 3.67955 2480.25 3.25282 2480.13 2.60675C2480.01 1.96067 2480.44 1.33986 2481.08 1.22035Z" fill="white"/>
<path d="M2389.86 107.051C2388.06 107.384 2386.33 106.195 2386 104.396C2385.67 102.596 2386.86 100.867 2388.66 100.535C2390.46 100.201 2392.18 101.39 2392.52 103.19C2392.85 104.989 2391.66 106.718 2389.86 107.051Z" fill="white"/>
<path d="M2544.33 162.937C2545.11 162.52 2546.08 162.812 2546.49 163.59C2546.91 164.367 2546.62 165.335 2545.84 165.752C2545.06 166.169 2544.1 165.877 2543.68 165.1C2543.26 164.323 2543.55 163.354 2544.33 162.937Z" fill="white"/>
<path d="M2563.03 159.208C2562.54 158.312 2562.87 157.187 2563.77 156.696C2564.66 156.205 2565.79 156.534 2566.28 157.43C2566.77 158.326 2566.44 159.451 2565.55 159.942C2564.65 160.433 2563.53 160.104 2563.03 159.208Z" fill="white"/>
<path d="M2786.62 1.87477C2786.47 1.00579 2787.05 0.177567 2787.92 0.0244504C2788.79 -0.128467 2789.62 0.451784 2789.77 1.32057C2789.92 2.18955 2789.34 3.01797 2788.47 3.17109C2787.6 3.3242 2786.77 2.74375 2786.62 1.87477Z" fill="white"/>
<path d="M2826.9 83.4599C2826.75 82.5909 2827.33 81.7627 2828.2 81.6095C2829.07 81.4566 2829.89 82.0369 2830.05 82.9057C2830.2 83.7747 2829.62 84.6033 2828.75 84.7562C2827.88 84.9093 2827.05 84.3289 2826.9 83.4599Z" fill="white"/>
<path d="M2897.48 57.5136C2896.52 57.1493 2896.03 56.0739 2896.39 55.1117C2896.76 54.1494 2897.83 53.6646 2898.8 54.0287C2899.76 54.393 2900.24 55.4684 2899.88 56.4307C2899.51 57.3929 2898.44 57.8777 2897.48 57.5136Z" fill="white"/>
<path d="M2858.01 15.1577C2857.29 15.2909 2856.6 14.8155 2856.46 14.0956C2856.33 13.376 2856.81 12.6844 2857.53 12.5511C2858.25 12.4179 2858.94 12.8936 2859.07 13.6132C2859.2 14.3331 2858.73 15.0245 2858.01 15.1577Z" fill="white"/>
<path d="M1559.47 119.135C1560.14 118.88 1560.48 118.127 1560.22 117.453C1559.97 116.78 1559.22 116.441 1558.54 116.696C1557.87 116.951 1557.53 117.703 1557.78 118.377C1558.04 119.05 1558.79 119.39 1559.47 119.135Z" fill="white"/>
<path d="M1517.1 260.095C1518.06 259.73 1518.55 258.655 1518.18 257.693C1517.82 256.731 1516.74 256.246 1515.78 256.61C1514.82 256.974 1514.34 258.049 1514.7 259.012C1515.06 259.974 1516.14 260.459 1517.1 260.095Z" fill="white"/>
<path d="M2045.17 141.518C2046.87 140.873 2047.73 138.969 2047.09 137.265C2046.44 135.562 2044.54 134.703 2042.84 135.348C2041.13 135.993 2040.27 137.897 2040.92 139.601C2041.56 141.305 2043.47 142.163 2045.17 141.518Z" fill="white"/>
<path d="M1528.6 183.012C1529.27 182.757 1529.61 182.004 1529.36 181.331C1529.1 180.657 1528.35 180.318 1527.68 180.573C1527 180.828 1526.66 181.581 1526.92 182.254C1527.17 182.928 1527.93 183.267 1528.6 183.012Z" fill="white"/>
<path d="M1573.38 1.87477C1573.53 1.00579 1572.95 0.177567 1572.08 0.0244504C1571.21 -0.128467 1570.38 0.451784 1570.23 1.32057C1570.08 2.18955 1570.66 3.01797 1571.53 3.17109C1572.4 3.3242 1573.22 2.74375 1573.38 1.87477Z" fill="white"/>
<path d="M1533.1 83.4599C1533.25 82.5909 1532.67 81.7627 1531.8 81.6095C1530.93 81.4566 1530.11 82.0369 1529.95 82.9057C1529.8 83.7747 1530.38 84.6033 1531.25 84.7562C1532.12 84.9093 1532.95 84.3289 1533.1 83.4599Z" fill="white"/>
<path d="M1462.52 57.5136C1463.48 57.1493 1463.97 56.0739 1463.61 55.1117C1463.24 54.1494 1462.17 53.6646 1461.2 54.0287C1460.24 54.393 1459.76 55.4684 1460.12 56.4307C1460.49 57.3929 1461.56 57.8777 1462.52 57.5136Z" fill="white"/>
<path d="M1501.99 15.1577C1502.71 15.2909 1503.4 14.8155 1503.54 14.0956C1503.67 13.376 1503.19 12.6844 1502.47 12.5511C1501.76 12.4179 1501.06 12.8936 1500.93 13.6132C1500.8 14.3331 1501.27 15.0245 1501.99 15.1577Z" fill="white"/>
<path d="M919.028 246.671C918.186 246.353 917.762 245.412 918.081 244.57C918.399 243.728 919.34 243.304 920.182 243.622C921.024 243.941 921.448 244.882 921.129 245.724C920.811 246.566 919.87 246.99 919.028 246.671Z" fill="white"/>
<path d="M826.549 292.18C825.708 291.861 825.283 290.92 825.602 290.078C825.921 289.236 826.862 288.812 827.703 289.131C828.545 289.449 828.969 290.39 828.651 291.232C828.332 292.074 827.391 292.498 826.549 292.18Z" fill="white"/>
<path d="M1157.82 187.185C1156.79 186.795 1156.27 185.642 1156.66 184.61C1157.05 183.579 1158.2 183.06 1159.23 183.45C1160.26 183.84 1160.78 184.993 1160.39 186.024C1160 187.056 1158.85 187.576 1157.82 187.185Z" fill="white"/>
<path d="M385.2 193.946C384.375 193.634 383.96 192.712 384.272 191.886C384.584 191.061 385.506 190.646 386.331 190.958C387.156 191.27 387.572 192.192 387.26 193.018C386.947 193.843 386.025 194.258 385.2 193.946Z" fill="white"/>
<path d="M1202.14 249.97C1201.11 249.58 1200.59 248.427 1200.98 247.396C1201.37 246.364 1202.53 245.845 1203.56 246.235C1204.59 246.625 1205.11 247.778 1204.72 248.809C1204.33 249.841 1203.18 250.361 1202.14 249.97Z" fill="white"/>
<path d="M1103.66 266.556C1102.63 266.166 1102.11 265.013 1102.5 263.982C1102.89 262.95 1104.04 262.43 1105.07 262.821C1106.1 263.211 1106.62 264.364 1106.23 265.395C1105.84 266.427 1104.69 266.946 1103.66 266.556Z" fill="white"/>
<path d="M361.634 303.679C361.481 302.81 362.061 301.982 362.93 301.829C363.799 301.676 364.627 302.256 364.78 303.125C364.933 303.994 364.353 304.823 363.484 304.976C362.615 305.129 361.787 304.548 361.634 303.679Z" fill="white"/>
<path d="M1214.41 74.1478C1213.45 73.7835 1212.97 72.7083 1213.33 71.7459C1213.7 70.7836 1214.77 70.2988 1215.73 70.6631C1216.7 71.0272 1217.18 72.1026 1216.82 73.0649C1216.45 74.0273 1215.38 74.5121 1214.41 74.1478Z" fill="white"/>
<path d="M1360.84 107.524C1360.17 107.269 1359.83 106.516 1360.08 105.843C1360.34 105.169 1361.09 104.83 1361.77 105.085C1362.44 105.34 1362.78 106.092 1362.52 106.766C1362.27 107.44 1361.52 107.779 1360.84 107.524Z" fill="white"/>
<path d="M255.294 91.0686C254.469 90.7562 254.053 89.8339 254.366 89.0088C254.678 88.1836 255.6 87.768 256.425 88.0804C257.25 88.3926 257.666 89.3147 257.353 90.1399C257.041 90.965 256.119 91.3808 255.294 91.0686Z" fill="white"/>
<path d="M701.583 169.455C700.758 169.142 700.342 168.22 700.655 167.395C700.967 166.57 701.889 166.154 702.714 166.467C703.539 166.779 703.955 167.701 703.642 168.526C703.33 169.351 702.408 169.767 701.583 169.455Z" fill="white"/>
<path d="M88.5382 68.9041C87.7131 68.5917 87.2974 67.6696 87.6097 66.8446C87.9221 66.0195 88.844 65.6035 89.6691 65.9159C90.4942 66.2283 90.9097 67.1504 90.5974 67.9756C90.2851 68.8007 89.3633 69.2165 88.5382 68.9041Z" fill="white"/>
<path d="M382.526 153.754C381.853 153.499 381.513 152.746 381.768 152.073C382.023 151.399 382.776 151.06 383.449 151.315C384.123 151.57 384.462 152.323 384.207 152.996C383.952 153.67 383.2 154.009 382.526 153.754Z" fill="white"/>
<path d="M156.114 221.725C155.152 221.361 154.667 220.285 155.031 219.323C155.396 218.361 156.471 217.876 157.433 218.24C158.395 218.604 158.88 219.68 158.515 220.642C158.151 221.604 157.076 222.089 156.114 221.725Z" fill="white"/>
<path d="M655.431 71.6828C653.747 71.0453 652.899 69.1636 653.536 67.4797C654.174 65.7956 656.055 64.9471 657.739 65.5844C659.422 66.222 660.271 68.1039 659.633 69.7878C658.996 71.4719 657.115 72.3202 655.431 71.6828Z" fill="white"/>
<path d="M1381.2 236.606C1380.24 236.242 1379.76 235.166 1380.12 234.204C1380.49 233.242 1381.56 232.757 1382.52 233.121C1383.48 233.485 1383.97 234.561 1383.61 235.523C1383.24 236.485 1382.17 236.97 1381.2 236.606Z" fill="white"/>
<path d="M358.919 42.2591C358.094 41.9467 357.678 41.0244 357.991 40.1994C358.303 39.3741 359.225 38.9585 360.05 39.2709C360.875 39.5831 361.29 40.5052 360.978 41.3304C360.666 42.1555 359.744 42.5713 358.919 42.2591Z" fill="white"/>
<path d="M497.944 66.3854C497.271 66.1305 496.931 65.3778 497.186 64.7043C497.441 64.0306 498.194 63.6914 498.867 63.9463C499.541 64.2012 499.88 64.9539 499.625 65.6276C499.37 66.3011 498.618 66.6406 497.944 66.3854Z" fill="white"/>
<path d="M536.696 8.96863C535.734 8.60453 535.249 7.52914 535.613 6.56689C535.977 5.60465 537.053 5.11965 538.015 5.48395C538.977 5.84824 539.462 6.92364 539.097 7.88588C538.733 8.84813 537.658 9.33293 536.696 8.96863Z" fill="white"/>
<path d="M402.528 37.1146C401.566 36.7503 401.081 35.6751 401.445 34.7126C401.81 33.7504 402.885 33.2656 403.847 33.6299C404.809 33.994 405.294 35.0694 404.929 36.0316C404.565 36.9941 403.49 37.4789 402.528 37.1146Z" fill="white"/>
<path d="M1253.63 235.78C1251.92 235.135 1251.06 233.231 1251.71 231.527C1252.35 229.824 1254.26 228.965 1255.96 229.61C1257.66 230.255 1258.52 232.159 1257.88 233.863C1257.23 235.567 1255.33 236.425 1253.63 235.78Z" fill="white"/>
<path d="M261.022 303.637C259.318 302.992 258.46 301.088 259.105 299.384C259.75 297.68 261.653 296.822 263.357 297.467C265.06 298.112 265.919 300.016 265.274 301.719C264.629 303.423 262.725 304.281 261.022 303.637Z" fill="white"/>
<path d="M1305.84 163.524C1305.17 163.269 1304.83 162.516 1305.08 161.843C1305.34 161.169 1306.09 160.83 1306.77 161.085C1307.44 161.34 1307.78 162.092 1307.52 162.766C1307.27 163.44 1306.52 163.779 1305.84 163.524Z" fill="white"/>
<path d="M283.901 74.3441C283.181 74.4773 282.49 74.0019 282.356 73.282C282.223 72.5624 282.699 71.871 283.418 71.7377C284.138 71.6045 284.829 72.08 284.962 72.7996C285.096 73.5195 284.62 74.2109 283.901 74.3441Z" fill="white"/>
<path d="M464.139 121.799C465.144 121.613 466.109 122.277 466.295 123.282C466.481 124.287 465.817 125.252 464.812 125.438C463.808 125.624 462.842 124.96 462.656 123.956C462.47 122.951 463.134 121.985 464.139 121.799Z" fill="white"/>
<path d="M588.484 287.987C590.099 287.688 591.65 288.755 591.949 290.37C592.248 291.986 591.181 293.537 589.566 293.836C587.951 294.135 586.4 293.068 586.101 291.453C585.802 289.838 586.869 288.286 588.484 287.987Z" fill="white"/>
<path d="M629.471 41.0183C630.19 40.885 630.882 41.3605 631.015 42.0803C631.148 42.8002 630.673 43.4916 629.953 43.6246C629.234 43.7578 628.542 43.2824 628.409 42.5627C628.276 41.8429 628.751 41.1515 629.471 41.0183Z" fill="white"/>
<path d="M552.936 203.036C551.137 203.369 549.408 202.181 549.075 200.381C548.742 198.582 549.931 196.853 551.73 196.52C553.529 196.187 555.257 197.376 555.591 199.175C555.924 200.975 554.735 202.703 552.936 203.036Z" fill="white"/>
<path d="M41.6135 233.369C40.8939 233.502 40.2024 233.027 40.0692 232.307C39.936 231.587 40.4116 230.896 41.1311 230.763C41.8509 230.629 42.5421 231.105 42.6754 231.825C42.8086 232.544 42.3332 233.236 41.6135 233.369Z" fill="white"/>
<path d="M715.383 210.708C713.584 211.041 711.856 209.853 711.523 208.053C711.19 206.254 712.378 204.525 714.177 204.192C715.976 203.859 717.705 205.048 718.038 206.847C718.371 208.647 717.182 210.376 715.383 210.708Z" fill="white"/>
<path d="M135.832 116.114C134.827 116.3 133.862 115.636 133.676 114.631C133.49 113.626 134.154 112.661 135.158 112.475C136.163 112.289 137.128 112.953 137.314 113.958C137.5 114.963 136.837 115.928 135.832 116.114Z" fill="white"/>
<path d="M184.391 265.417C183.386 265.603 182.42 264.939 182.234 263.934C182.048 262.929 182.712 261.964 183.717 261.778C184.722 261.592 185.687 262.256 185.873 263.261C186.059 264.266 185.395 265.231 184.391 265.417Z" fill="white"/>
<path d="M363.943 284.745C362.938 284.931 361.973 284.267 361.787 283.262C361.601 282.257 362.265 281.292 363.27 281.106C364.275 280.92 365.24 281.584 365.426 282.588C365.612 283.593 364.948 284.559 363.943 284.745Z" fill="white"/>
<path d="M889.474 22.2885C889.321 21.4198 889.901 20.5913 890.77 20.4382C891.639 20.2851 892.467 20.8658 892.62 21.7345C892.773 22.6033 892.193 23.4319 891.324 23.5849C890.455 23.738 889.627 23.1575 889.474 22.2885Z" fill="white"/>
<path d="M858.114 91.8129C857.961 90.9439 858.542 90.1156 859.41 89.9625C860.279 89.8096 861.107 90.3899 861.26 91.2587C861.413 92.1276 860.833 92.9561 859.964 93.1092C859.096 93.2623 858.267 92.6818 858.114 91.8129Z" fill="white"/>
<path d="M898.396 173.398C898.243 172.529 898.823 171.701 899.692 171.548C900.56 171.395 901.389 171.975 901.542 172.844C901.695 173.713 901.115 174.541 900.246 174.694C899.377 174.847 898.549 174.267 898.396 173.398Z" fill="white"/>
<path d="M968.97 147.452C968.007 147.087 967.523 146.012 967.887 145.05C968.251 144.088 969.326 143.603 970.288 143.967C971.25 144.331 971.735 145.407 971.371 146.369C971.007 147.331 969.932 147.816 968.97 147.452Z" fill="white"/>
<path d="M1087.3 60.8354C1086.34 60.4712 1085.86 59.3958 1086.22 58.4335C1086.58 57.4713 1087.66 56.9865 1088.62 57.3506C1089.58 57.7149 1090.07 58.7903 1089.7 59.7525C1089.34 60.7147 1088.27 61.1995 1087.3 60.8354Z" fill="white"/>
<path d="M1021.08 1.22035C1021.73 1.10084 1022.35 1.52757 1022.47 2.17365C1022.59 2.81972 1022.16 3.44053 1021.52 3.56004C1020.87 3.67955 1020.25 3.25282 1020.13 2.60675C1020.01 1.96067 1020.44 1.33986 1021.08 1.22035Z" fill="white"/>
<path d="M929.862 107.051C928.063 107.384 926.334 106.195 926.001 104.396C925.668 102.596 926.857 100.867 928.656 100.535C930.455 100.201 932.183 101.39 932.516 103.19C932.85 104.989 931.661 106.718 929.862 107.051Z" fill="white"/>
<path d="M1084.33 162.937C1085.11 162.52 1086.08 162.812 1086.49 163.59C1086.91 164.367 1086.62 165.335 1085.84 165.752C1085.06 166.169 1084.1 165.877 1083.68 165.1C1083.26 164.323 1083.55 163.354 1084.33 162.937Z" fill="white"/>
<path d="M1103.04 159.208C1102.55 158.312 1102.87 157.187 1103.77 156.696C1104.67 156.205 1105.79 156.534 1106.28 157.43C1106.77 158.326 1106.44 159.451 1105.55 159.942C1104.65 160.433 1103.53 160.104 1103.04 159.208Z" fill="white"/>
<path d="M1326.62 1.87477C1326.47 1.00579 1327.05 0.177567 1327.92 0.0244504C1328.79 -0.128467 1329.62 0.451784 1329.77 1.32057C1329.92 2.18955 1329.34 3.01797 1328.47 3.17109C1327.6 3.3242 1326.77 2.74375 1326.62 1.87477Z" fill="white"/>
<path d="M1325.15 65.7037C1325 64.8347 1325.58 64.0065 1326.45 63.8534C1327.31 63.7004 1328.14 64.2807 1328.3 65.1495C1328.45 66.0185 1327.87 66.8471 1327 67C1326.13 67.1531 1325.3 66.5727 1325.15 65.7037Z" fill="white"/>
<path d="M1442.2 130.606C1441.24 130.242 1440.76 129.166 1441.12 128.204C1441.49 127.242 1442.56 126.757 1443.52 127.121C1444.48 127.485 1444.97 128.561 1444.61 129.523C1444.24 130.485 1443.17 130.97 1442.2 130.606Z" fill="white"/>
<path d="M1398.01 15.1577C1397.29 15.2909 1396.6 14.8155 1396.46 14.0956C1396.33 13.376 1396.81 12.6844 1397.53 12.5511C1398.25 12.4179 1398.94 12.8936 1399.07 13.6132C1399.2 14.3331 1398.73 15.0245 1398.01 15.1577Z" fill="white"/>
<path d="M99.4652 119.135C100.139 118.88 100.478 118.127 100.223 117.453C99.968 116.78 99.2155 116.441 98.5421 116.696C97.8685 116.951 97.5291 117.703 97.784 118.377C98.0391 119.05 98.7916 119.39 99.4652 119.135Z" fill="white"/>
<path d="M57.1007 260.095C58.0628 259.73 58.5475 258.655 58.1833 257.693C57.8192 256.731 56.744 256.246 55.7819 256.61C54.8199 256.974 54.3351 258.049 54.6992 259.012C55.0634 259.974 56.1384 260.459 57.1007 260.095Z" fill="white"/>
<path d="M585.171 141.518C586.875 140.873 587.733 138.969 587.088 137.265C586.443 135.562 584.54 134.703 582.837 135.348C581.133 135.993 580.275 137.897 580.92 139.601C581.564 141.305 583.468 142.163 585.171 141.518Z" fill="white"/>
<path d="M68.6019 183.012C69.2753 182.757 69.6147 182.004 69.3598 181.331C69.1047 180.657 68.3522 180.318 67.6788 180.573C67.0052 180.828 66.6658 181.581 66.9207 182.254C67.1758 182.928 67.9283 183.267 68.6019 183.012Z" fill="white"/>
<path d="M113.378 1.87477C113.531 1.00579 112.95 0.177567 112.082 0.0244504C111.213 -0.128467 110.384 0.451784 110.232 1.32057C110.078 2.18955 110.659 3.01797 111.527 3.17109C112.396 3.3242 113.225 2.74375 113.378 1.87477Z" fill="white"/>
<path d="M73.0983 83.4599C73.2512 82.5909 72.6709 81.7627 71.802 81.6095C70.9334 81.4566 70.1051 82.0369 69.9522 82.9057C69.7991 83.7747 70.3793 84.6033 71.2481 84.7562C72.1168 84.9093 72.9453 84.3289 73.0983 83.4599Z" fill="white"/>
<path d="M2.52249 57.5136C3.48477 57.1493 3.96949 56.074 3.60525 55.1117C3.24102 54.1495 2.16601 53.6647 1.20392 54.0288C0.24164 54.3931 -0.24308 55.4684 0.121155 56.4307C0.485391 57.3929 1.5604 57.8777 2.52249 57.5136Z" fill="white"/>
<path d="M41.9944 15.1577C42.7139 15.2909 43.4054 14.8155 43.5386 14.0956C43.6719 13.376 43.1963 12.6844 42.4767 12.5511C41.757 12.4179 41.0657 12.8936 40.9325 13.6132C40.7993 14.3331 41.2747 15.0245 41.9944 15.1577Z" fill="white"/>
</g>
<path d="M3223 913C3559.89 913 3833 639.894 3833 303C3833 -33.8937 3559.89 -307 3223 -307C2886.11 -307 2613 -33.8937 2613 303C2613 639.894 2886.11 913 3223 913Z" fill="url(#paint0_radial_22_407)"/>
<path d="M3223 700.18C3442.36 700.18 3620.18 522.356 3620.18 303C3620.18 83.6436 3442.36 -94.18 3223 -94.18C3003.64 -94.18 2825.82 83.6436 2825.82 303C2825.82 522.356 3003.64 700.18 3223 700.18Z" fill="url(#paint1_linear_22_407)"/>
<g filter="url(#filter0_i_22_407)">
<circle cx="3015" cy="30" r="15" fill="#F3F3F3"/>
</g>
<g filter="url(#filter1_i_22_407)">
<circle cx="3297.5" cy="584.5" r="45.5" fill="#F3F3F3"/>
</g>
<g filter="url(#filter2_i_22_407)">
<circle cx="3236" cy="234" r="107" fill="#F3F3F3"/>
</g>
<g filter="url(#filter3_i_22_407)">
<circle cx="2926.5" cy="171.5" r="18.5" fill="#F3F3F3"/>
</g>
<g filter="url(#filter4_i_22_407)">
<circle cx="2889.38" cy="250.385" r="13" transform="rotate(-45 2889.38 250.385)" fill="#F3F3F3"/>
</g>
<g filter="url(#filter5_i_22_407)">
<circle cx="2937.19" cy="484.385" r="7.2071" transform="rotate(-45 2937.19 484.385)" fill="#F3F3F3"/>
</g>
<path d="M3172.51 -0.269705C3171.98 3.14498 3171.18 8.10594 3169.84 12.187C3169.06 13.8355 3167.72 15.5413 3165.77 17.3486C3162.63 20.258 3159.08 24.5439 3157.89 26.8749C3154.81 32.8987 3151.51 34.173 3138.5 34.3371C3123.2 34.5321 3118.06 37.8789 3110.35 52.6751C3107.42 58.294 3102.81 65.6237 3100.1 68.9619C3097.39 72.3001 3093.3 78.8525 3091 83.5238C3087.9 89.8077 3085.42 92.8773 3081.47 95.3276C3078.53 97.1487 3074.82 99.8286 3073.22 101.284C3071.18 103.146 3069.23 103.714 3066.64 103.201C3062.75 102.429 3057.05 105.837 3057.05 108.938C3057.05 109.845 3055.55 113.13 3053.73 116.241C3051.91 119.352 3050.47 123.55 3050.53 125.57C3050.83 134.795 3048.08 155.221 3045.6 162.117C3044.09 166.334 3043.88 171.818 3044.58 189.126L3045.46 210.841L3041.37 216.435C3037.01 222.41 3035.81 223.009 3033.58 220.326C3032.81 219.391 3028.46 216.874 3023.92 214.733C3019.38 212.592 3014.62 209.459 3014.53 207.662C3013.93 195.656 2983.49 215.471 2983.37 230.177C2983.37 232.125 2982.75 234.083 2982.03 234.531C2973.73 239.663 2986.7 257.13 3001.62 260.92C3008.77 262.735 3009.92 264.813 3004.39 265.92C3000.64 266.67 3000.36 267.098 3000.72 271.6C3001.06 275.825 3000.67 276.576 2997.89 277.261C2995.85 277.761 2993.26 280.445 2990.83 284.587C2988.71 288.182 2985.28 293.069 2983.19 295.447C2981.1 297.825 2979.35 301.082 2979.29 302.686C2978.88 313.831 2973.07 322.627 2957.63 335.509C2951.58 340.556 2945.42 347.296 2941.68 352.962C2933.26 365.688 2921.47 378.76 2911.97 385.901L2903.99 391.9L2901.14 389.219C2899.57 387.745 2897.66 387.11 2895.69 386.767C2892.93 386.286 2889.35 382.692 2883.91 377.801L2880.02 374.3C2880.02 374.3 2878.52 373.335 2878.36 372.814C2878.1 371.948 2877.17 371.049 2876.21 370.979C2875.78 370.945 2875.36 370.785 2875.36 370.213C2875.3 369.385 2874.55 368.713 2873.93 369.051C2873.53 369.269 2871.15 371.804 2871.15 371.804C2871.15 371.804 2868.4 373.916 2868.4 374.549C2868.4 375.182 2868.93 375.455 2869.57 375.644C2870.2 375.832 2870.13 376.042 2870.27 376.673C2870.4 377.302 2871.05 378.232 2871.92 378.521C2872.79 378.81 2872.77 379.467 2873.41 380.207C2883.48 391.902 2885.4 393.22 2885.49 396.214C2885.59 399.23 2885.95 400.771 2886.78 401.661C2890.21 405.308 2888.36 405.514 2888.29 407.737C2888.15 412.767 2897.59 422.422 2902.95 421.176C2905 420.699 2907.49 423.272 2908.86 425.366C2911.87 429.955 2915.25 429.479 2921.43 423.595C2927.79 417.547 2927.92 416.455 2922.85 411.387L2918.94 407.485L2921.83 401.535C2924.24 396.574 2927.14 393.968 2939.23 385.844C2960.47 371.578 2971.97 361.489 2978.13 351.731C2983.18 343.747 3006.64 320.736 3009.74 320.736C3011.73 320.736 3021.2 325.749 3022.17 327.316C3022.63 328.061 3025.48 329.926 3028.51 331.462C3031.54 332.998 3035.66 335.631 3037.67 337.313C3039.68 338.995 3043.39 340.755 3045.9 341.228C3048.41 341.699 3049.98 342.807 3050.28 343.215C3050.68 343.772 3050.81 345.241 3050.98 346.886C3051.15 348.53 3052.33 350.77 3053.44 352.021C3056.38 355.336 3056.03 364.969 3052.69 372.66C3046.99 385.794 3050.43 402.022 3058.11 411.205C3062.74 416.736 3062.08 415.95 3063.82 421.405C3064.57 423.741 3064.75 426.899 3064.92 428.618C3065.2 431.381 3065.48 434.332 3065.57 438.614C3065.8 449.049 3067.91 448.826 3068.94 453.192C3073.15 471.054 3073.2 471.806 3055.73 474.712C3043.47 476.751 3039.07 479.016 3027.43 489.258C3013.75 501.309 3005.82 506.382 3002.12 505.453C2991.71 502.84 2982.13 511.866 2980.75 525.6C2980.18 531.274 2978.95 539.181 2978.03 543.17C2975.2 555.419 2980.81 569.214 2991.07 575.209C3000.37 580.643 3004.9 574.067 3006.2 553.236C3006.77 544.002 3007.61 540.422 3010.28 535.88C3012.52 532.043 3013.15 529.863 3012.18 529.263C3007.49 526.362 3024.37 516.875 3043.47 511.681C3051.3 509.552 3059.48 507.13 3061.65 506.298C3063.82 505.467 3068.27 504.487 3071.52 504.119C3081.57 502.989 3087.67 500.98 3095.59 496.183C3105.13 490.415 3106.43 487.566 3107.96 469.468C3108.41 464.025 3110.69 467.165 3110.49 448.727C3110.33 433.315 3111.71 431.542 3113.66 430.967C3114.81 430.628 3117.51 429.493 3120.49 428.898C3131.31 426.74 3146.45 430.48 3158.57 430.371C3161.79 430.337 3160.75 428.975 3166.78 429.854C3168.48 430.101 3173.75 429.653 3174.77 439.488C3176.71 458.401 3179.42 465.477 3190.52 480.642C3203.08 497.797 3209.87 512.667 3210.37 524.079C3211.4 547.686 3224.82 551.894 3241.96 533.983C3244.85 530.956 3249.3 527.609 3251.83 526.544C3254.36 525.478 3258.95 522.142 3262.03 519.13C3266.02 515.228 3267.62 514.295 3267.62 515.886C3267.62 519.19 3270.46 522.411 3289.31 540.525C3327.76 577.457 3329.47 574.656 3336.07 592.372C3355.17 643.619 3384.49 655.505 3420.27 660.899C3499.77 672.883 3493.73 734.603 3541.9 742.348C3551.01 743.813 3566.81 737.896 3591.45 733.061C3618.33 726.682 3612.64 739.314 3642.19 745.073C3700.8 758.611 3682.88 768.486 3738.13 770.621C3776.98 775.167 3801.14 788.088 3838.24 792.882C3843.27 793.527 3848.34 793.893 3853.42 794.026C3863.58 794.292 3873.8 793.619 3883.88 792.335C3883.88 792.333 3883.94 792.331 3883.94 792.331C3890.63 791.477 3897.27 790.303 3903.89 789.023C3917.21 786.447 3930.42 783.267 3943.64 780.172C3982.27 771.124 4032.14 796.737 4071.79 795.23C4111.44 793.724 4141.12 765.319 4177.42 781.355C4216.74 798.728 4250.2 828.374 4290.98 841.98C4321.92 852.305 4355.16 852.74 4387.78 853.306C4420.39 853.872 4453.69 854.793 4484.33 865.991C4504.1 873.219 4522.09 884.493 4540.52 894.665C4543.25 896.173 4546.06 897.535 4548.82 898.994C4578.57 914.719 4609.91 927.595 4642.21 937.346C4642.43 937.412 4642.65 937.479 4642.86 937.544C4817.11 961.161 4749.88 934.832 4832.63 928.411C4879.7 919.484 4931.13 960.158 4950.75 953.669C4986.3 941.914 4992.01 909.301 5029.05 903.888C5072.36 897.559 5099.88 915.914 5140.36 932.573C5180.84 949.231 5195.29 1001.53 5232.46 1024.65C5259.16 1041.26 5325.71 1020.17 5352.92 1036.11C5408.31 1066.84 5436.84 1098.2 5476.45 1115.42C5516.07 1132.64 5610.32 1095.26 5658.06 1111.36C5705.8 1127.46 5759.42 1166.01 5822.71 1155.38C5905.73 1131.41 5921.43 1163.29 6000.72 1170.04C6000.72 787.763 6000.73 382.012 6000.73 -0.265957C5057.99 -0.317736 4115.22 -0.211481 3172.52 -0.268552L3172.51 -0.269705ZM3065.99 129.402C3066.9 129.443 3068.08 130.64 3069.49 133.261C3073.31 140.344 3099.81 159.68 3113.73 165.528C3117.66 167.181 3122.46 169.619 3124.39 170.947C3130.88 175.404 3152.77 181.545 3168.26 183.254C3179.14 184.456 3180.24 185.301 3185.54 196.462C3188.66 203.039 3191.77 207.458 3194.99 209.872C3205.29 217.614 3208.93 224.639 3210.45 239.796C3213.06 265.686 3223.99 278.609 3246.17 282.032C3253.22 283.118 3255.43 285.632 3257.11 294.478C3257.85 298.395 3259.78 303.469 3261.39 305.752C3270.05 317.986 3275.61 324.322 3279.61 326.517C3292.98 333.849 3294.83 347.918 3284.5 363.699C3281.11 368.871 3277.66 373.528 3276.82 374.046C3267.01 380.111 3264.17 396.452 3269.52 416.153C3279.01 451.103 3279.81 495.916 3270.9 493.68C3267.7 492.876 3263.5 494.615 3259.39 498.44C3258.03 499.71 3255.1 501.11 3252.89 501.553C3246.74 502.784 3240.79 501.95 3237.68 499.42C3236.77 498.683 3234.35 498.418 3232.3 498.826C3227.06 499.874 3221.45 488.455 3217.55 468.746C3215.97 460.811 3212.72 448.046 3210.32 440.378C3207.92 432.71 3205.55 424.122 3205.05 421.294C3202.28 405.771 3194.54 398.076 3174.84 391.245C3169.05 389.237 3173.7 387.418 3160.35 382.821C3148.21 378.647 3137.79 376.119 3134.9 374.696C3131.1 372.818 3126.88 369.385 3122.79 357.666C3120.66 351.559 3118.16 346.455 3117.98 345.749C3117.49 343.726 3117.01 339.229 3112.66 330.671C3108.94 323.345 3101.22 314.301 3096.51 304.285C3092.08 294.874 3085.03 282.437 3080.84 276.646C3067.1 257.657 3062.09 247.196 3066.36 241.572C3068.39 238.898 3067.24 238.143 3065.83 236.724C3063.4 234.273 3064.82 190.756 3067.43 182.553C3069.61 175.701 3069.21 165.604 3066.27 153.344C3062.98 139.615 3063.26 129.286 3065.99 129.402Z" fill="#083D4B"/>
</g>
<defs>
<filter id="filter0_i_22_407" x="3000" y="15" width="30" height="34" filterUnits="userSpaceOnUse" color-interpolation-filters="sRGB">
<feFlood flood-opacity="0" result="BackgroundImageFix"/>
<feBlend mode="normal" in="SourceGraphic" in2="BackgroundImageFix" result="shape"/>
<feColorMatrix in="SourceAlpha" type="matrix" values="0 0 0 0 0 0 0 0 0 0 0 0 0 0 0 0 0 0 127 0" result="hardAlpha"/>
<feOffset dy="4"/>
<feGaussianBlur stdDeviation="2"/>
<feComposite in2="hardAlpha" operator="arithmetic" k2="-1" k3="1"/>
<feColorMatrix type="matrix" values="0 0 0 0 0 0 0 0 0 0 0 0 0 0 0 0 0 0 0.15 0"/>
<feBlend mode="normal" in2="shape" result="effect1_innerShadow_22_407"/>
</filter>
<filter id="filter1_i_22_407" x="3252" y="539" width="91" height="95" filterUnits="userSpaceOnUse" color-interpolation-filters="sRGB">
<feFlood flood-opacity="0" result="BackgroundImageFix"/>
<feBlend mode="normal" in="SourceGraphic" in2="BackgroundImageFix" result="shape"/>
<feColorMatrix in="SourceAlpha" type="matrix" values="0 0 0 0 0 0 0 0 0 0 0 0 0 0 0 0 0 0 127 0" result="hardAlpha"/>
<feOffset dy="4"/>
<feGaussianBlur stdDeviation="2"/>
<feComposite in2="hardAlpha" operator="arithmetic" k2="-1" k3="1"/>
<feColorMatrix type="matrix" values="0 0 0 0 0 0 0 0 0 0 0 0 0 0 0 0 0 0 0.15 0"/>
<feBlend mode="normal" in2="shape" result="effect1_innerShadow_22_407"/>
</filter>
<filter id="filter2_i_22_407" x="3129" y="127" width="214" height="218" filterUnits="userSpaceOnUse" color-interpolation-filters="sRGB">
<feFlood flood-opacity="0" result="BackgroundImageFix"/>
<feBlend mode="normal" in="SourceGraphic" in2="BackgroundImageFix" result="shape"/>
<feColorMatrix in="SourceAlpha" type="matrix" values="0 0 0 0 0 0 0 0 0 0 0 0 0 0 0 0 0 0 127 0" result="hardAlpha"/>
<feOffset dy="4"/>
<feGaussianBlur stdDeviation="2"/>
<feComposite in2="hardAlpha" operator="arithmetic" k2="-1" k3="1"/>
<feColorMatrix type="matrix" values="0 0 0 0 0 0 0 0 0 0 0 0 0 0 0 0 0 0 0.15 0"/>
<feBlend mode="normal" in2="shape" result="effect1_innerShadow_22_407"/>
</filter>
<filter id="filter3_i_22_407" x="2908" y="153" width="37" height="41" filterUnits="userSpaceOnUse" color-interpolation-filters="sRGB">
<feFlood flood-opacity="0" result="BackgroundImageFix"/>
<feBlend mode="normal" in="SourceGraphic" in2="BackgroundImageFix" result="shape"/>
<feColorMatrix in="SourceAlpha" type="matrix" values="0 0 0 0 0 0 0 0 0 0 0 0 0 0 0 0 0 0 127 0" result="hardAlpha"/>
<feOffset dy="4"/>
<feGaussianBlur stdDeviation="2"/>
<feComposite in2="hardAlpha" operator="arithmetic" k2="-1" k3="1"/>
<feColorMatrix type="matrix" values="0 0 0 0 0 0 0 0 0 0 0 0 0 0 0 0 0 0 0.15 0"/>
<feBlend mode="normal" in2="shape" result="effect1_innerShadow_22_407"/>
</filter>
<filter id="filter4_i_22_407" x="2876.38" y="237.385" width="26" height="30" filterUnits="userSpaceOnUse" color-interpolation-filters="sRGB">
<feFlood flood-opacity="0" result="BackgroundImageFix"/>
<feBlend mode="normal" in="SourceGraphic" in2="BackgroundImageFix" result="shape"/>
<feColorMatrix in="SourceAlpha" type="matrix" values="0 0 0 0 0 0 0 0 0 0 0 0 0 0 0 0 0 0 127 0" result="hardAlpha"/>
<feOffset dy="4"/>
<feGaussianBlur stdDeviation="2"/>
<feComposite in2="hardAlpha" operator="arithmetic" k2="-1" k3="1"/>
<feColorMatrix type="matrix" values="0 0 0 0 0 0 0 0 0 0 0 0 0 0 0 0 0 0 0.15 0"/>
<feBlend mode="normal" in2="shape" result="effect1_innerShadow_22_407"/>
</filter>
<filter id="filter5_i_22_407" x="2929.98" y="477.178" width="14.416" height="18.4142" filterUnits="userSpaceOnUse" color-interpolation-filters="sRGB">
<feFlood flood-opacity="0" result="BackgroundImageFix"/>
<feBlend mode="normal" in="SourceGraphic" in2="BackgroundImageFix" result="shape"/>
<feColorMatrix in="SourceAlpha" type="matrix" values="0 0 0 0 0 0 0 0 0 0 0 0 0 0 0 0 0 0 127 0" result="hardAlpha"/>
<feOffset dy="4"/>
<feGaussianBlur stdDeviation="2"/>
<feComposite in2="hardAlpha" operator="arithmetic" k2="-1" k3="1"/>
<feColorMatrix type="matrix" values="0 0 0 0 0 0 0 0 0 0 0 0 0 0 0 0 0 0 0.15 0"/>
<feBlend mode="normal" in2="shape" result="effect1_innerShadow_22_407"/>
</filter>
<radialGradient id="paint0_radial_22_407" cx="0" cy="0" r="1" gradientUnits="userSpaceOnUse" gradientTransform="translate(3223 303) rotate(180) scale(610)">
<stop offset="0.27772" stop-color="white"/>
<stop offset="0.32168" stop-color="white" stop-opacity="0.9005"/>
<stop offset="0.44977" stop-color="white" stop-opacity="0.63077"/>
<stop offset="0.57118" stop-color="white" stop-opacity="0.4058"/>
<stop offset="0.68236" stop-color="white" stop-opacity="0.23039"/>
<stop offset="0.78125" stop-color="white" stop-opacity="0.1044"/>
<stop offset="0.86424" stop-color="white" stop-opacity="0.02759"/>
<stop offset="0.92125" stop-color="white" stop-opacity="0"/>
</radialGradient>
<linearGradient id="paint1_linear_22_407" x1="3223" y1="-85.3959" x2="3223" y2="685.255" gradientUnits="userSpaceOnUse">
<stop stop-color="#F0F0F0"/>
<stop offset="0.12711" stop-color="#F3F3F3"/>
<stop offset="0.31795" stop-color="#F4F4F4"/>
<stop offset="0.54883" stop-color="#F9F9F9"/>
<stop offset="0.80871" stop-color="#F8F8F8"/>
<stop offset="0.9923" stop-color="white"/>
</linearGradient>
<clipPath id="clip0_22_407">
<rect width="6000" height="1170" fill="white"/>
</clipPath>
</defs>
</svg>
