<svg width="467" height="104" viewBox="0 0 467 104" fill="none" xmlns="http://www.w3.org/2000/svg">
    <path d="M0 104H467C458.989 89.9487 437.338 83.2047 424.256 92.7106C425.293 83.7953 419.87 74.9035 411.558 71.5299C403.246 68.1563 392.846 70.9836 387.383 78.1023C383.28 56.1522 366.506 33.7125 344.451 30.2997C322.396 26.8866 298.8 38.6662 288.262 58.3506C282.289 52.2826 270.205 52.8686 267.434 60.9217C261.271 27.7652 231.451 0.0501745 197.746 7.07016e-05C164.041 -0.0498327 132.185 26.324 125.923 59.4621C123.045 54.0204 112.847 52.0137 106.765 52.9486C100.684 53.8833 95.4627 58.9557 94.3496 65.0108C85.9749 55.0884 68.4941 51.3214 56.3075 55.7921C44.1211 60.2628 35.373 72.8158 35.3928 85.8031C27.6011 79.869 19.7646 77.7506 10.9592 82.0365C2.15378 86.3224 0.144013 94.2033 0 104Z" fill="white"/>
</svg>
