<svg width="542" height="121" viewBox="0 0 542 121" fill="none" xmlns="http://www.w3.org/2000/svg">
    <path d="M0 121H542C532.702 104.652 507.574 96.8055 492.391 107.865C493.594 97.4926 487.301 87.1473 477.654 83.2223C468.007 79.2973 455.937 82.5867 449.597 90.8691C444.835 65.331 425.367 39.2232 399.77 35.2525C374.172 31.2815 346.787 44.9866 334.557 67.8887C327.624 60.8288 313.6 61.5106 310.384 70.8801C303.231 32.3038 268.622 0.0583761 229.504 8.22586e-05C190.386 -0.0579785 153.413 30.627 146.147 69.1819C142.806 62.8507 130.97 60.5159 123.912 61.6037C116.854 62.6912 110.794 68.5926 109.502 75.6376C99.7824 64.0933 79.4942 59.7105 65.3505 64.912C51.2069 70.1134 41.0539 84.7184 41.0769 99.8286C32.0339 92.9245 22.9387 90.4598 12.7192 95.4463C2.49967 100.433 0.167141 109.602 0 121Z" fill="white"/>
</svg>
