<svg width="687" height="153" viewBox="0 0 687 153" fill="none" xmlns="http://www.w3.org/2000/svg">
<path d="M687 153H0C11.7855 132.328 43.636 122.407 62.8807 136.392C61.3553 123.276 69.3325 110.195 81.5606 105.232C93.7887 100.268 109.087 104.428 117.124 114.901C123.16 82.6086 147.836 49.5963 180.281 44.5755C212.726 39.5543 247.438 56.8839 262.94 85.8427C271.727 76.9158 289.504 77.7779 293.58 89.6252C302.646 40.8469 346.515 0.0738145 396.098 0.000104013C445.681 -0.0733116 492.544 38.7267 501.755 87.4779C505.989 79.4724 520.991 76.5201 529.938 77.8955C538.885 79.2707 546.566 86.7328 548.203 95.6409C560.523 81.0436 586.239 75.5017 604.166 82.0788C622.094 88.6558 634.963 107.123 634.934 126.23C646.396 117.5 657.924 114.383 670.878 120.688C683.832 126.993 686.788 138.588 687 153Z" fill="white"/>
</svg>
