<svg width="24" height="24" viewBox="0 0 24 24" fill="none" xmlns="http://www.w3.org/2000/svg">
<path d="M12 5.53846C8.4375 5.53846 5.53846 8.4375 5.53846 12C5.53846 15.5624 8.4375 18.4615 12 18.4615C15.5625 18.4615 18.4615 15.5624 18.4615 12C18.4615 8.4375 15.5625 5.53846 12 5.53846ZM12 3.69231C12.5096 3.69231 12.9231 3.28004 12.9231 2.76923V0.923077C12.9231 0.413481 12.5096 0 12 0C11.4892 0 11.0769 0.413481 11.0769 0.923077V2.76923C11.0769 3.28004 11.4892 3.69231 12 3.69231ZM12 20.3077C11.4892 20.3077 11.0769 20.7212 11.0769 21.2308V23.0769C11.0769 23.5877 11.4892 24 12 24C12.5096 24 12.9231 23.5877 12.9231 23.0769V21.2308C12.9231 20.7212 12.5096 20.3077 12 20.3077ZM19.1779 6.12502L20.4832 4.81973C20.8438 4.45915 20.8438 3.87502 20.4832 3.51444C20.1226 3.15387 19.5385 3.15387 19.1779 3.51444L17.8726 4.81973C17.512 5.18031 17.512 5.76444 17.8726 6.12502C18.2332 6.48554 18.8173 6.48554 19.1779 6.12502ZM4.81967 17.8762L3.5145 19.1815C3.15381 19.5421 3.15381 20.1263 3.5145 20.4868C3.87502 20.8473 4.4591 20.8473 4.81967 20.4868L6.12496 19.1815C6.4856 18.8185 6.4856 18.2368 6.12496 17.8762C5.76444 17.5156 5.18031 17.5132 4.81967 17.8762ZM3.69231 12C3.69231 11.4904 3.27883 11.0769 2.76923 11.0769H0.923077C0.412269 11.0769 0 11.4904 0 12C0 12.5108 0.412269 12.9231 0.923077 12.9231H2.76923C3.27883 12.9231 3.69231 12.5108 3.69231 12ZM23.0769 11.0769H21.2308C20.72 11.0769 20.3077 11.4904 20.3077 12C20.3077 12.5108 20.72 12.9231 21.2308 12.9231H23.0769C23.5865 12.9231 24 12.5108 24 12C24 11.4904 23.5865 11.0769 23.0769 11.0769ZM4.81852 6.12502C5.17904 6.4856 5.76323 6.4856 6.12381 6.12502C6.48433 5.76444 6.48433 5.18031 6.12381 4.81973L4.81852 3.51444C4.45794 3.15387 3.87375 3.15387 3.51323 3.51444C3.15265 3.87502 3.15265 4.45915 3.51323 4.81973L4.81852 6.12502ZM19.1803 17.8738C18.8173 17.5132 18.2356 17.5132 17.875 17.8738C17.5145 18.2342 17.512 18.8185 17.875 19.1791L19.1803 20.4843C19.5408 20.8448 20.125 20.8448 20.4856 20.4843C20.8461 20.1238 20.8461 19.5395 20.4856 19.1791L19.1803 17.8738Z" fill="white"/>
</svg>
