<svg width="24" height="24" viewBox="0 0 24 24" fill="none" xmlns="http://www.w3.org/2000/svg">
<path d="M18.7798 18.2956C15.1768 21.9015 9.3104 21.9015 5.70443 18.2956C2.09852 14.6896 2.09852 8.82332 5.70443 5.21891C6.65864 4.2663 7.82191 3.53936 9.15979 3.06533C9.58123 2.91782 10.0478 3.02473 10.3608 3.33926C10.6769 3.6553 10.7837 4.12182 10.6348 4.54023C9.72874 7.09567 9.04489 11.1624 10.9412 13.0587C12.8345 14.9534 16.9015 14.2684 19.46 13.3654C19.8784 13.2164 20.3464 13.3234 20.661 13.6394C20.9771 13.9523 21.0824 14.4204 20.9334 14.8404C20.4623 16.1781 19.7339 17.3414 18.7798 18.2956Z" fill="#333333"/>
</svg>
