<svg width="21" height="24" viewBox="0 0 21 24" fill="none" xmlns="http://www.w3.org/2000/svg">
<path fill-rule="evenodd" clip-rule="evenodd" d="M1.5 7.5H15V6H1.5V7.5ZM13.5 3.75C13.5 1.6875 15.1875 0 17.25 0C19.3125 0 21 1.6875 21 3.75C21 5.8125 19.3125 7.5 17.25 7.5C16.9875 7.5 16.725 7.4625 16.5 7.425V7.65C16.5 9.675 15.0375 11.4 13.05 11.7375L12.4125 11.85C12.1125 11.8875 11.85 12.15 11.8125 12.45L11.625 13.65C11.4 14.925 10.5 15.9375 9.3 16.35C9.15 16.3875 9 16.5375 9 16.725V21.75C9 22.1625 9.3375 22.5 9.75 22.5H12.75C13.1625 22.5 13.5 22.8375 13.5 23.25C13.5 23.6625 13.1625 24 12.75 24H3.75C3.3375 24 3 23.6625 3 23.25C3 22.8375 3.3375 22.5 3.75 22.5H6.75C7.1625 22.5 7.5 22.1625 7.5 21.75V16.725C7.5 16.5375 7.3875 16.3875 7.2 16.35C6 15.975 5.1 14.9625 4.875 13.65L4.6875 12.4125C4.65 12.1125 4.3875 11.85 4.0875 11.8125L3.45 11.7C1.4625 11.3625 0 9.675 0 7.65V5.25C0 4.8375 0.3375 4.5 0.75 4.5H13.575C13.5375 4.275 13.5 4.0125 13.5 3.75Z" fill="#637B84"/>
</svg>
