<svg width="6001" height="232" viewBox="0 0 6001 232" fill="none" xmlns="http://www.w3.org/2000/svg">
<path d="M3321.96 58.211C3313.14 58.5349 3304.48 59.2377 3296.02 60.3573C3194.44 73.7954 3079.24 169.01 2979.47 232H3763.27C3736.21 209.075 3712.57 189.555 3693 177.559C3621.84 133.936 3454.21 53.3531 3321.96 58.211ZM2191.97 103.75C2183.32 103.776 2174.81 104.656 2166.5 106.5C2103.83 120.4 2030.55 176.173 1952.2 232H2431.98C2362.17 174.213 2271 103.5 2191.97 103.75ZM449.192 140.182C447.034 140.126 444.969 140.229 443 140.5C380 149.19 294.362 170.996 184 197C113.604 213.587 60.1677 173.97 10.5 221C6.18782 225.083 0 232 0 232H624.989C548.04 186.408 485.262 141.11 449.192 140.182ZM5045.33 183.814C5013.66 185.23 4963.67 204.711 4903.77 232H5164.1C5123.21 206.797 5086.3 186.95 5055 184C5052 183.717 5048.77 183.661 5045.33 183.814Z" fill="#573836"/>
<path d="M3534.96 98.2108C3526.14 98.5347 3517.48 99.2377 3509.02 100.357C3411.92 113.202 3106.43 190.899 2906.19 232H3922.69C3912.88 223.602 3906 217.558 3906 217.558C3834.83 173.936 3667.21 93.3529 3534.96 98.2108ZM4771.44 111.199C4767.89 111.061 4764.41 111.156 4761 111.5C4717.25 115.915 4660.09 168.852 4599.72 232H4986.6C4908.04 178.405 4829.9 113.461 4771.44 111.199ZM686.856 140.941C682.012 141.028 677.391 141.374 673 142C607.281 151.371 455.991 191.739 313.354 232H979.684C856.037 185.036 751.544 139.78 686.856 140.941ZM1931.5 158.5C1879.5 158.5 1817.96 193.533 1747.75 232H2094.58C2035.07 192.358 1974.53 158.5 1931.5 158.5ZM2505.23 214.584C2496.02 214.699 2487.25 215.621 2479 217.558C2469.18 219.866 2459.08 225.131 2448.87 232H2607.62C2570.6 222.548 2535.48 214.204 2505.23 214.584Z" fill="#7B3C37"/>
<path d="M152.5 52.4999C79 92.9999 0 232 0 232H6000.5C6000.5 232 5947 184 5928 175C5909 166 5896.6 150.718 5828 178.5C5690.09 234.35 5578.2 147.809 5430 161C5239 178 5205 228.5 5025 228.5C4857.2 228.5 4763.59 225.455 4602.5 178.5C4476.69 141.83 4406.89 85.9503 4276.5 98.9999C4183.59 108.299 4141.22 154.426 4051 178.5C3954.78 204.174 3871 212.487 3800 223.494C3729 234.501 3636.5 240.001 3498.12 196.361C3359.74 152.722 2861.39 27.5633 2725.98 5.85748C2590.57 -15.8483 2431 32 2314.5 113C2238.59 169.382 2082 254.5 1900.5 218.5C1719 182.5 1360 55.5 1212.5 55.5C1065 55.5 963 186 677 212C391 238 226 12 152.5 52.4999Z" fill="#B05751"/>
</svg>
