<svg width="543" height="357" viewBox="0 0 543 357" fill="none" xmlns="http://www.w3.org/2000/svg">
<path d="M0.5 357H543C543 357 543 355.446 540.5 355C538 354.554 530.049 355.446 530.049 355.446C530.049 355.446 517.344 349.515 510.953 349.903C512.2 347.806 508.692 347.728 505.341 346.563L501.989 345.397C501.989 345.397 508.77 346.174 512.512 343.221C516.253 340.269 515.396 335.918 514.226 335.918C513.057 335.918 511.966 337.938 511.109 337.783C510.251 337.627 501.054 333.898 497.936 327.759C504.406 332.266 514.616 327.759 514.616 327.759C514.616 327.759 510.797 326.672 508.615 326.905C516.019 325.118 517.344 321.621 517.344 321.621C517.344 321.621 509.238 324.263 506.042 322.709C502.847 321.155 501.6 319.834 501.6 319.834C501.6 319.834 506.042 320.378 509.628 318.979C497.001 318.202 492.402 312.686 491.779 310.277C491.155 307.869 489.597 305.382 490.61 304.994C491.623 304.605 494.585 307.169 499.807 304.994C498.924 304.009 496.326 303.543 496.326 303.543C496.326 303.543 501.054 301.834 501.054 299.917C501.054 298.001 497.053 299.814 495.494 299.14C493.935 298.467 490.454 295.463 490.454 294.634C490.454 293.805 494.871 293.028 494.559 290.542C494.247 288.055 490.454 290.179 488.635 288.884C486.817 287.589 489.363 285.31 487.388 282.772C489.415 282.15 489.415 280.441 489.051 279.716C488.687 278.99 486.609 277.851 486.817 275.883C487.024 273.914 487.076 273.966 487.856 274.018C488.635 274.069 488.375 272.412 487.648 272.153C486.921 271.894 484.53 270.547 484.478 269.563C484.426 268.579 484.011 265.471 484.271 263.554C484.53 261.638 483.647 255.37 483.439 255.266C483.231 255.163 482.504 260.291 482.556 263.606C482.608 266.921 481.465 268.475 481.309 270.34C481.153 272.205 481.828 274.484 481.465 275.52C481.101 276.556 479.698 279.56 480.477 280.959C481.257 282.357 481.932 282.513 480.789 283.083C479.646 283.652 477.1 284.896 477.671 286.139C478.243 287.382 478.971 287.227 478.971 287.227C478.971 287.227 475.853 288.936 473.567 289.195C471.28 289.454 471.488 291.629 473.203 292.458C474.918 293.287 476.58 294.53 477.308 294.53C478.035 294.53 479.386 293.546 479.75 293.701C480.114 293.857 480.594 296.758 478.646 298.078C476.697 299.399 476.697 298.389 475.216 299.477C473.735 300.565 474.164 301.808 472.683 301.963C471.202 302.119 470.501 303.051 470.773 303.867C471.046 304.683 473.346 305.227 474.437 305.227C475.528 305.227 477.749 305.032 477.749 305.032C477.749 305.032 476.385 308.257 471.787 311.209C477.165 311.792 480.01 307.519 480.01 307.519C480.01 307.519 476.424 315.613 471.228 318.099C466.032 320.585 463.59 319.912 463.382 320.948C460.732 321.103 460.16 320.792 460.16 320.792C460.16 320.792 462.395 322.864 466.084 323.486C469.773 324.108 471.592 323.641 471.592 323.641C471.592 323.641 468.734 325.351 466.344 325.299C470.968 326.749 474.606 324.729 474.606 324.729C474.606 324.729 471.696 328.77 468.007 328.614C469.358 330.738 471.124 330.634 471.124 330.634C471.124 330.634 468.63 339.492 456.783 337.627C463.33 336.539 462.468 332.917 463.746 331.618C466.396 328.925 466.759 326.594 465.824 326.49C464.889 326.387 452.106 331.152 445.403 326.853C452.054 328.044 457.25 325.61 457.25 325.61C457.25 325.61 450.807 324.626 449.56 323.434C448.313 322.243 451.846 321.466 454.185 321.673C456.523 321.88 462.759 319.549 464.161 317.218C465.564 314.887 463.382 312.194 463.382 312.194C463.382 312.194 467.851 310.484 468.318 307.687C461.615 311.365 457.926 311.831 454.652 310.484C451.379 309.138 450.496 309.811 448.677 309.241C446.858 308.671 444.052 305.771 444.052 305.771C444.052 305.771 445.767 304.527 446.287 303.181C451.691 305.149 456.471 304.165 457.978 301.368C459.485 298.571 457.25 296.343 454.652 297.431C452.054 298.519 444.936 292.251 444.936 292.251C444.936 292.251 452.678 293.391 458.342 289.454C455.068 289.816 453.301 289.868 453.301 289.868C453.301 289.868 459.485 286.864 459.537 281.373C459.641 280.337 457.199 282.513 453.613 283.549C450.028 284.585 442.026 280.234 442.026 280.234C442.026 280.234 448.469 277.592 448.469 273.655C448.469 269.718 443.74 272.023 440.857 270.081C437.973 268.139 436.933 267.284 437.037 266.921C437.141 266.559 442.052 264.746 444.273 258.802C440.532 259.928 439.246 262.221 439.246 262.221C439.246 262.221 439.324 252.469 439.09 249.827C438.856 247.186 436.284 247.186 436.284 246.02C436.284 244.855 435.842 234.132 433.296 234.288C430.75 234.443 432.257 239.053 433.088 239.934C433.92 240.814 433.14 242.886 432.049 244.648C430.958 246.409 430.854 248.481 430.854 249.361C430.854 250.242 428.879 252.262 428.879 252.832C428.879 253.402 430.594 256.302 430.075 258.219C429.555 260.136 428.62 257.701 429.035 261.586C429.451 265.471 431.841 263.813 431.529 265.056C431.218 266.3 429.561 265.6 428.236 266.358C426.911 267.116 426.911 267.873 426.112 267.892C425.314 267.912 421.183 267.329 420.247 268.475C419.312 269.621 419.39 270.379 419.39 270.379C419.39 270.379 417.734 269.66 416.662 268.3C417.773 272.263 419.331 273.157 420.754 273.778C422.176 274.4 423.93 274.186 424.671 274.924C423.833 275.954 420.306 276.07 420.306 276.07C420.306 276.07 422.761 277.08 426.035 277.061C429.308 277.041 431.939 277.003 431.939 277.003C431.939 277.003 428.698 279.12 425.814 280.311C422.93 281.503 423.164 282.409 421.501 282.513C419.838 282.616 418.903 282.772 418.617 283.963C418.331 285.155 419.604 286.916 422.41 287.304C425.216 287.693 429.399 287.382 429.399 287.382C429.399 287.382 431.244 288.237 429.633 289.506C428.022 290.775 425.32 290.671 424.203 291.888C423.086 293.106 422.176 293.416 420.306 293.416C418.435 293.416 418.097 294.556 416.694 294.634C415.291 294.712 413.265 294.634 412.641 295.799C412.018 296.965 412.408 298.493 412.408 298.493C412.408 298.493 409.108 298.13 407.913 297.405C410.329 300.047 415.11 302.766 418.903 302.559C422.696 302.352 425.034 301.938 425.034 301.938C425.034 301.938 425.71 303.336 426.749 303.336C423.787 305.253 423.32 306.599 420.669 306.703C418.019 306.807 408.043 306.703 403.47 302.663C407.367 308.879 411.784 310.174 411.784 310.174C411.784 310.174 406.952 310.018 406.12 312.09C405.289 314.162 406.796 317.374 410.589 317.892C414.382 318.41 414.798 320.015 416.253 320.689C417.708 321.362 423.683 321.725 423.683 321.725C423.683 321.725 421.475 325.817 417.266 325.895C413.057 325.972 398.248 321.854 398.248 321.854C398.248 321.854 403.47 327.682 407.991 329.469C398.404 329.391 372.839 321.31 368.24 315.871C376.346 317.037 391.935 315.328 398.17 312.686C377.827 311.132 354.133 302.352 348.287 296.68C363.564 301.342 376.034 296.991 376.034 296.991C376.034 296.991 366.291 291.085 359.666 288.133C368.474 288.055 373.54 292.251 377.827 293.339C382.114 294.427 401.989 296.058 407.679 292.873C413.369 289.687 417.188 284.947 416.019 284.015C414.85 283.083 410.017 285.802 403.236 285.336C396.455 284.87 388.973 280.13 383.673 278.965C378.373 277.799 376.97 273.37 376.97 273.37C376.97 273.37 378.139 273.836 384.53 271.583C390.921 269.33 394.896 270.962 399.339 269.252C403.782 267.543 410.953 263.813 409.16 261.327C407.367 258.841 398.95 263.58 393.415 262.881C387.882 262.182 379.542 261.405 374.476 259.462C369.409 257.52 364.265 258.064 359.9 255.655C355.535 253.246 352.106 250.605 347.585 249.672C343.065 248.74 338.934 239.882 338.934 239.882C338.934 239.882 345.013 240.348 347.196 238.794C349.378 237.24 349.3 235.919 349.3 235.919C349.3 235.919 360.524 239.96 367.071 240.426C373.618 240.892 375.411 239.027 377.983 238.328C380.555 237.629 385.699 237.318 386.011 235.298C386.323 233.278 364.187 225.741 364.187 225.741C364.187 225.741 376.58 226.052 386.712 223.099C375.956 223.177 356.653 221.183 344.494 214.656C332.335 208.129 329.737 203.156 329.737 203.156C329.737 203.156 336.595 204.141 338.232 202.431C339.869 200.722 331.919 193.962 331.919 193.962C331.919 193.962 339.791 196.604 344.779 196.526C349.768 196.449 357.562 196.682 364.499 188.601C359.511 187.668 353.197 184.017 353.197 184.017C353.197 184.017 370.656 182.23 377.593 169.875C372.527 173.294 365.98 173.372 362.55 172.129C359.121 170.886 353.899 168.71 350.469 169.021C347.04 169.332 342.753 164.437 339.401 164.437C336.05 164.437 335.426 166.69 329.347 165.913C323.267 165.136 320.305 162.96 320.305 162.106C320.305 161.251 322.982 157.78 318.149 153.792C313.317 149.803 309.108 141.774 309.731 141.101C310.355 140.428 312.953 142.966 315.759 142.862C318.565 142.758 322.15 144.727 325.06 144.831C327.97 144.934 328.593 143.587 331.451 144.054C334.309 144.52 335.972 144.779 341.22 144.416C346.468 144.054 351.041 137.579 351.041 137.579C351.041 137.579 347.144 139.392 341.636 138.874C336.128 138.356 332.438 136.646 332.438 136.646C332.438 136.646 340.596 136.802 343.87 132.502C338.986 133.694 323.969 130.845 321.163 129.239C318.357 127.633 316.123 118.206 309.004 115.823C301.885 113.44 301.002 109.607 301.002 109.607C301.002 109.607 311.134 111.834 316.434 107.431C321.734 103.029 321.215 97.7969 319.812 97.6933C318.409 97.5897 318.253 99.3509 315.343 98.9883C312.433 98.6256 310.563 94.3263 310.563 94.3263L314.356 94.6372C314.356 94.6372 312.953 90.7004 305.211 90.1823C297.468 89.6644 300.274 87.178 299.391 85.2097C298.508 83.2413 300.846 83.034 301.885 82.7234C302.924 82.4125 309.523 80.5477 313.473 76.9736C317.422 73.3995 316.59 67.0281 315.239 67.0281C313.888 67.0281 313.473 69.1001 311.446 68.9447C309.419 68.7893 306.665 67.9087 305.574 65.9922C304.483 64.0755 301.106 65.008 299.235 65.9922C297.364 66.9763 296.273 68.1159 295.286 67.1836C294.299 66.2512 293.104 63.6095 293 61.1749C292.896 58.7402 296.065 58.1704 297.832 54.1302C299.599 50.0898 299.131 40.6623 299.287 38.0207C299.443 35.3788 302.145 30.1471 300.742 26.5729C299.339 22.9988 293.883 15.6951 293.104 12.4836C292.324 9.272 290.713 0 290.713 0C290.713 0 289.414 10.8778 289.31 16.0578C289.206 21.2376 288.583 30.9759 287.647 34.1874C286.712 37.3991 287.544 41.2322 285.881 45.169C284.218 49.1056 282.036 53.0942 282.815 56.8236C283.595 60.5532 285.699 61.4856 285.699 61.4856C285.699 61.4856 286.322 63.1173 285.387 64.0497C284.452 64.9821 271.195 67.1121 267.175 64.8526C262.29 62.1072 260.679 57.7561 260.679 57.7561C260.679 57.7561 260.212 62.8842 262.394 67.6497C264.577 72.4152 268.214 75.3159 268.214 75.3159C268.214 75.3159 267.175 78.165 270.084 79.8743C272.994 81.5837 280.425 82.0499 280.425 82.0499C280.425 82.0499 277.671 89.4054 275.333 90.9594C272.994 92.5133 269.097 90.4932 265.772 93.0831C262.446 95.673 258.913 95.2587 256.418 98.004C253.924 100.749 254.808 102.459 255.535 102.459C256.263 102.459 258.549 100.905 260.212 101.785C261.874 102.666 262.654 104.272 265.044 105.308C267.434 106.344 269.929 106.603 269.929 106.603C269.929 106.603 264.68 112.611 260.783 113.181C270.292 115.253 275.488 107.38 278.191 108.467C280.892 109.555 279.438 115.512 274.657 119.449C269.877 123.386 255.119 129.602 248.053 129.602C240.986 129.602 240.414 129.239 238.855 130.948C237.297 132.658 239.401 134.212 243.766 134.911C248.131 135.61 248.208 137.009 252.028 137.32C255.847 137.63 257.25 137.164 257.25 137.164C257.25 137.164 245.636 143.536 249.3 146.644C252.963 149.751 255.068 145.245 258.809 145.167C262.55 145.089 264.655 145.4 265.668 147.265C266.681 149.13 273.072 145.556 276.346 141.593C279.619 137.63 276.58 148.042 275.333 150.218C274.086 152.393 267.46 158.221 261.381 162.96C255.301 167.7 244.156 173.294 235.036 174.227C225.917 175.159 221.24 173.993 220.383 176.014C219.526 178.034 221.318 182.385 227.398 183.473C233.477 184.561 240.648 183.084 241.973 184.25C243.298 185.415 238.933 194.351 234.958 195.283C230.983 196.215 228.723 196.215 228.177 199.012C227.632 201.81 233.4 203.286 236.985 202.975C240.57 202.664 248.754 197.614 248.754 197.614C248.754 197.614 246.182 205.462 247.429 208.569C241.661 212.532 223.579 232.967 223.579 232.967C223.579 232.967 219.838 230.558 211.576 229.082C203.314 227.606 203.937 223.876 203.937 223.876C203.937 223.876 205.34 220.613 211.186 221.234C217.031 221.856 227.71 213.464 228.567 209.813C229.424 206.161 226.229 206.238 226.229 206.238C226.229 206.238 227.476 199.012 219.448 198.236C211.42 197.459 209.861 194.894 204.093 190.699C198.325 186.503 197.702 187.202 197.702 187.202C197.702 187.202 200.975 182.307 203.314 181.686C205.652 181.064 210.874 181.453 214.771 176.946C218.668 172.439 220.773 170.73 222.176 170.186C223.579 169.642 223.501 166.068 218.279 161.95C213.057 157.832 213.031 158.143 210.692 154.983C208.354 151.823 205.548 150.477 205.548 150.477C205.548 150.477 207.159 146.644 206.431 144.831C205.704 143.018 202.586 141.153 202.69 138.822C202.794 136.491 202.326 130.43 199.053 126.442C195.779 122.453 195.831 118.827 195.987 116.911C196.143 114.994 196.039 109.814 193.545 107.691C191.051 105.567 193.233 100.646 191.155 100.905C189.076 101.164 190.375 106.137 190.115 108.053C189.856 109.97 188.297 109.141 187.985 114.528C187.673 119.915 188.92 124.111 186.894 127.115C184.867 130.119 180.658 134.574 179.307 140.169C177.956 145.763 181.749 147.783 181.749 147.783C181.749 147.783 183.412 148.353 183.204 151.616C182.997 154.88 187.102 158.506 188.089 158.454C187.31 161.769 185.699 163.737 182.217 163.737C178.736 163.737 176.138 161.199 172.24 164.721C168.343 168.244 163.615 167.519 162.887 171.404C162.16 175.288 162.784 177.412 167.616 177.93C172.448 178.448 176.969 177.723 181.594 177.36C186.218 176.998 186.686 177.101 186.946 178.759C187.205 180.417 188.738 186.425 184.53 188.523C180.321 190.621 167.148 192.097 156.158 192.253C145.168 192.408 136.439 190.388 136.439 190.388C136.439 190.388 152.339 199.945 159.12 201.11C147.507 203.364 150.235 211.677 152.261 212.687C154.288 213.698 160.835 211.133 163.875 211.677C166.914 212.221 173.306 215.951 175.956 217.427C178.606 218.903 184.997 219.913 184.997 219.913C184.997 219.913 184.296 222.089 182.815 223.177C181.334 224.265 176.19 222.089 172.916 225.43C169.643 228.771 167.07 229.237 164.732 229.315C162.394 229.393 159.51 228.797 154.106 232.682C148.702 236.567 136.543 233.303 134.724 235.324C132.906 237.344 132.23 240.141 136.075 241.488C139.92 242.835 169.071 246.357 169.071 246.357C169.071 246.357 163.797 249.983 160.367 254.256C156.938 258.53 159.51 261.949 163.485 261.793C167.46 261.638 183.984 258.918 184.53 260.161C185.075 261.405 171.877 267.698 159.822 269.252C147.767 270.806 102.144 267.698 102.144 267.698C102.144 267.698 113.784 274.018 118.772 275.986C113.056 279.405 116.901 283.031 119.499 284.585C122.097 286.139 139.037 290.697 139.037 290.697C139.037 290.697 130.1 290.904 120.85 296.188C131.139 298.26 139.765 296.291 139.765 296.291C139.765 296.291 135.711 300.228 139.868 304.786C136.543 309.345 135.192 312.349 131.762 312.764C128.333 313.178 125.735 313.282 123.449 315.353C121.162 317.426 118.46 315.871 115.446 317.529C112.433 319.187 106.093 320.43 102.768 324.47C99.4423 328.51 95.9089 334.001 89.2577 334.312L83.3341 328.096C83.3341 328.096 84.8929 326.957 86.2439 327.164C87.595 327.371 89.5695 328.407 91.544 326.646C93.5186 324.884 92.999 321.569 92.999 321.569C92.999 321.569 99.0266 322.191 102.768 318.565C106.509 314.939 104.405 313.463 103.625 313.152C102.846 312.841 99.4942 315.095 97.3897 314.084C95.2853 313.074 94.1941 311.132 92.4794 310.899C90.7647 310.666 86.8674 306.858 86.8674 306.858C86.8674 306.858 91.544 306.082 94.9735 305.615C98.403 305.149 99.9617 302.585 98.9486 300.798C97.9354 299.011 97.3637 298.674 92.999 298.571C88.6341 298.467 85.9322 296.861 85.2047 294.375C84.4772 291.888 84.0616 289.713 82.5027 288.625C80.9439 287.537 81.2556 286.76 81.6714 286.605C82.087 286.45 83.9057 289.247 85.8802 288.677C87.8547 288.107 87.439 287.175 88.0625 286.968C88.6862 286.76 91.1284 287.33 93.5186 284.637C95.9089 281.943 97.104 279.301 95.649 279.094C94.1941 278.887 91.7 280.907 90.0891 279.508C88.4783 278.11 87.9586 278.783 86.7116 277.747C85.4645 276.711 84.7891 272.412 80.8918 271.687C80.4763 269.874 80.7879 269.045 81.1517 268.372C81.5155 267.698 83.6978 264.538 83.6978 261.949C83.6978 259.358 82.9184 258.322 82.087 255.784C81.2556 253.246 82.7625 251.64 81.2037 249.102C79.6447 246.564 79.8007 244.181 79.0732 241.799C78.3457 239.416 78.1899 237.033 76.4752 237.085C74.7604 237.137 76.4232 242.42 76.3193 245.632C76.2153 248.843 74.8123 251.33 73.4094 255.836C72.0065 260.343 70.9672 262.466 71.4349 264.124C71.9025 265.782 73.981 266.3 74.8123 266.144C75.2281 268.009 75.2281 267.957 73.6172 270.029C72.0065 272.101 70.7074 272.101 66.3945 274.069C62.0818 276.038 59.9513 278.99 60.5748 280.648C61.1985 282.306 62.2895 281.477 64.0562 281.995C65.8229 282.513 65.771 283.911 67.4338 283.808C69.0966 283.704 70.0318 283.031 70.0318 283.031C70.0318 283.031 71.7466 285.155 69.5122 287.278C67.2779 289.402 67.9015 289.661 64.1602 289.661C60.4188 289.661 52.5728 291.371 49.5589 289.92C52.5728 293.339 63.2957 293.538 59.2238 294.789C52.313 296.913 54.4433 296.913 52.0012 297.845C49.5589 298.778 48.3119 299.037 48.26 300.85C48.208 302.663 50.858 302.3 51.4815 302.714C52.105 303.129 52.6247 304.89 54.5472 305.045C56.4699 305.201 58.6003 304.113 60.2112 304.113C61.822 304.113 64.7838 304.32 66.8623 303.336C66.0828 306.444 64.7838 307.791 58.8082 309.707C52.8326 311.624 44.2589 313.644 35.0097 312.401C38.1794 316.907 53.9757 316.234 53.9757 316.234C53.9757 316.234 49.8187 318.979 41.297 320.43C32.7753 321.88 29.8136 323.175 29.8136 323.175C29.8136 323.175 33.7627 326.024 36.9323 326.697C40.1019 327.371 42.4402 325.972 45.2462 326.179C48.0522 326.387 49.5589 328.251 53.4562 327.837C57.3532 327.423 58.8082 325.972 58.8082 325.972C58.8082 325.972 59.2238 328.873 62.0818 329.132C54.6772 337.083 45.3241 342.211 39.7123 342.833C34.1003 343.454 28.0988 341.512 23.6561 342.988C31.0606 349.36 38.0755 350.059 40.4917 350.137C42.9079 350.214 50.3903 350.292 50.3903 350.292C50.3903 350.292 34.646 352.118 33.6326 355.731C33.6326 355.731 18.496 353.437 8.99988 355C5.6351 355.554 0.5 357 0.5 357Z" fill="#05252E"/>
</svg>
