<svg width="691" height="331" viewBox="0 0 691 331" fill="none" xmlns="http://www.w3.org/2000/svg">
<path d="M682.598 317.036C678.108 310.122 670.626 307.132 669.503 302.46C668.381 297.788 665.014 294.985 663.517 292.182C662.02 289.378 666.183 271.438 664.639 267.514C663.096 263.589 655.38 261.487 655.239 260.926C655.099 260.366 669.223 251.162 668.942 247.518C668.661 243.874 668.381 242.566 668.381 242.566C668.381 242.566 672.496 240.51 673.899 238.735C662.582 243.033 649.861 244.435 646.494 244.341C652.854 240.51 657.718 237.894 659.214 235.371C660.711 232.848 668.006 229.858 668.849 227.335C664.826 228.643 659.776 229.111 659.776 229.111C659.776 229.111 668.661 226.588 670.906 222.477C657.531 227.429 651.732 226.962 648.458 226.214C645.185 225.467 642.519 223.832 639.9 224.299C637.281 224.766 637.749 220.981 636.252 220.514C634.756 220.047 635.691 216.777 636.953 215.515C638.216 214.254 639.619 213.133 642.425 213.133C645.231 213.133 661.927 209.489 667.258 202.574C661.179 206.031 654.07 205.938 654.07 205.938C654.07 205.938 660.711 202.201 662.956 196.407C665.201 190.614 664.92 187.157 658.653 187.998C652.387 188.839 651.545 191.642 647.897 189.96C644.249 188.278 641.443 187.25 638.45 187.624C635.457 187.998 631.809 186.316 630.406 184.914C629.003 183.513 628.723 182.111 628.723 182.111C628.723 182.111 642.94 179.869 646.026 174.169C642.191 174.73 635.831 176.412 635.831 176.412C635.831 176.412 645.372 167.909 647.336 160.06C644.015 161.625 637.842 168.212 637.842 168.212C637.842 168.212 637.141 164.778 634.896 164.848C632.651 164.919 631.879 166.18 631.879 166.18C631.879 166.18 628.442 164.592 627.554 162.956C626.665 161.321 624.56 160.667 624.56 160.667C624.56 160.667 630.032 155.902 629.284 150.482C628.536 145.063 624.607 145.624 622.549 145.203C620.492 144.783 616.937 139.597 615.815 136.56C614.693 133.523 614.272 124.693 613.991 119.928C613.711 115.163 614.412 109.767 612.728 108.575C611.045 107.384 612.307 100.446 611.396 100.306C610.484 100.166 609.572 104.441 609.361 110.187C609.151 115.934 605.573 135.766 599.61 142.003C600.522 142.213 602.907 141.022 602.907 141.022C602.907 141.022 598.348 147.189 595.401 147.119C600.031 148.38 605.012 143.965 605.012 143.965C605.012 143.965 605.152 149.151 604.31 151.043C603.469 152.935 589.509 155.037 587.474 153.916C585.44 152.795 582.844 151.674 582.003 151.814C581.161 151.954 582.985 155.738 585.931 157.56C588.877 159.382 594.7 160.574 594.7 160.574C594.7 160.574 591.333 163.307 592.946 166.46C594.56 169.614 595.612 169.474 595.612 169.474C595.612 169.474 588.386 173.188 586.983 177.533C585.58 181.878 587.825 186.503 590.561 187.624C589.579 189.726 577.653 195.613 573.515 194.912C569.376 194.211 568.534 195.053 568.604 196.594C568.674 198.136 573.164 200.379 578.916 200.028C581.442 201.219 580.179 202.691 578.425 202.621C582.494 205.354 592.806 201.43 592.806 201.43C592.806 201.43 589.158 205.284 589.018 207.176C596.033 206.896 598.418 201.85 598.418 201.85C598.418 201.85 597.997 209.138 592.455 218.108C586.913 227.078 580.389 229.601 580.389 229.601C580.389 229.601 583.897 229.741 586.773 229.391C586.282 232.194 590.14 234.927 594.981 233.806C592.034 236.259 592.385 239.763 591.613 241.795C590.842 243.827 588.316 245.229 585.37 245.93C582.424 246.63 581.054 244.649 575.128 244.738L573.585 244.762C573.585 244.762 575.596 242.566 577.279 241.024C578.963 239.482 578.963 237.053 577.139 234.717C575.315 232.381 572.509 233.035 570.498 232.802C568.487 232.568 567.739 231.26 567.739 231.26C567.739 231.26 578.682 228.457 580.413 226.121C582.143 223.785 588.269 214.254 585.23 211.124C582.19 207.994 580.413 214.02 576.204 212.339C571.995 210.657 571.761 210.049 566.616 211.217L569.048 209.021C569.048 209.021 563.764 206.078 558.292 203.695C552.82 201.313 550.248 198.229 550.248 198.229C550.248 198.229 552.493 195.006 554.364 194.492C556.234 193.978 558.479 192.483 558.993 189.026C559.508 185.569 561.098 182.438 559.508 181.597C557.918 180.757 552.961 183.232 550.014 182.719C547.068 182.205 538.79 177.112 536.639 175.103C534.488 173.094 530.232 172.907 530.232 172.907C530.232 172.907 530.466 169.871 529.484 168.703C528.502 167.535 533.038 163.61 534.628 164.171C536.218 164.732 549.126 167.535 554.504 163.284C548.518 163.938 539.819 158.985 539.819 158.985C539.819 158.985 551.932 157.771 554.551 154.547C557.17 151.323 560.911 148.053 558.526 145.811C556.141 143.568 552.446 147.726 550.389 146.558C548.331 145.39 542.999 142.073 539.679 141.653C549.734 140.672 559.882 129.926 560.303 127.917C560.724 125.908 560.069 123.946 561.519 121.376C562.969 118.807 562.782 114.649 562.782 114.649C562.782 114.649 554.574 125.674 544.332 127.567C534.09 129.459 526.374 128.758 521.183 124.764C515.992 120.769 517.886 113.341 517.886 113.341C517.886 113.341 522.024 114.392 527.075 114.392C524.199 109.977 521.253 109.556 521.253 109.556C521.253 109.556 526.163 109.066 524.795 104.336C527.882 106.088 538.229 103.6 540.895 99.3951C538.825 99.5703 536.966 99.6402 536.966 99.6402C536.966 99.6402 538.369 98.8344 538.51 97.0124C538.65 95.1903 531.074 91.5111 531.074 91.5111C531.074 91.5111 531.46 90.0746 530.723 89.3387C529.987 88.6029 528.934 88.4977 528.934 88.4977C528.934 88.4977 529.39 87.1311 527.356 84.6084C525.322 82.0856 523.077 81.9104 523.077 81.9104C523.077 81.9104 523.042 77.8459 523.322 77.8108C523.603 77.7757 524.445 79.0021 525.637 78.5116C526.83 78.0209 526.584 75.2178 525.883 71.8541C525.181 68.4902 521.323 63.9 520.201 61.7277C519.078 59.5552 517.43 58.2588 517.395 54.6148C517.36 50.9705 517.149 48.9034 516.658 47.4667C516.167 46.03 514.939 45.1541 514.904 43.1219C514.869 41.0895 513.992 34.6073 513.221 34.362C512.449 34.1166 512.905 39.8981 512.063 41.7202C511.221 43.5423 511.607 47.7821 511.537 50.8656C511.467 53.9489 511.362 56.9272 510.59 58.6444C509.818 60.3611 502.944 74.7973 502.944 74.7973C502.944 74.7973 507.398 71.6671 508.521 69.5181C507.574 74.5522 506.907 76.7246 506.907 76.7246H509.012C509.012 76.7246 502.733 83.4873 499.834 85.7297C496.934 87.9722 499.46 96.0079 498.29 98.0168C497.121 100.026 490.246 99.2315 490.246 99.2315C490.246 99.2315 493.894 101.381 497.542 102.081C492.304 103.81 480.051 103.389 476.497 99.979C483.746 109.323 492.211 109.837 492.211 109.837C492.211 109.837 483.512 111.706 477.339 109.697C481.642 113.995 490.2 117.826 495.625 116.751C494.268 120.115 481.267 131.655 481.267 131.655C481.267 131.655 486.365 131.187 488.984 128.571C489.124 131.234 489.592 133.336 489.592 133.336C489.592 133.336 493.24 129.879 495.812 127.543C498.384 125.207 506.849 112.733 506.849 112.733C506.849 112.733 501.05 129.038 495.905 136.046C490.761 143.054 477.105 154.08 477.105 154.08C477.105 154.08 480.472 154.594 482.577 153.519C485.336 157.443 493.286 156.136 493.286 156.136C493.286 156.136 489.545 163.377 488.633 166.46C487.721 169.544 478.882 175.571 478.882 175.571C478.882 175.571 484.003 167.301 482.179 166.04C480.355 164.778 476.006 171.506 468.64 172.417C461.275 173.328 453.769 170.245 453.769 170.245C453.769 170.245 460.035 165.853 460.129 163.844C460.222 161.835 452.366 159.873 450.495 155.248C448.624 150.623 446.239 143.101 446.239 143.101C446.239 143.101 452.646 151.977 455.733 153.706C458.819 155.435 462.561 157.771 464.291 158.611C466.021 159.453 474.486 159.172 474.486 159.172L465.413 155.668C465.413 155.668 475.609 154.874 475.702 151.277C475.796 147.679 467.424 146.605 461.625 139.924C455.826 133.243 448.484 125.348 448.484 125.348C448.484 125.348 453.161 126.889 454.423 128.244C455.686 129.599 460.035 130.066 462.233 129.786C464.431 129.505 467.986 130.487 470.605 127.497C467.611 128.104 465.881 127.216 465.46 126.329C465.039 125.441 461.766 123.665 459.614 122.778C457.463 121.89 456.247 118.947 452.974 115.443C449.7 111.939 445.491 104.558 445.491 104.558C445.491 104.558 452.319 103.903 455.92 98.5775C459.521 93.2515 455.967 89.6074 455.405 89.6074C454.844 89.6074 451.711 90.3549 448.531 89.1401C445.35 87.9254 443.573 85.1222 442.077 85.169C442.638 82.4127 439.598 79.1424 438.336 77.9742C437.073 76.8062 436.512 74.0031 436.792 73.3959C437.073 72.7886 446.005 72.3212 446.005 67.6493C446.005 62.9773 441.937 60.0343 438.148 59.707C434.36 59.3801 435.904 52.3255 432.77 49.4757C429.637 46.6256 431.648 19.9958 428.889 19.3885C426.129 18.7812 427.813 23.9204 424.773 29.0126C421.733 34.105 423.37 38.4032 423.23 43.075C423.09 47.7471 421.032 51.2978 420.938 54.4278C420.845 57.558 418.086 58.8194 417.618 61.2955C417.15 63.7718 417.618 64.9864 416.776 67.0887C415.934 69.1912 408.919 71.2935 408.873 73.1155C408.826 74.9376 411.445 80.9176 414.812 81.1978C408.545 82.6462 411.351 86.6173 408.592 88.0656C405.833 89.5138 400.174 91.7097 397.929 92.6907C395.684 93.6719 391.288 97.2226 391.335 99.5119C391.382 101.801 397.415 103.343 397.415 103.343L391.709 108.715C391.709 108.715 397.695 107.454 401.343 105.679C404.991 103.903 409.948 104.931 409.948 104.931C409.948 104.931 405.646 112.219 400.408 115.677C395.17 119.134 395.573 122.038 390.984 122.871C387.898 123.432 385.934 122.661 382.917 124.974C379.901 127.286 374.218 133.103 372.535 133.103C370.851 133.103 365.8 133.243 362.503 138.359C367.624 135.906 371.272 135.626 373.938 137.868L368.326 143.825C368.326 143.825 373.236 141.372 377.586 139.901C381.935 138.429 385.092 136.046 390.423 136.817C388.459 141.512 384.601 148.1 381.304 150.973C378.007 153.846 370.501 158.682 367.765 163.167C373.657 159.873 377.235 157.911 379.831 157.911C382.426 157.911 391.335 154.477 397.228 149.081C403.12 143.685 412.52 132.893 412.52 132.893C412.52 132.893 411.117 142.003 407.961 147.889C404.804 153.776 401.226 155.598 399.753 159.803C398.28 164.008 392.598 167.161 391.054 169.193C389.511 171.226 384.32 173.048 382.356 177.813C387.687 175.36 403.752 175.29 403.752 175.29C403.752 175.29 391.686 182.789 383.057 188.325C374.429 193.861 364.538 195.823 361.451 195.473C358.365 195.122 348.894 196.034 345.808 198.276C350.718 198.416 353.454 198.556 354.787 200.519C356.12 202.481 357.944 200.869 360.82 202.13C363.696 203.392 368.045 203.742 375.902 201.85C383.759 199.958 394.772 197.926 394.772 197.926C394.772 197.926 381.795 207.386 374.92 207.947C368.045 208.508 360.609 207.316 358.365 208.438C360.259 211.801 363.556 212.362 366.432 212.712C369.308 213.063 373.727 215.866 373.727 215.866L367.063 219.16C367.063 219.16 371.272 220.071 378.989 218.529C386.705 216.987 390.774 214.534 390.774 214.534C390.774 214.534 390.119 218.739 387.173 220.935C384.227 223.131 381.982 219.346 377.632 222.944C373.283 226.541 370.945 223.878 369.261 225C367.578 226.121 364.023 223.411 360.797 225.28C357.57 227.148 355.559 231.073 354.997 233.806C354.436 236.539 355.769 236.329 354.156 238.922C352.542 241.515 350.929 243.127 347.421 244.108C343.914 245.089 342.861 249.574 340.476 249.714C338.091 249.854 334.022 250.064 332.409 250.555C336.758 246.21 337.39 237.52 337.39 237.52C337.39 237.52 330.655 244.738 329.814 247.191C331.918 240.113 328.691 217.267 328.691 217.267C328.691 217.267 325.534 229.251 323.43 238.431C321.325 247.612 318.73 254.83 318.73 254.83C318.73 254.83 313.89 259.104 312.977 259.104C312.066 259.104 311.75 257.878 310.663 258.194C309.575 258.509 308.628 264.991 312.557 269.126C309.634 272.326 305.191 272.7 303.881 271.905C302.572 271.111 297.147 270.691 295.65 269.943C294.154 269.196 287.022 269.616 283.725 270.807C280.428 271.999 276.429 272.092 275.634 271.065C274.839 270.037 269.087 270.597 266.842 270.083C264.597 269.57 267.871 265.972 270.724 264.337C273.577 262.702 273.81 256.161 272.594 254.993C271.379 253.825 263.709 255.647 262.867 254.012C262.025 252.377 269.321 250.601 271.098 250.788C272.875 250.975 281.808 250.181 281.808 250.181C281.808 250.181 277.271 247.518 274.091 247.144C277.645 245.789 279.469 240.09 279.516 237.894C279.563 235.698 287.513 229.671 291.535 219.253C285.642 224.112 273.483 234.764 264.223 233.549C274.233 231.404 281.995 220.795 281.995 220.795C281.995 220.795 269.461 228.831 262.212 225.84C254.963 222.85 253.935 223.411 253.935 223.411C253.935 223.411 255.595 220.176 258.471 219.475C261.347 218.774 262.084 215.48 260.786 214.044C259.488 212.607 256.296 212.187 255.595 211.205C254.893 210.224 261.838 211.03 262.61 209.979C263.382 208.928 267.38 209.208 269.169 209.769C270.958 210.33 275.237 208.367 275.237 208.367C275.237 208.367 273.553 206.51 270.572 205.564C267.59 204.618 267.906 203.637 268.081 203.357C268.257 203.076 270.782 203.076 273.553 202.166C276.324 201.255 279.2 197.295 279.2 197.295C279.2 197.295 273.67 199.257 268.198 198.696C262.727 198.136 260.108 197.295 259.313 196.361C258.518 195.426 256.834 195.473 256.834 195.473C256.834 195.473 256.893 193.616 255.665 191.864C254.437 190.112 251.21 189.376 251.386 187.974C251.561 186.573 255.875 186.958 257.805 182.929C259.734 178.899 255.7 177.077 253.946 175.536C252.193 173.994 250.053 171.822 250.053 171.822C250.053 171.822 257.243 173.854 261.102 171.962C257.348 170.758 251.328 166.358 249.492 164.218C247.808 162.256 248.229 155.598 248.369 150.132C248.51 144.666 250.193 125.745 249.772 125.745C249.351 125.745 247.177 135.626 246.545 139.55C245.914 143.475 243.81 146.137 243.319 147.82C242.828 149.501 243.81 154.617 242.126 157C240.442 159.382 234.129 162.536 234.199 163.377C234.269 164.218 230.551 165.5 230.551 165.5C230.551 165.5 237.777 166.782 239.951 165.5C242.126 164.218 241.074 168.633 240.092 169.894C239.11 171.156 238.268 173.959 237.917 176.622C237.566 179.285 234.901 178.023 233.638 179.915C232.375 181.808 231.253 182.158 231.253 182.929C231.253 183.7 234.971 184.471 235.321 185.872C235.672 187.274 232.562 192.623 229.522 194.071C226.483 195.52 222.741 196.594 222.414 198.37C222.087 200.145 223.489 201.827 223.489 201.827C223.489 201.827 223.723 204.536 225.547 204.583C227.371 204.63 217.691 206.872 214.37 205.144C211.05 203.415 212.874 209.442 214.791 210.657C216.708 211.871 217.129 213.88 219.281 214.815C221.432 215.749 225.22 214.581 225.22 214.581C225.22 214.581 223.069 223.878 221.432 223.551C219.795 223.224 217.737 220.141 216.287 217.244C214.838 214.347 212.686 210.984 211.096 209.862C209.506 208.741 204.175 198.603 203.801 195.286C203.427 191.969 201.369 185.288 201.369 185.288C201.369 185.288 207.355 191.829 210.582 192.95C213.809 194.071 218.486 192.623 218.486 192.623C218.486 192.623 213.575 189.913 210.675 188.138C215.165 189.913 227.792 183.606 227.792 183.606C227.792 183.606 221.151 182.485 217.036 182.906C217.691 181.504 231.968 177.682 232.702 171.786C228.119 171.366 221.432 173.795 221.432 173.795C221.432 173.795 221.292 172.394 218.486 171.833C215.68 171.273 210.114 170.151 208.01 167.208C205.905 164.265 200.106 154.36 201.275 152.071C202.444 149.782 204.689 147.773 204.175 145.25C206.139 148.24 211.237 147.726 213.622 147.773C216.007 147.82 219.608 147.586 223.396 145.717C218.766 144.643 210.255 143.661 210.255 143.661C210.255 143.661 217.924 143.568 221.245 140.718C224.565 137.868 227.09 134.224 227.09 134.224L218.205 136.513C218.205 136.513 219.047 132.916 217.737 132.496C216.428 132.075 211.143 133.009 208.056 128.151C204.97 123.292 202.117 118.947 202.117 118.947L202.959 116.004C202.959 116.004 207.542 118.106 210.442 116.611C213.341 115.116 215.867 111.706 215.867 111.706C215.867 111.706 224.939 109.556 225.033 104.698C224.939 103.296 218.532 104.417 216.381 104.23C214.23 104.044 210.488 100.867 210.067 99.2315C209.646 97.5963 210.132 95.6214 209.085 94.9802C208.056 94.3494 205.204 94.8866 204.502 94.1624C203.801 93.4384 201.158 89.5607 201.158 89.5607C201.158 89.5607 204.549 92.1535 206.958 91.5696C209.366 90.9855 211.166 90.0512 211.166 90.0512C211.166 90.0512 208.805 85.9632 205.063 84.6084C201.322 83.2536 202.211 82.2959 203.123 82.2023C204.035 82.1089 206.233 81.595 206.958 79.4225C207.682 77.2502 208.279 75.3231 206.034 73.2556C203.789 71.1883 203.263 69.1561 203.824 67.9297C204.385 66.7032 203.684 62.3585 202.351 60.8167C201.018 59.275 200.808 55.2104 200.843 53.3883C200.878 51.5662 199.615 44.9089 199.615 44.9089C199.615 44.9089 197.768 54.6148 197.534 56.9974C197.3 59.3801 197.674 62.9775 195.991 65.3133C194.307 67.6493 193.044 68.4902 193.652 71.9943C194.26 75.4981 192.904 78.1612 190.94 80.4036C188.976 82.6462 188.368 85.4495 189.443 86.7107C190.519 87.9722 193.606 87.5985 194.307 88.6264C195.009 89.6541 194.915 95.2604 192.717 96.8488C190.519 98.4373 186.263 102.081 179.202 102.362C172.14 102.642 170.129 104.838 168.492 103.623C166.855 102.408 165.873 101.381 164.657 102.922C163.441 104.464 159.139 109.089 158.952 111.005C158.764 112.92 163.114 112.36 164.61 111.192C166.107 110.024 165.779 113.247 170.222 112.126C168.211 115.209 164.423 119.975 162.178 119.928C159.934 119.881 159.372 119.741 159.466 121.143C159.559 122.544 161.524 123.759 164.563 123.199C167.603 122.638 175.273 121.376 176.91 118.76C178.547 116.144 178.968 115.536 179.529 115.583C180.09 115.63 179.529 116.985 180.698 118.059C181.867 119.134 186.591 118.62 186.591 118.62C186.591 118.62 176.349 126.142 168.866 128.197C172.327 129.505 176.723 128.151 176.723 128.151C176.723 128.151 169.147 132.916 165.686 132.916C162.225 132.916 162.085 134.364 159.139 133.15C156.192 131.935 148.616 128.197 147.26 128.291C145.904 128.384 148.242 131.982 149.692 132.963C151.141 133.944 151.329 133.99 152.498 135.719C153.667 137.448 155.865 138.709 158.157 138.943C160.448 139.176 168.071 139.13 168.679 139.83C169.287 140.531 163.137 145.507 159.84 145.367C156.543 145.227 151.913 145.156 151.492 146.137C151.071 147.119 155.07 147.749 155.771 148.801C156.473 149.852 159.7 148.52 161.103 148.801C162.506 149.081 164.33 150.062 166.645 148.66C168.96 147.259 170.222 147.119 172.257 147.119C174.291 147.119 179.272 143.264 179.272 143.264C179.272 143.264 176.115 147.749 174.081 149.291C172.046 150.833 168.398 153.075 168.398 153.075C168.398 153.075 176.255 152.375 184.603 145.507C184.112 150.552 183.481 158.121 172.046 166.46C160.612 174.8 135.708 174.029 132.552 173.468C135.989 176.902 139.076 177.883 139.988 180.336C135.779 180.826 133.253 180.406 133.253 180.406C133.253 180.406 138.795 183.63 145.179 182.789C151.562 181.948 156.262 178.794 156.262 178.794C156.262 178.794 150.089 186.293 145.319 187.204C140.549 188.115 130.728 186.853 130.728 186.853C130.728 186.853 135.498 191.829 138.865 192.67C142.232 193.511 143.425 194.282 144.758 195.122C146.091 195.963 159.068 191.268 159.068 191.268L149.809 197.505C149.809 197.505 158.928 197.856 166.224 191.689C173.519 185.522 177.869 180.967 178.64 181.527C179.412 182.088 174.291 189.726 165.733 196.664C157.174 203.602 147.424 208.998 137.603 209.208C141.04 206.405 145.997 204.396 147.307 201.313C142.443 203.322 134.306 199.397 134.306 199.397L138.421 197.856C138.421 197.856 112.559 189.026 110.735 180.196C108.911 171.366 107.368 170.758 107.368 167.582C107.368 164.405 105.544 162.256 105.544 162.256C105.544 162.256 113.494 167.628 117.142 167.815C120.79 168.002 130.284 165.5 130.284 165.5L123.83 163.143C123.83 163.143 137.345 163.984 142.77 159.966L133.417 159.92C133.417 159.92 138.14 157.397 140.292 157.443C142.443 157.49 144.267 155.575 145.109 154.313C145.95 153.052 147.774 149.828 146.324 148.988C144.875 148.146 138.608 150.996 134.072 151.604C129.535 152.211 123.502 150.389 118.639 148.24C113.775 146.091 112.886 144.97 112.886 144.97C112.886 144.97 117.282 145.951 121.819 144.97C126.355 143.989 128.74 139.971 131.967 138.803C135.194 137.635 135.147 136.794 136.691 136.327C138.234 135.859 143.752 131.094 143.752 131.094C143.752 131.094 134.68 135.953 127.524 134.645C120.369 133.336 118.171 134.084 115.739 132.355C113.307 130.627 109.94 128.898 108.116 127.543C106.292 126.188 103.86 123.619 101.475 120.208C99.0902 116.798 97.2196 112.733 97.5468 111.612C97.8743 110.491 98.8097 111.986 100.353 112.36C101.896 112.733 104.001 110.865 105.778 111.238C107.555 111.612 109.332 114.135 111.717 114.368C114.102 114.602 117.095 112.874 119.013 113.668C120.93 114.462 126.776 115.069 132.715 113.714C128.6 111.052 126.028 111.332 126.028 111.332C126.028 111.332 135.194 108.342 138.374 105.118C133.651 104.978 127.244 107.734 123.736 107.501C120.229 107.267 111.437 102.268 111.437 102.268C111.437 102.268 119.481 99.3718 121.211 96.5218C122.941 93.6719 127.057 85.5896 123.83 84.0011C120.603 82.4127 115.412 88.019 109.987 85.9632C104.562 83.9077 97.2663 78.7918 96.0738 78.0209C94.8812 77.2502 95.6529 75.358 99.02 74.377C102.387 73.3959 104.071 72.1345 105.263 70.6627C106.456 69.1912 105.088 67.3691 105.298 65.547C105.509 63.7249 105.86 61.3072 104.983 61.0271C104.106 60.7465 99.8268 61.062 98.3185 60.2562C96.8103 59.4502 93.3028 58.3639 93.0573 57.8384C92.8117 57.3128 93.4432 56.4718 93.829 55.4557C94.2148 54.4396 93.5483 49.499 93.5483 49.499C93.5483 49.499 97.6171 51.9168 99.2306 52.1619C100.844 52.4072 104.913 49.7442 104.913 49.7442L98.6693 46.9762C98.6693 46.9762 106.819 43.4405 106.316 40.4239C106.175 39.583 103.124 41.1597 100.353 39.0923C97.5819 37.0251 94.2148 35.8337 94.1446 33.1005C94.0745 30.3674 91.9349 29.8069 92.426 26.0576C92.917 22.3086 91.4087 22.1334 91.4439 19.7507C91.479 17.368 90.7423 15.3707 90.3566 13.829C89.9706 12.2872 89.8771 0 89.8771 0C89.2224 3.27051 86.9777 9.62431 86.8842 12.8945C86.7905 16.1649 87.913 18.5009 86.8842 21.0236C85.8552 23.5466 83.3766 26.6768 83.5637 28.4521C83.7508 30.2273 81.7398 31.5354 81.5059 33.1707C81.2721 34.8059 80.1498 36.7681 77.3438 38.6369C74.5378 40.5055 71.8253 40.4121 71.6849 41.2531C71.5446 42.0939 72.0123 42.8882 75.4731 44.43C70.4222 46.6725 64.6233 47.2798 64.6233 47.2798C64.6233 47.2798 69.9545 48.4945 72.4332 48.261C74.9118 48.0273 81.2253 47.7936 83.4701 46.1587C84.1249 45.6914 84.92 46.0651 84.3119 47.3267C83.7041 48.5879 79.9626 52.4189 76.3616 53.9607C72.7606 55.5024 72.2461 57.4646 72.6203 58.6793C72.9945 59.894 74.9118 60.4547 76.5488 59.8473C78.1855 59.2401 79.0741 59.0531 79.8691 59.2401C80.6641 59.4268 82.1607 59.4735 83.2362 58.6326C83.7508 60.4547 84.0781 63.1643 81.2253 64.706C78.3726 66.2478 73.9765 66.7149 72.4799 67.7429C70.9835 68.7708 55.3633 68.2567 53.3991 67.4158C57.0001 71.1066 62.4251 71.4336 62.4251 71.4336C62.4251 71.4336 60.4609 73.863 56.8131 75.2178C53.1653 76.5728 47.6469 74.6572 46.3375 75.6383C45.0279 76.6194 47.413 79.9831 49.237 81.525C51.0608 83.0668 54.0072 82.8332 54.8489 83.4873C55.6907 84.1412 59.245 84.7485 59.245 84.7485C59.245 84.7485 56.6729 87.4115 52.8847 88.0656C49.0967 88.7196 48.3484 90.9155 48.5822 91.7564C48.8161 92.5975 51.7155 94.186 53.9137 94.5128C56.1117 94.8399 58.45 93.6252 60.8351 94.0924C63.2202 94.5596 67.1931 94.0924 67.9191 93.3449C68.6451 92.5975 69.8144 90.7286 70.7029 90.9155C71.5914 91.1023 73.8362 95.1203 70.6561 98.998C67.4759 102.876 53.9137 113.901 30.6706 110.537C34.2716 114.742 45.215 115.023 45.215 115.023C45.215 115.023 39.0418 117.055 36.7971 118.667C43.2509 121.119 47.8807 118.386 50.4762 118.947C53.0719 119.508 56.7196 118.947 58.9643 119.998C61.2092 121.049 64.7868 121.33 66.1899 119.998C67.5929 118.667 70.3988 119.998 72.5736 120.138C74.7482 120.278 77.8348 117.265 77.8348 117.265C77.8348 117.265 75.8706 122.381 71.7317 127.216C67.5929 132.052 53.0719 137.308 41.006 137.378C28.9403 137.448 25.2222 136.467 24.9417 138.008C24.6611 139.55 28.4493 142.704 30.8344 144.246C33.2195 145.787 44.2329 146.208 46.618 146.628C49.0031 147.049 47.3195 149.011 42.8299 149.711C38.3403 150.412 36.4463 150.412 36.0254 151.394C35.6046 152.375 40.2344 155.388 43.1807 155.318C46.127 155.248 46.8285 153.846 49.1435 154.267C51.4583 154.687 53.0719 152.865 54.6853 152.865C56.2988 152.865 57.2808 154.337 59.245 152.795C61.2092 151.253 64.1554 151.604 64.6466 152.585C65.1376 153.566 68.9256 153.916 72.1527 152.515C68.7854 155.949 65.5585 162.185 58.754 165.479C51.9494 168.773 45.9867 167.582 43.1807 170.104C40.3748 172.627 39.6031 173.118 39.6031 174.309C39.6031 175.5 44.3733 176.131 48.3017 175.991C52.2299 175.851 61.8406 175.01 67.663 169.264C63.3137 174.169 61.4197 178.164 61.4197 178.164C61.4197 178.164 70.0481 174.169 73.9063 170.455C77.7647 166.741 79.6586 164.708 80.3602 165.129C81.0616 165.549 81.6228 168.002 85.902 166.811C83.3766 171.086 82.114 175.01 77.0631 178.164C72.0123 181.317 68.0839 186.223 64.1554 188.535C60.2272 190.848 53.3524 195.753 44.0926 195.823C34.8329 195.893 31.5357 196.244 28.7297 195.823C25.9238 195.403 23.2581 196.594 23.1878 197.715C23.1178 198.837 24.5909 199.537 28.3089 202.411C32.0269 205.284 36.5164 204.233 36.5164 204.233C36.5164 204.233 30.9746 208.367 25.5029 208.998C20.0311 209.629 16.1028 209.769 13.5072 210.4C10.9116 211.03 2.42349 209.489 2.42349 209.489C2.42349 209.489 5.72047 214.885 12.3146 216.847C18.9089 218.809 29.9223 218.459 39.2523 214.324C33.0089 219.58 21.2236 225.467 21.2236 225.467C21.2236 225.467 25.7835 228.62 31.3254 226.728C36.8672 224.836 37.9193 222.523 39.7433 222.734C41.5673 222.944 43.3911 223.574 46.618 221.752C49.8448 219.93 52.3703 220.421 53.9137 219.51C55.457 218.599 57.8421 216.076 57.8421 216.076C57.8421 216.076 57.0001 220.211 54.4047 223.084C51.809 225.957 51.809 228.06 51.809 228.06C51.809 228.06 56.0882 225.957 60.2272 224.415C64.3659 222.874 78.1855 211.871 78.1855 211.871C78.1855 211.871 74.3974 222.173 63.1033 228.62C51.809 235.067 38.2 244.178 33.4298 247.191C28.6596 250.204 23.8894 258.614 23.8894 258.614C23.8894 258.614 51.739 246.701 60.2973 240.954C44.1627 252.517 33.079 263.379 22.2058 265.622C11.3326 267.864 8.3161 268.985 5.01913 268.215C1.72194 267.444 0.599664 267.023 0.0383844 269.056C-0.522753 271.088 5.22953 275.363 6.77281 276.974C8.3161 278.586 17.5058 276.484 17.5058 276.484C17.5058 276.484 14.5595 280.128 14.9804 281.88C15.4013 283.632 22.276 285.174 30.8344 281.88C39.3925 278.586 42.4792 275.293 43.6717 275.503C44.8643 275.713 44.2329 279.427 48.8628 279.287C53.4928 279.147 60.0166 273.19 61.2092 273.26C62.4017 273.33 63.8749 272.559 63.8749 272.559C63.8749 272.559 40.3981 301.525 31.98 308.44C23.562 315.354 11.2156 328.249 11.2156 328.249C6.25839 328.249 0.40652 329.225 0.5 331C21 331 691 331 691 331C691 331 687.087 323.951 682.598 317.036ZM118.873 231.634L112.559 220.421L130.938 228.27L118.873 231.634Z" fill="#05252E"/>
</svg>
